<svg width="24" height="24" viewBox="0 0 24 24" fill="none" xmlns="http://www.w3.org/2000/svg">
<g clip-path="url(#clip0_5109_66585)">
<path fill-rule="evenodd" clip-rule="evenodd" d="M0 7.46153L12.4215 1.2508C12.7495 1.08676 13.1164 1.0161 13.482 1.04657L24 1.92307L11.0769 8.38461L0 7.46153ZM24 2.84614L11.077 9.30768V22.2308L22.8945 16.322C23.572 15.9832 24 15.2907 24 14.5331V2.84614ZM10.1538 9.30768L0 8.3846V19.4813C0 20.5157 0.788772 21.3794 1.81893 21.473L10.1538 22.2308V9.30768ZM22.154 5.61539L21.2309 6.07693V15.3077L22.154 14.8462V5.61539ZM18.4615 7.46154L19.3846 7V16.2308L18.4615 16.6923V7.46154ZM16.6155 8.38461L15.6924 8.84615V18.0769L16.6155 17.6154V8.38461ZM13.8461 9.76923L12.923 10.2308V19.4615L13.8461 19V9.76923ZM4.61542 11.1538H5.53849V19.4615H4.61542V11.1538Z" fill="#819FB2"/>
</g>
<defs>
<clipPath id="clip0_5109_66585">
<rect width="24" height="24" fill="white"/>
</clipPath>
</defs>
</svg>
