<svg width="20" height="20" viewBox="0 0 20 20" fill="none" xmlns="http://www.w3.org/2000/svg">
<path d="M16.1564 17.3118C16.6224 17.3118 17.0002 17.6896 17.0002 18.1556C17.0002 18.5828 16.6827 18.9359 16.2708 18.9918L16.1564 18.9995H3.84385C3.3778 18.9995 3 18.6217 3 18.1556C3 17.7285 3.31746 17.3754 3.72933 17.3195L3.84385 17.3118H16.1564ZM10.0436 1C10.4708 1 10.8239 1.31746 10.8798 1.72934L10.8874 1.84385L10.8868 13.3124L14.2241 9.97001C14.5235 9.67015 14.9922 9.64248 15.3228 9.88729L15.4175 9.96891C15.7174 10.2682 15.7451 10.737 15.5002 11.0676L15.4187 11.1623L10.645 15.9448L10.5654 16.0151L10.463 16.0811L10.4221 16.1049L10.3195 16.1476L10.1839 16.1814L10.106 16.1903L10.0384 16.1925C9.98205 16.1925 9.92481 16.1863 9.86887 16.1745L9.77787 16.1485C9.66984 16.1136 9.57183 16.057 9.4884 15.9841L4.66208 11.1632C4.33229 10.8339 4.33192 10.2997 4.66123 9.96989C4.9606 9.67008 5.42937 9.64252 5.7599 9.88739L5.85461 9.96903L9.1991 13.3077L9.1998 1.84385C9.1998 1.37781 9.5776 1 10.0436 1Z" fill="#ffffff"/>
</svg>
