<svg width="20" height="20" viewBox="0 0 20 20" fill="none" xmlns="http://www.w3.org/2000/svg">
<path fill-rule="evenodd" clip-rule="evenodd" d="M14.6212 0C16.3064 0 17.6853 1.27714 17.7929 2.89172L17.7997 3.09523V8.17104C17.4976 8.02067 17.1828 7.89106 16.8573 7.78414L16.5283 7.68487V4.95236H1.27141V14.238C1.27141 15.2034 2.02775 15.9967 2.99485 16.0867L3.17852 16.0952H7.89166C7.98569 16.4189 8.1037 16.7328 8.24368 17.035L8.39092 17.3333H3.17852C1.49329 17.3333 0.114378 16.0561 0.00676095 14.4416L0 14.238V3.09523C0 1.45416 1.3115 0.11138 2.96953 0.00658378L3.17852 0H14.6212ZM4.91985 6.66667C5.27094 6.66667 5.55556 6.94383 5.55556 7.28571V13.8254C5.55556 14.1672 5.27094 14.4444 4.91985 14.4444H3.96904C3.61795 14.4444 3.33333 14.1672 3.33333 13.8254V7.28571C3.33333 6.94383 3.61795 6.66667 3.96904 6.66667H4.91985ZM14.4508 8.88889C14.8863 8.89371 15.3202 8.94203 15.7453 9.03307C15.9309 9.07281 16.0697 9.22137 16.0908 9.40283L16.1918 10.2728C16.2375 10.6723 16.5888 10.9748 17.0075 10.9753C17.1201 10.9754 17.2314 10.9529 17.3354 10.9087L18.1666 10.5582C18.3394 10.4852 18.5414 10.525 18.6705 10.6573C19.2711 11.2733 19.7185 12.0121 19.9788 12.818C20.035 12.9918 19.9703 13.1807 19.8178 13.2886L19.0811 13.81C18.8709 13.9583 18.7468 14.1937 18.7468 14.4441C18.7468 14.6945 18.8709 14.93 19.0815 15.0786L19.8189 15.6002C19.9715 15.7081 20.0362 15.897 19.98 16.0708C19.7197 16.8766 19.2727 17.6153 18.6724 18.2314C18.5434 18.3637 18.3416 18.4036 18.1688 18.3309L17.3342 17.9798C17.0955 17.8795 16.8213 17.8942 16.5956 18.0194C16.37 18.1446 16.2198 18.3654 16.1912 18.6141L16.0908 19.484C16.0701 19.6634 15.9343 19.811 15.7515 19.8527C14.8919 20.0491 13.9964 20.0491 13.1369 19.8527C12.954 19.811 12.8182 19.6634 12.7975 19.484L12.6973 18.6154C12.6679 18.3671 12.5175 18.147 12.2921 18.0222C12.0666 17.8974 11.7929 17.8828 11.5549 17.9826L10.7202 18.3337C10.5473 18.4065 10.3454 18.3666 10.2165 18.2342C9.61583 17.6174 9.16873 16.8778 8.90881 16.0711C8.85283 15.8974 8.91751 15.7086 9.07001 15.6008L9.80784 15.0788C10.018 14.9306 10.1421 14.6951 10.1421 14.4447C10.1421 14.1943 10.018 13.9589 9.80756 13.8104L9.0702 13.2894C8.91748 13.1815 8.85273 12.9925 8.90891 12.8186C9.16928 12.0126 9.61662 11.2739 10.2173 10.6579C10.3463 10.5256 10.5483 10.4858 10.7212 10.5587L11.5522 10.9092C11.7913 11.01 12.0662 10.9948 12.2929 10.8676C12.5185 10.7419 12.6688 10.5209 12.6978 10.2722L12.7987 9.40283C12.8198 9.22128 12.9587 9.07267 13.1444 9.03301C13.5701 8.94212 14.0044 8.89382 14.4508 8.88889ZM14.4509 9.74353C14.1814 9.74658 13.9128 9.76891 13.6471 9.81027L13.5824 10.3671C13.522 10.8853 13.2093 11.3453 12.7407 11.6063C12.2692 11.8708 11.6944 11.9026 11.1943 11.6918L10.6612 11.467C10.3218 11.8625 10.0517 12.3085 9.86145 12.7873L10.3349 13.1218C10.7733 13.4311 11.0322 13.9223 11.0322 14.4447C11.0322 14.9671 10.7733 15.4583 10.3353 15.7673L9.86117 16.1027C10.0513 16.5824 10.3214 17.0292 10.6611 17.4254L11.1982 17.1995C11.6955 16.991 12.2664 17.0215 12.7366 17.2817C13.2067 17.542 13.5204 18.001 13.5819 18.52L13.6466 19.0806C14.1745 19.1668 14.7138 19.1668 15.2418 19.0806L15.3064 18.5201C15.3662 18.0012 15.6795 17.5406 16.1502 17.2794C16.6209 17.0182 17.193 16.9875 17.6912 17.1969L18.2279 17.4226C18.5673 17.027 18.8373 16.5809 19.0276 16.102L18.554 15.767C18.1156 15.4577 17.8567 14.9665 17.8567 14.4441C17.8567 13.9218 18.1156 13.4306 18.5535 13.1216L19.0264 12.787C18.8361 12.308 18.5659 11.862 18.2265 11.4664L17.6945 11.6908C17.4777 11.7829 17.2432 11.8303 17.0063 11.83C16.1342 11.8291 15.4022 11.1986 15.3071 10.3669L15.2424 9.81009C14.978 9.76877 14.7122 9.74651 14.4509 9.74353ZM14.4434 12.3077C15.6724 12.3077 16.6687 13.2643 16.6687 14.4444C16.6687 15.6245 15.6724 16.5812 14.4434 16.5812C13.2144 16.5812 12.218 15.6245 12.218 14.4444C12.218 13.2643 13.2144 12.3077 14.4434 12.3077ZM14.4434 13.1624C13.706 13.1624 13.1082 13.7364 13.1082 14.4444C13.1082 15.1525 13.706 15.7265 14.4434 15.7265C15.1808 15.7265 15.7786 15.1525 15.7786 14.4444C15.7786 13.7364 15.1808 13.1624 14.4434 13.1624ZM8.8889 10.4754C8.8889 10.8265 8.61174 11.1111 8.26986 11.1111H7.28573C6.94389 11.1111 6.66668 10.8265 6.66668 10.4754L6.66668 7.30236C6.66668 6.95128 6.94389 6.66666 7.28573 6.66666H8.26986C8.61174 6.66666 8.8889 6.95128 8.8889 7.30236V10.4754Z" fill="white"/>
</svg>
