<svg width="12" height="15" viewBox="0 0 12 15" fill="none" xmlns="http://www.w3.org/2000/svg">
<path d="M5.80275 0.00638123L6 0C7.59058 0 8.89205 1.23784 8.99362 2.80275L9 3V4.2H10.2C11.1941 4.2 12 5.00589 12 6V13.2C12 14.1941 11.1941 15 10.2 15H1.8C0.805887 15 0 14.1941 0 13.2V6C0 5.00589 0.805887 4.2 1.8 4.2H3V3C3 1.40942 4.23784 0.107954 5.80275 0.00638123ZM10.2 5.4H1.8C1.46863 5.4 1.2 5.66863 1.2 6V13.2C1.2 13.5314 1.46863 13.8 1.8 13.8H10.2C10.5314 13.8 10.8 13.5314 10.8 13.2V6C10.8 5.66863 10.5314 5.4 10.2 5.4ZM6 8.4C6.66274 8.4 7.2 8.93726 7.2 9.6C7.2 10.2627 6.66274 10.8 6 10.8C5.33726 10.8 4.8 10.2627 4.8 9.6C4.8 8.93726 5.33726 8.4 6 8.4ZM6.17335 1.20824L6 1.2C5.06436 1.2 4.29546 1.91387 4.20824 2.82665L4.2 3V4.2H7.8V3C7.8 2.06436 7.08613 1.29546 6.17335 1.20824Z" fill="#6D858F"/>
</svg>