<svg width="20" height="20" viewBox="0 0 20 20" fill="none" xmlns="http://www.w3.org/2000/svg">
<path d="M8.58871 15.9687C8.58871 15.6155 8.85951 15.3291 9.19355 15.3291H10.8065C11.1405 15.3291 11.4113 15.6155 11.4113 15.9687C11.4113 16.3219 11.1405 16.6082 10.8065 16.6082H9.19355C8.85951 16.6082 8.58871 16.3219 8.58871 15.9687Z" fill="#F5F9FC"/>
<path fill-rule="evenodd" clip-rule="evenodd" d="M9.95504 0.833008H10.045C11.3374 0.832993 12.3688 0.832981 13.1777 0.947979C14.0134 1.06678 14.7017 1.31876 15.2461 1.89446C15.7906 2.47016 16.0289 3.19788 16.1413 4.08152C16.25 4.93686 16.25 6.02745 16.25 7.394V12.6053C16.25 13.9719 16.25 15.0625 16.1413 15.9178C16.0289 16.8015 15.7906 17.5292 15.2461 18.1049C14.7017 18.6806 14.0134 18.9326 13.1777 19.0514C12.3688 19.1664 11.3374 19.1664 10.045 19.1663H9.95505C8.66263 19.1664 7.63121 19.1664 6.82227 19.0514C5.98657 18.9326 5.29834 18.6806 4.75387 18.1049C4.2094 17.5292 3.97109 16.8015 3.85873 15.9178C3.74997 15.0625 3.74999 13.9719 3.75 12.6054V7.394C3.74999 6.02745 3.74997 4.93686 3.85873 4.08152C3.97109 3.19788 4.2094 2.47016 4.75387 1.89446C5.29834 1.31876 5.98657 1.06678 6.82227 0.947979C7.63121 0.832981 8.66263 0.832993 9.95504 0.833008ZM6.98346 2.21564C6.2819 2.31538 5.89149 2.50046 5.60924 2.7989C5.32699 3.09734 5.15195 3.51015 5.05762 4.25195C4.96096 5.01215 4.95968 6.01655 4.95968 7.44154V12.5578C4.95968 13.9828 4.96096 14.9872 5.05762 15.7474C5.15195 16.4892 5.32699 16.902 5.60924 17.2004C5.89149 17.4989 6.2819 17.684 6.98346 17.7837C7.70241 17.8859 8.65232 17.8873 10 17.8873C11.3477 17.8873 12.2976 17.8859 13.0165 17.7837C13.7181 17.684 14.1085 17.4989 14.3908 17.2004C14.673 16.902 14.8481 16.4892 14.9424 15.7474C15.039 14.9872 15.0403 13.9828 15.0403 12.5578V7.44154C15.0403 6.01655 15.039 5.01215 14.9424 4.25195C14.8481 3.51015 14.673 3.09734 14.3908 2.7989C14.1085 2.50046 13.7181 2.31538 13.0165 2.21564C12.984 2.21102 12.951 2.2066 12.9175 2.20237C12.853 2.60924 12.7935 2.96541 12.7129 3.25571C12.6169 3.60176 12.4729 3.9267 12.1956 4.18678C11.9089 4.45579 11.5786 4.5688 11.2248 4.6205C10.8913 4.66924 10.4797 4.67022 10 4.67022C9.52032 4.67022 9.10871 4.66924 8.77517 4.6205C8.4214 4.5688 8.09114 4.45579 7.80439 4.18678C7.52715 3.9267 7.38311 3.60176 7.28706 3.25571C7.20648 2.96541 7.14697 2.60924 7.08253 2.20237C7.04902 2.2066 7.016 2.21102 6.98346 2.21564ZM8.29699 2.12448C8.35222 2.46664 8.39569 2.70786 8.44778 2.89552C8.50952 3.11794 8.56439 3.18984 8.60721 3.23C8.65432 3.27419 8.72766 3.32233 8.94079 3.35348C9.17414 3.38758 9.4927 3.39115 10 3.39115C10.5073 3.39115 10.8259 3.38758 11.0592 3.35348C11.2723 3.32233 11.3457 3.27419 11.3928 3.23C11.4356 3.18984 11.4905 3.11794 11.5522 2.89552C11.6043 2.70786 11.6478 2.46664 11.703 2.12448C11.2166 2.1124 10.6553 2.11208 10 2.11208C9.34467 2.11208 8.78339 2.1124 8.29699 2.12448Z" fill="#F5F9FC"/>
</svg>
