<svg width="44" height="44" viewBox="0 0 44 44" fill="none" xmlns="http://www.w3.org/2000/svg">
<rect width="44" height="44" rx="22" fill="#F93131"/>
<path fill-rule="evenodd" clip-rule="evenodd" d="M25.1838 17.875H30.3131C30.6926 17.875 31 18.1693 31 18.5309V30.9375C31 32.0636 30.0446 33 28.8652 33H15.16C13.9814 33 13 32.0636 13 30.9375V13.0384C13 11.9123 13.9814 11 15.16 11H23.1131C23.4926 11 23.8 11.2936 23.8 11.6559V16.5536C23.8 17.2838 24.4192 17.875 25.1838 17.875ZM18.04 28.1875H25.96C26.3574 28.1875 26.68 27.8802 26.68 27.5C26.68 27.1198 26.3574 26.8125 25.96 26.8125H18.04C17.6426 26.8125 17.32 27.1198 17.32 27.5C17.32 27.8802 17.6426 28.1875 18.04 28.1875ZM18.04 25.4375H25.96C26.3574 25.4375 26.68 25.1302 26.68 24.75C26.68 24.3698 26.3574 24.0625 25.96 24.0625H18.04C17.6426 24.0625 17.32 24.3698 17.32 24.75C17.32 25.1302 17.6426 25.4375 18.04 25.4375ZM18.04 22.6875H25.96C26.3574 22.6875 26.68 22.3795 26.68 22C26.68 21.6205 26.3574 21.3125 25.96 21.3125H18.04C17.6426 21.3125 17.32 21.6205 17.32 22C17.32 22.3795 17.6426 22.6875 18.04 22.6875ZM29.3404 16.5H25.9269C25.5475 16.5 25.24 16.2058 25.24 15.8441V12.5847C25.24 12.3186 25.4071 12.0787 25.6648 11.9783C25.9204 11.8766 26.2171 11.9329 26.4129 12.1199L29.8264 15.3794C30.023 15.5671 30.082 15.8503 29.9755 16.0944C29.8696 16.3405 29.6191 16.5 29.3404 16.5Z" fill="white"/>
</svg>
