<svg width="44" height="44" viewBox="0 0 44 44" fill="none" xmlns="http://www.w3.org/2000/svg">
<rect width="44" height="44" rx="22" fill="#F93131"/>
<path fill-rule="evenodd" clip-rule="evenodd" d="M28.4166 18.3334H30.25C31.7683 18.3334 33 19.5652 33 21.0834H32.9992C32.9992 22.6017 31.7683 23.8315 30.25 23.8334V25.6666H28.4166V23.8334C26.8983 23.8334 25.6666 22.6017 25.6666 21.0834H27.5C27.5 21.59 27.91 22 28.4166 22H30.2481C30.7549 22 31.1649 21.59 31.1649 21.0834H31.1666C31.1666 20.5766 30.7568 20.1666 30.25 20.1666H28.4166C26.8983 20.1666 25.6666 18.9349 25.6666 17.4166C25.6666 15.8978 26.8983 14.6666 28.4166 14.6666V12.8334H30.25V14.6666C31.7683 14.6666 33 15.8983 33 17.4166H31.1666C31.1666 16.91 30.7568 16.5 30.25 16.5H28.4166C27.91 16.5 27.5 16.91 27.5 17.4166C27.5 17.9234 27.91 18.3334 28.4166 18.3334ZM11 29.3334V11H23.8334V25.6666H18.3334V29.3334C18.3334 31.3582 16.6914 33 14.6666 33C12.6418 33 11 31.3582 11 29.3334ZM18.3334 12.8334H12.8334V14.6666H18.3334V12.8334ZM12.8334 25.6666H16.5V23.8334H12.8334V25.6666ZM12.8334 22H20.1666V20.1666H12.8334V22ZM12.8334 18.3334H22V16.5H12.8334V18.3334ZM20.1666 29.3334V27.5H30.25V29.3334C30.25 31.3582 28.6082 33 26.5834 33H18.7539C19.6295 32.0259 20.1666 30.7423 20.1666 29.3334Z" fill="white"/>
</svg>

