<svg width="36" height="44" viewBox="0 0 36 44" fill="none" xmlns="http://www.w3.org/2000/svg">
<path fill-rule="evenodd" clip-rule="evenodd" d="M2.84567 5.48226C2.84567 2.67535 5.13911 0.399902 7.96822 0.399902H22.1327C23.1516 0.399902 24.1287 0.80151 24.8492 1.51634L34.8748 11.463C35.5953 12.1779 35.9999 13.1474 35.9999 14.1584V35.9764C35.9999 38.7834 33.7066 41.0587 30.8774 41.0587H28.3161V38.5176H30.8774C32.292 38.5176 33.4387 37.3799 33.4387 35.9764V15.647H24.4742C22.3524 15.647 20.6323 13.9404 20.6323 11.8352V2.94108H7.96822C6.55368 2.94108 5.40694 4.07882 5.40694 5.48226V15.647C4.4739 15.647 3.59912 15.8945 2.84567 16.3269V5.48226ZM24.4742 13.1058H32.9082L23.1936 3.46738V11.8352C23.1936 12.5369 23.767 13.1058 24.4742 13.1058ZM1.81012 25.9839L5.43036 27.793V34.4704C5.43036 34.97 5.83557 35.375 6.33543 35.375C6.83528 35.375 7.24049 34.97 7.24049 34.4704V28.6976L11.7658 30.959V41.5493L2.76206 36.7038C2.17575 36.3883 1.81012 35.7765 1.81012 35.111V25.9839ZM12.6975 23.2698L6.75996 26.4348L2.47069 24.2913C2.56028 24.2177 2.65767 24.1522 2.76206 24.096L11.8127 19.2253C12.3484 18.9369 12.9933 18.9369 13.529 19.2253L22.5796 24.096C22.684 24.1522 22.7814 24.2177 22.871 24.2913L12.6709 29.3886L8.74525 27.4269L13.5493 24.8661C13.9903 24.631 14.1572 24.0831 13.922 23.6423C13.6867 23.2015 13.1385 23.0347 12.6975 23.2698ZM22.5796 36.7038L13.5759 41.5493V30.959L23.5316 25.9839V35.111C23.5316 35.7765 23.166 36.3883 22.5796 36.7038ZM10.9545 17.6324L1.90389 22.5031C0.731254 23.1342 0 24.3578 0 25.6888V35.111C0 36.442 0.731254 37.6656 1.90389 38.2967L10.9545 43.1674C12.026 43.7441 13.3157 43.7441 14.3872 43.1674L23.4378 38.2967C24.6104 37.6656 25.3417 36.442 25.3417 35.111V25.6888C25.3417 24.3578 24.6104 23.1342 23.4378 22.5031L14.3872 17.6324C13.3157 17.0557 12.026 17.0557 10.9545 17.6324ZM15.4881 37.6919C15.7187 38.1351 16.2652 38.3076 16.7086 38.0771L21.2339 35.7252C21.6774 35.4948 21.85 34.9486 21.6194 34.5054C21.3888 34.0621 20.8423 33.8897 20.3988 34.1202L15.8735 36.472C15.4301 36.7025 15.2575 37.2486 15.4881 37.6919Z" fill="#0171A1"/>
</svg>
