<svg width="16" height="18" viewBox="0 0 16 18" fill="none" xmlns="http://www.w3.org/2000/svg">
<path fill-rule="evenodd" clip-rule="evenodd" d="M1.6857 2.11765C1.6857 0.948103 2.6413 0 3.82009 0H9.72195C10.1465 0 10.5536 0.167337 10.8538 0.465184L15.0312 4.60964C15.3314 4.9075 15.5 5.31147 15.5 5.7327V14.8235C15.5 15.9931 14.5444 16.9412 13.3656 16.9412H12.2984V15.8824H13.3656C13.955 15.8824 14.4328 15.4083 14.4328 14.8235V6.35294H10.6976C9.81352 6.35294 9.09679 5.64187 9.09679 4.76471V1.05882H3.82009C3.2307 1.05882 2.75289 1.53288 2.75289 2.11765V6.35294C2.36412 6.35294 1.99963 6.45606 1.6857 6.63624V2.11765ZM10.6976 5.29412H14.2118L10.164 1.27812V4.76471C10.164 5.05709 10.4029 5.29412 10.6976 5.29412ZM1.25422 10.66L2.76265 11.4138V14.196C2.76265 14.4042 2.93149 14.5729 3.13976 14.5729C3.34803 14.5729 3.51687 14.4042 3.51687 14.196V11.7907L5.40241 12.7329V17.1456L1.65086 15.1266C1.40656 14.9952 1.25422 14.7402 1.25422 14.4629V10.66ZM5.79061 9.52914L3.31665 10.8479L1.52946 9.95476C1.56678 9.92409 1.60736 9.89677 1.65086 9.87336L5.42195 7.8439C5.64518 7.72377 5.91386 7.72377 6.13709 7.8439L9.90818 9.87336C9.95168 9.89677 9.99226 9.92409 10.0296 9.95476L5.77952 12.0786L4.14386 11.2612L6.14554 10.1943C6.32931 10.0963 6.39883 9.868 6.30082 9.68434C6.20281 9.50067 5.97438 9.43119 5.79061 9.52914ZM9.90818 15.1266L6.15663 17.1456V12.7329L10.3048 10.66V14.4629C10.3048 14.7402 10.1525 14.9952 9.90818 15.1266ZM5.06437 7.1802L1.29329 9.20966C0.804689 9.47261 0.5 9.98244 0.5 10.5371V14.4629C0.5 15.0176 0.804689 15.5274 1.29329 15.7903L5.06437 17.8198C5.51083 18.0601 6.04821 18.0601 6.49467 17.8198L10.2658 15.7903C10.7544 15.5274 11.059 15.0176 11.059 14.4629V10.5371C11.059 9.98244 10.7544 9.47261 10.2658 9.20966L6.49467 7.1802C6.04821 6.93993 5.51083 6.93993 5.06437 7.1802ZM6.95338 15.5383C7.04947 15.723 7.27715 15.7949 7.46194 15.6988L9.34748 14.7189C9.53226 14.6229 9.60416 14.3953 9.50808 14.2106C9.41199 14.0259 9.1843 13.9541 8.99952 14.0501L7.11398 15.03C6.92919 15.1261 6.85729 15.3536 6.95338 15.5383Z" fill="white"/>
</svg>
