<svg width="24" height="24" viewBox="0 0 24 24" fill="none" xmlns="http://www.w3.org/2000/svg">
<g clip-path="url(#clip0_5165_67416)">
<path fill-rule="evenodd" clip-rule="evenodd" d="M12.4215 1.2508L0 7.46153L11.0769 8.38461L24 1.92307L13.482 1.04657C13.1164 1.0161 12.7495 1.08676 12.4215 1.2508ZM11.077 9.30768L24 2.84614V14.5331C24 15.2907 23.572 15.9832 22.8945 16.322L11.077 22.2308V9.30768ZM12.923 10.2308L13.8461 9.76924V19L12.923 19.4615V10.2308ZM16.6154 8.38461L15.6924 8.84615V18.0769L16.6154 17.6154V8.38461ZM18.4615 7.46153L19.3846 7V16.2308L18.4615 16.6923V7.46153ZM22.1539 5.61538L21.2309 6.07692V15.3077L22.1539 14.8462V5.61538ZM10.1538 9.30768L0 8.3846V19.4813C0 20.5157 0.788772 21.3794 1.81893 21.473L10.1538 22.2308V9.30768ZM5.53848 11.1538H4.6154V19.4615H5.53848V11.1538Z" fill="#819FB2"/>
<path opacity="0.7" fill-rule="evenodd" clip-rule="evenodd" d="M12.4215 1.25082L6.46155 4.23078L17.5385 5.15385L24 1.92308L13.482 1.04658C13.1164 1.01612 12.7496 1.08678 12.4215 1.25082ZM24 2.84616L17.5385 6.07693V19L22.8945 16.322C23.572 15.9832 24 15.2907 24 14.5332V2.84616ZM19.3846 7.00001L18.4616 7.46155V16.6923L19.3846 16.2308V7.00001ZM21.2309 6.07694L22.1539 5.6154V14.8462L21.2309 15.3077V6.07694Z" fill="white"/>
</g>
<defs>
<clipPath id="clip0_5165_67416">
<rect width="24" height="24" fill="white"/>
</clipPath>
</defs>
</svg>
