<svg width="20" height="20" viewBox="0 0 20 20" fill="none" xmlns="http://www.w3.org/2000/svg">
<path d="M9.375 2.2V5.8C9.375 6.79411 8.53553 7.6 7.5 7.6H3.75V16.6C3.75 17.2627 4.30964 17.8 5 17.8H15C15.6904 17.8 16.25 17.2627 16.25 16.6V3.4C16.25 2.73726 15.6904 2.2 15 2.2H9.375V2.2ZM4.63375 6.4H7.5C7.84518 6.4 8.125 6.13137 8.125 5.8V3.0484L4.63375 6.4ZM8.49125 1H15C16.3807 1 17.5 2.07452 17.5 3.4V16.6C17.5 17.9255 16.3807 19 15 19H5H5C3.61929 19 2.5 17.9255 2.5 16.6V6.7516L8.49125 1H8.49125ZM7.5 11.2C7.15482 11.2 6.875 10.9314 6.875 10.6C6.875 10.2686 7.15482 10 7.5 10H12.5C12.8452 10 13.125 10.2686 13.125 10.6C13.125 10.9314 12.8452 11.2 12.5 11.2H7.5ZM7.5 13C7.15482 13 6.875 12.7314 6.875 12.4C6.875 12.0686 7.15482 11.8 7.5 11.8H12.5C12.8452 11.8 13.125 12.0686 13.125 12.4C13.125 12.7314 12.8452 13 12.5 13H7.5Z" fill="white"/>
</svg>
