<svg width="16" height="16" viewBox="0 0 16 16" fill="none" xmlns="http://www.w3.org/2000/svg">
<path d="M5.29882 3.63523C5.5221 3.91017 5.46577 4.30304 5.173 4.51273C4.0217 5.33733 3.33333 6.61448 3.33333 7.99999C3.33333 10.1896 5.04317 12.0042 7.27733 12.3304L6.80474 11.8862C6.54439 11.6417 6.54439 11.2453 6.80474 11.0008C7.06509 10.7563 7.4872 10.7563 7.74755 11.0008L9.41421 12.566C9.67456 12.8105 9.67456 13.2069 9.41421 13.4514L7.74755 15.0166C7.4872 15.2611 7.06509 15.2611 6.80474 15.0166C6.54439 14.7721 6.54439 14.3757 6.80474 14.1312L7.36685 13.6038C4.35077 13.3067 2 10.9112 2 7.99999C2 6.21967 2.88588 4.57606 4.36444 3.51707C4.65721 3.30738 5.07554 3.36028 5.29882 3.63523ZM6.58579 2.54858L8.25245 0.983364C8.5128 0.738862 8.93491 0.738862 9.19526 0.983364C9.43559 1.20906 9.45407 1.56419 9.25072 1.8098L9.19526 1.86879L8.63315 2.3962C11.6492 2.69327 14 5.08881 14 7.99999C14 9.70284 13.1899 11.2827 11.8189 12.3462C11.5351 12.5664 11.1149 12.5288 10.8804 12.2622C10.6459 11.9956 10.6859 11.601 10.9698 11.3808C12.0373 10.5527 12.6667 9.3253 12.6667 7.99999C12.6667 5.81037 10.9568 3.9958 8.72267 3.66961L9.19526 4.1138C9.45561 4.3583 9.45561 4.75472 9.19526 4.99922C8.95494 5.22491 8.57679 5.24228 8.31526 5.0513L8.25245 4.99922L6.58579 3.434C6.34546 3.20831 6.32698 2.85317 6.53033 2.60756L6.58579 2.54858L8.25245 0.983364L6.58579 2.54858Z" fill="white"/>
</svg>
