<svg width="72" height="36" viewBox="0 0 72 36" fill="none" xmlns="http://www.w3.org/2000/svg">
<path d="M36.0265 15.2301L32.5327 15.5813L28.7683 9.54844C28.6598 9.38176 28.5133 9.24471 28.3414 9.14914C28.1696 9.05358 27.9776 9.00238 27.7821 9H26.5794C26.3928 9.00521 26.21 9.05484 26.0454 9.14497C25.8808 9.2351 25.7389 9.36326 25.6309 9.5193C25.523 9.67533 25.452 9.85497 25.4235 10.044C25.3951 10.233 25.4099 10.4262 25.4669 10.6084L27.3852 16.1051L23.9696 16.4502C21.8107 14.2256 20.8185 15.039 21.029 15.7723C21.8468 18.57 21.8468 17.4362 21.029 20.2338C20.8125 20.9795 21.8107 21.7744 23.9635 19.5683L27.3792 19.9134L25.4669 25.3978C25.4112 25.5791 25.3971 25.7711 25.4258 25.9589C25.4544 26.1466 25.5251 26.3251 25.6323 26.4802C25.7394 26.6353 25.8801 26.763 26.0434 26.8532C26.2066 26.9433 26.388 26.9936 26.5734 27H27.7761C27.9716 26.9976 28.1636 26.9464 28.3354 26.8509C28.5073 26.7553 28.6538 26.6182 28.7623 26.4516L32.5327 20.468L36.0265 20.7761C36.4033 20.8125 36.7834 20.768 37.1424 20.6452C37.5014 20.5224 37.8314 20.3241 38.1114 20.0631C38.3913 19.802 38.6149 19.484 38.7679 19.1292C38.921 18.7745 39 18.3909 39 18.0031C39 17.6152 38.921 17.2317 38.7679 16.8769C38.6149 16.5222 38.3913 16.2041 38.1114 15.9431C37.8314 15.682 37.5014 15.4838 37.1424 15.361C36.7834 15.2382 36.4033 15.1936 36.0265 15.2301Z" fill="#819FB2"/>
</svg>
