<svg width="40" height="37" viewBox="0 0 40 37" fill="none" xmlns="http://www.w3.org/2000/svg">
<path fill-rule="evenodd" clip-rule="evenodd" d="M0 11.4356L21.0368 0.917201C21.3649 0.753157 21.7318 0.682502 22.0974 0.712964L40 2.20485L18.4615 12.9741L0 11.4356ZM40.0001 3.7433L18.4616 14.5125V36.051L38.8945 25.8345C39.5721 25.4958 40.0001 24.8032 40.0001 24.0457V3.7433ZM16.9231 14.5125L0 12.9741V32.6861C0 33.7205 0.78877 34.5842 1.81893 34.6779L16.9231 36.051V14.5125ZM36.9233 8.35871L35.3848 9.12794V24.5126L36.9233 23.7433V8.35871ZM30.7692 11.4356L32.3077 10.6664V26.051L30.7692 26.8202V11.4356ZM27.6924 12.9741L26.154 13.7433V29.1279L27.6924 28.3587V12.9741ZM23.0769 15.2818L21.5384 16.051V31.4356L23.0769 30.6664V15.2818ZM7.69236 17.5895H9.23082V31.4356H7.69236V17.5895Z" fill="#0171A1"/>
</svg>
