<svg width="16" height="14" viewBox="0 0 16 14" fill="none" xmlns="http://www.w3.org/2000/svg">
<path d="M8.48 11.2817C8.7451 11.2817 8.96 11.5072 8.96 11.7854C8.96 12.0636 8.7451 12.2891 8.48 12.2891H7.19669C6.45191 12.2891 5.83003 11.6931 5.7626 10.9148L5.4263 7.03287C5.39927 6.72078 5.23537 6.43966 4.98288 6.27232L1.69473 4.09304C1.13774 3.72389 0.799999 3.08085 0.799999 2.38954V1.96316C0.799999 0.989501 1.55216 0.200195 2.48 0.200195H13.52C14.4478 0.200195 15.2 0.989501 15.2 1.96316V2.49614C15.2 3.10821 14.9349 3.68709 14.4794 4.06945L11.4199 6.63797C11.2128 6.81175 10.9108 6.77653 10.7452 6.5593C10.5796 6.34207 10.6131 6.0251 10.8201 5.85131L13.8797 3.28279C14.1074 3.09162 14.24 2.80217 14.24 2.49614V1.96316C14.24 1.54588 13.9176 1.2076 13.52 1.2076H2.48C2.08235 1.2076 1.76 1.54588 1.76 1.96316V2.38954C1.76 2.73519 1.92887 3.05672 2.20737 3.24129L5.49551 5.42057C6.00049 5.75525 6.32829 6.31748 6.38236 6.94166L6.71866 10.8236C6.74113 11.083 6.94843 11.2817 7.19669 11.2817H8.48ZM14.72 8.76316C14.9851 8.76316 15.2 8.98867 15.2 9.26686C15.2 9.54505 14.9851 9.77057 14.72 9.77057H10.4C10.1349 9.77057 9.92 9.54505 9.92 9.26686C9.92 8.98867 10.1349 8.76316 10.4 8.76316H14.72ZM14.72 10.778C14.9851 10.778 15.2 11.0035 15.2 11.2817C15.2 11.5599 14.9851 11.7854 14.72 11.7854H10.4C10.1349 11.7854 9.92 11.5599 9.92 11.2817C9.92 11.0035 10.1349 10.778 10.4 10.778H14.72ZM14.72 12.7928C14.9851 12.7928 15.2 13.0183 15.2 13.2965C15.2 13.5747 14.9851 13.8002 14.72 13.8002H10.4C10.1349 13.8002 9.92 13.5747 9.92 13.2965C9.92 13.0183 10.1349 12.7928 10.4 12.7928H14.72Z" fill="#4A4A4A"/>
</svg>
