<svg width="14" height="4" viewBox="0 0 14 4" fill="none" xmlns="http://www.w3.org/2000/svg">
<path d="M7 0.5C7.82361 0.5 8.49127 1.17157 8.49127 2C8.49127 2.82843 7.82361 3.5 7 3.5C6.17639 3.5 5.50873 2.82843 5.50873 2C5.50873 1.17157 6.17639 0.5 7 0.5ZM12.5087 0.5C13.3323 0.5 14 1.17157 14 2C14 2.82843 13.3323 3.5 12.5087 3.5C11.6851 3.5 11.0175 2.82843 11.0175 2C11.0175 1.17157 11.6851 0.5 12.5087 0.5ZM1.49127 0.5C2.31488 0.5 2.98254 1.17157 2.98254 2C2.98254 2.82843 2.31488 3.5 1.49127 3.5C0.667664 3.5 0 2.82843 0 2C0 1.17157 0.667664 0.5 1.49127 0.5Z" fill="#4A4A4A"/>
</svg>
