<svg width="16" height="14" viewBox="0 0 16 14" fill="none" xmlns="http://www.w3.org/2000/svg">
<path d="M8.48005 11.2817C8.74515 11.2817 8.96005 11.5072 8.96005 11.7854C8.96005 12.0636 8.74515 12.2891 8.48005 12.2891H7.19673C6.45196 12.2891 5.83008 11.6931 5.76265 10.9148L5.42635 7.03287C5.39932 6.72078 5.23542 6.43966 4.98293 6.27232L1.69478 4.09304C1.13779 3.72389 0.800049 3.08085 0.800049 2.38954V1.96316C0.800049 0.989501 1.55221 0.200195 2.48005 0.200195H13.52C14.4479 0.200195 15.2 0.989501 15.2 1.96316V2.49614C15.2 3.10821 14.9349 3.68709 14.4795 4.06945L11.4199 6.63797C11.2129 6.81175 10.9108 6.77653 10.7452 6.5593C10.5796 6.34207 10.6132 6.0251 10.8202 5.85131L13.8798 3.28279C14.1075 3.09162 14.24 2.80217 14.24 2.49614V1.96316C14.24 1.54588 13.9177 1.2076 13.52 1.2076H2.48005C2.0824 1.2076 1.76005 1.54588 1.76005 1.96316V2.38954C1.76005 2.73519 1.92892 3.05672 2.20742 3.24129L5.49556 5.42057C6.00054 5.75525 6.32834 6.31748 6.38241 6.94166L6.71871 10.8236C6.74118 11.083 6.94848 11.2817 7.19673 11.2817H8.48005ZM14.72 8.76316C14.9851 8.76316 15.2 8.98867 15.2 9.26686C15.2 9.54505 14.9851 9.77057 14.72 9.77057H10.4C10.135 9.77057 9.92005 9.54505 9.92005 9.26686C9.92005 8.98867 10.135 8.76316 10.4 8.76316H14.72ZM14.72 10.778C14.9851 10.778 15.2 11.0035 15.2 11.2817C15.2 11.5599 14.9851 11.7854 14.72 11.7854H10.4C10.135 11.7854 9.92005 11.5599 9.92005 11.2817C9.92005 11.0035 10.135 10.778 10.4 10.778H14.72ZM14.72 12.7928C14.9851 12.7928 15.2 13.0183 15.2 13.2965C15.2 13.5747 14.9851 13.8002 14.72 13.8002H10.4C10.135 13.8002 9.92005 13.5747 9.92005 13.2965C9.92005 13.0183 10.135 12.7928 10.4 12.7928H14.72Z" fill="#4A4A4A"/>
</svg>
