<svg width="72" height="36" viewBox="0 0 72 36" fill="none" xmlns="http://www.w3.org/2000/svg">
<path fill-rule="evenodd" clip-rule="evenodd" d="M28.8065 11.75H23.2632C22.987 11.75 22.7632 11.9739 22.7632 12.25V13.4559C22.7632 13.732 22.987 13.9559 23.2632 13.9559H28.8065C29.0827 13.9559 29.3065 13.732 29.3065 13.4559V12.25C29.3065 11.9739 29.0827 11.75 28.8065 11.75ZM30.7214 15.9265C30.7214 15.6503 30.4976 15.4265 30.2214 15.4265H21.809C21.5329 15.4265 21.309 15.6503 21.309 15.9265V17.1323C21.309 17.4085 21.5329 17.6323 21.809 17.6323H30.2214C30.4976 17.6323 30.7214 17.4085 30.7214 17.1323V15.9265ZM34.6855 16.3655L32.5771 19.0675H20.5003C20.1731 19.0675 19.9341 19.3764 20.0163 19.6931L21.1018 23.8756C21.159 24.0961 21.358 24.25 21.5857 24.25H37.024C37.2349 24.25 37.4231 24.1177 37.4945 23.9192L39.9703 17.0347C40.0874 16.7089 39.846 16.3655 39.4998 16.3655H34.6855ZM24.2173 21.3089C24.2173 21.715 23.8917 22.0442 23.4902 22.0442C23.0887 22.0442 22.7632 21.715 22.7632 21.3089C22.7632 20.9028 23.0887 20.5736 23.4902 20.5736C23.8917 20.5736 24.2173 20.9028 24.2173 21.3089ZM27.8526 22.0442C28.2542 22.0442 28.5797 21.715 28.5797 21.3089C28.5797 20.9028 28.2542 20.5736 27.8526 20.5736C27.4511 20.5736 27.1256 20.9028 27.1256 21.3089C27.1256 21.715 27.4511 22.0442 27.8526 22.0442ZM32.9417 21.3089C32.9417 21.715 32.6162 22.0442 32.2147 22.0442C31.8132 22.0442 31.4877 21.715 31.4877 21.3089C31.4877 20.9028 31.8132 20.5736 32.2147 20.5736C32.6162 20.5736 32.9417 20.9028 32.9417 21.3089Z" fill="#819FB2"/>
</svg>
