<svg width="34" height="34" viewBox="0 0 34 34" fill="none" xmlns="http://www.w3.org/2000/svg">
<path fill-rule="evenodd" clip-rule="evenodd" d="M31.3342 23.3215C32.6227 23.3215 33.6673 24.3507 33.6673 25.6204V31.3675C33.6673 32.6371 32.6227 33.6663 31.3342 33.6663H22.0017C21.1381 33.6663 20.3841 33.204 19.9807 32.5169H5.00078C4.79454 32.5169 4.58851 32.5034 4.38407 32.4766C1.82958 32.141 0.034857 29.8285 0.375457 27.3116L0.804288 24.1426C0.993922 22.7412 2.03248 21.5959 3.42448 21.253L8.88651 19.9076C9.51155 19.7536 10.1449 20.128 10.3012 20.7439C10.4574 21.3597 10.0774 21.9838 9.45238 22.1378L3.99035 23.4832C3.52635 23.5975 3.18016 23.9793 3.11695 24.4464L2.68812 27.6154C2.51782 28.8739 3.41518 30.0301 4.69243 30.1979C4.79465 30.2113 4.89766 30.2181 5.00078 30.2181H19.6685V25.6204C19.6685 24.3507 20.7131 23.3215 22.0017 23.3215C22.0017 20.7823 24.0908 18.7238 26.6679 18.7238C29.245 18.7238 31.3342 20.7823 31.3342 23.3215ZM29.0011 23.3215C29.0011 22.0519 27.9565 21.0227 26.6679 21.0227C25.3794 21.0227 24.3348 22.0519 24.3348 23.3215H29.0011ZM20.6467 5.41262L19.9649 5.07672C19.7845 4.98785 19.5702 4.99714 19.3984 5.10128C18.3219 5.75385 17.2454 6.08013 16.1688 6.08013C15.0923 6.08013 14.0158 5.75385 12.9392 5.10128C12.7674 4.99712 12.5532 4.98784 12.3727 5.07673L11.6918 5.4122C11.2893 6.24003 11.1185 7.18879 11.2508 8.16658L12.0422 14.0145C12.318 16.0524 14.0823 17.5744 16.1688 17.5744C18.2554 17.5744 20.0197 16.0524 20.2955 14.0145L21.0868 8.16658C21.1158 7.95239 21.1304 7.73656 21.1304 7.52048C21.1304 6.76569 20.9568 6.05085 20.6467 5.41262ZM16.1688 0.333008C20.1976 0.333008 23.4635 3.55095 23.4635 7.52048C23.4635 7.83816 23.4421 8.1555 23.3995 8.4704L22.6081 14.3184C22.1778 17.4983 19.4248 19.8732 16.1688 19.8732C12.9129 19.8732 10.1599 17.4983 9.72954 14.3184L8.93818 8.4704C8.40573 4.53569 11.2114 0.920685 15.2048 0.396057C15.5243 0.35407 15.8464 0.333008 16.1688 0.333008ZM22.0017 25.6204V31.3675H31.3342V25.6204H22.0017Z" fill="#0171A1"/>
</svg>
