<svg width="14" height="16" viewBox="0 0 14 16" fill="none" xmlns="http://www.w3.org/2000/svg">
<path d="M6.9967 0.799805C9.88303 0.799805 12.2397 3.15836 12.3389 6.1515L12.3419 6.33677V9.36141L13.3254 11.6914C13.3746 11.808 13.4 11.9338 13.4 12.0611C13.4 12.5708 13.0011 12.9839 12.5091 12.9839L9.13477 12.9835C9.13477 14.2082 8.17752 15.1998 6.9967 15.1998C5.85805 15.1998 4.9273 14.2778 4.86227 13.1152L4.85831 12.9833L1.49109 12.9839C1.36897 12.9839 1.24817 12.9579 1.13617 12.9075C0.684889 12.7045 0.477961 12.1609 0.673978 11.6934L1.65154 9.36211V6.33669C1.65196 3.26937 4.04053 0.799805 6.9967 0.799805ZM8.06541 12.9833L5.92767 12.9835C5.92767 13.5966 6.40629 14.0924 6.9967 14.0924C7.55238 14.0924 8.00904 13.6532 8.06084 13.0917L8.06541 12.9833ZM6.9967 1.9072C4.63046 1.9072 2.72091 3.8815 2.72057 6.33677V9.59223L1.76273 11.8765H12.2368L11.2728 9.59293L11.2729 6.34626L11.2702 6.18C11.1911 3.79285 9.30694 1.9072 6.9967 1.9072ZM4.50229 6.33956H5.92767C6.31243 6.33956 6.56262 6.74322 6.42461 7.09783L6.39176 7.16796L5.42336 8.92347H5.92767C6.22287 8.92347 6.46218 9.17137 6.46218 9.47717C6.46218 9.75749 6.2611 9.98915 6.0002 10.0258L5.92767 10.0309H4.50229C4.11753 10.0309 3.86734 9.6272 4.00535 9.27259L4.0382 9.20246L5.0066 7.44695H4.50229C4.20709 7.44695 3.96778 7.19905 3.96778 6.89325C3.96778 6.61294 4.16886 6.38128 4.42976 6.34461L4.50229 6.33956ZM7.35305 4.12477H9.13477C9.51686 4.12477 9.76716 4.52339 9.63387 4.87731L9.60202 4.94737L8.26146 7.44695H9.13477C9.42997 7.44695 9.66928 7.69485 9.66928 8.00065C9.66928 8.28096 9.4682 8.51262 9.2073 8.54929L9.13477 8.55434H7.35305C6.97096 8.55434 6.72065 8.15572 6.85395 7.8018L6.88579 7.73175L8.22635 5.23216H7.35305C7.05784 5.23216 6.81853 4.98427 6.81853 4.67847C6.81853 4.39815 7.01962 4.16649 7.28052 4.12983L7.35305 4.12477Z" fill="#0171A1"/>
</svg>
