<svg width="32" height="32" viewBox="0 0 32 32" fill="none" xmlns="http://www.w3.org/2000/svg">
<path d="M0 16C0 7.16344 7.16344 0 16 0C24.8366 0 32 7.16344 32 16C32 24.8366 24.8366 32 16 32C7.16344 32 0 24.8366 0 16Z" fill="#EBF2F5"/>
<path d="M17.9688 7C18.301 7 18.5756 7.25394 18.619 7.58341L18.625 7.675V9.7H23.2188C23.5812 9.7 23.875 10.0022 23.875 10.375V24.325C23.875 24.6978 23.5812 25 23.2188 25H20.5938C20.2313 25 19.9375 24.6978 19.9375 24.325V21.85H18.1875V24.325C18.1875 24.6978 17.8937 25 17.5312 25H14.9062C14.5438 25 14.25 24.6978 14.25 24.325V10.375C14.25 10.0022 14.5438 9.7 14.9062 9.7H17.3125V8.35H9.4375V24.325C9.4375 24.6978 9.14369 25 8.78125 25C8.44902 25 8.17445 24.7461 8.13099 24.4166L8.125 24.325V7.675C8.125 7.33327 8.37188 7.05086 8.6922 7.00616L8.78125 7H17.9688ZM22.5625 11.05H15.5625V23.65H16.875V21.175C16.875 20.8022 17.1688 20.5 17.5312 20.5H20.5938C20.9562 20.5 21.25 20.8022 21.25 21.175V23.65H22.5625V11.05ZM12.5 20.5V22.3H10.75V20.5H12.5ZM18.625 17.8V19.6H16.875V17.8H18.625ZM21.25 17.8V19.6H19.5V17.8H21.25ZM12.5 17.8V19.6H10.75V17.8H12.5ZM18.625 15.1V16.9H16.875V15.1H18.625ZM21.25 15.1V16.9H19.5V15.1H21.25ZM12.5 15.1V16.9H10.75V15.1H12.5ZM12.5 12.4V14.2H10.75V12.4H12.5ZM18.625 12.4V14.2H16.875V12.4H18.625ZM21.25 12.4V14.2H19.5V12.4H21.25ZM12.5 9.7V11.5H10.75V9.7H12.5Z" fill="#819FB2"/>
<path d="M16 31C7.71573 31 1 24.2843 1 16H-1C-1 25.3888 6.61116 33 16 33V31ZM31 16C31 24.2843 24.2843 31 16 31V33C25.3888 33 33 25.3888 33 16H31ZM16 1C24.2843 1 31 7.71573 31 16H33C33 6.61116 25.3888 -1 16 -1V1ZM16 -1C6.61116 -1 -1 6.61116 -1 16H1C1 7.71573 7.71573 1 16 1V-1Z" fill="#EBF2F5"/>
</svg>
