<svg width="18" height="18" viewBox="0 0 18 18" fill="none" xmlns="http://www.w3.org/2000/svg">
<path d="M15.0265 6.23006L11.5327 6.58131L7.76828 0.548442C7.65978 0.381765 7.51326 0.244707 7.34142 0.149141C7.16957 0.0535757 6.97758 0.00238378 6.78208 0H5.57939C5.39282 0.00520866 5.20999 0.0548425 5.04537 0.144974C4.88076 0.235105 4.73887 0.36326 4.63094 0.519297C4.52301 0.675334 4.452 0.854971 4.42353 1.04399C4.39506 1.23301 4.40991 1.42623 4.4669 1.60835L6.38519 7.1051L2.96955 7.45019C0.810726 5.22561 -0.181492 6.03903 0.0289787 6.77234C0.846807 9.57001 0.846807 8.43615 0.0289787 11.2338C-0.187505 11.9795 0.810727 12.7744 2.96354 10.5683L6.37918 10.9134L4.4669 16.3978C4.41116 16.5791 4.39708 16.7711 4.42576 16.9589C4.45445 17.1466 4.52512 17.3251 4.63226 17.4802C4.73939 17.6353 4.88009 17.763 5.04335 17.8532C5.20662 17.9433 5.38801 17.9936 5.57337 18H6.77606C6.97157 17.9976 7.16356 17.9464 7.33541 17.8509C7.50725 17.7553 7.65377 17.6182 7.76227 17.4516L11.5327 11.468L15.0265 11.7761C15.4033 11.8125 15.7834 11.768 16.1424 11.6452C16.5014 11.5224 16.8314 11.3241 17.1114 11.0631C17.3913 10.802 17.6149 10.484 17.7679 10.1292C17.921 9.7745 18 9.39093 18 9.00308C18 8.61524 17.921 8.23167 17.7679 7.87693C17.6149 7.5222 17.3913 7.20413 17.1114 6.94308C16.8314 6.68204 16.5014 6.48378 16.1424 6.36099C15.7834 6.23821 15.4033 6.19361 15.0265 6.23006Z" fill="#819FB2"/>
</svg>
