<svg width="18" height="18" viewBox="0 0 18 18" fill="none" xmlns="http://www.w3.org/2000/svg">
<path d="M9.00039 0.900024C13.4739 0.900024 17.1004 4.52652 17.1004 9.00003C17.1004 13.4735 13.4739 17.1 9.00039 17.1C4.52688 17.1 0.900391 13.4735 0.900391 9.00003C0.900391 4.52652 4.52688 0.900024 9.00039 0.900024ZM9.00039 2.11484C5.19781 2.11484 2.1152 5.19744 2.1152 9.00003C2.1152 12.8026 5.19781 15.8852 9.00039 15.8852C12.803 15.8852 15.8856 12.8026 15.8856 9.00003C15.8856 5.19744 12.803 2.11484 9.00039 2.11484ZM8.99744 7.78443C9.30495 7.78423 9.55923 8.01257 9.59964 8.30902L9.60524 8.39144L9.60816 12.847C9.60838 13.1825 9.33661 13.4546 9.00115 13.4548C8.69365 13.455 8.43936 13.2267 8.39895 12.9303L8.39335 12.8478L8.39043 8.39223C8.39021 8.05677 8.66198 7.78465 8.99744 7.78443ZM9.00075 4.95168C9.44744 4.95168 9.80955 5.31379 9.80955 5.76047C9.80955 6.20715 9.44744 6.56926 9.00075 6.56926C8.55407 6.56926 8.19196 6.20715 8.19196 5.76047C8.19196 5.31379 8.55407 4.95168 9.00075 4.95168Z" fill="#F93131"/>
</svg>
