<svg width="16" height="16" viewBox="0 0 16 16" fill="none" xmlns="http://www.w3.org/2000/svg">
<g clip-path="url(#clip0_3492_13866)">
<path d="M13.8498 0.799805C14.5954 0.799805 15.1998 1.40422 15.1998 2.1498V3.9498C15.1998 4.53737 14.8244 5.03726 14.3004 5.22276L14.2998 12.0498C14.2998 13.7895 12.8895 15.1998 11.1498 15.1998H4.8498C3.11011 15.1998 1.6998 13.7895 1.6998 12.0498L1.70007 5.22308C1.17559 5.03783 0.799805 4.5377 0.799805 3.9498V2.1498C0.799805 1.40422 1.40422 0.799805 2.1498 0.799805H13.8498ZM13.3998 5.2998H2.5998V12.0498C2.5998 13.2924 3.60716 14.2998 4.8498 14.2998H11.1498C12.3924 14.2998 13.3998 13.2924 13.3998 12.0498V5.2998ZM6.64981 7.0998H9.3498C9.59833 7.0998 9.7998 7.30128 9.7998 7.54981C9.7998 7.77072 9.64062 7.95445 9.43069 7.99255L9.3498 7.9998H6.64981C6.40128 7.9998 6.1998 7.79833 6.1998 7.54981C6.1998 7.32889 6.35899 7.14516 6.56892 7.10706L6.64981 7.0998H9.3498H6.64981ZM13.8498 1.6998H2.1498C1.90128 1.6998 1.6998 1.90128 1.6998 2.1498V3.9498C1.6998 4.19833 1.90128 4.3998 2.1498 4.3998H13.8498C14.0983 4.3998 14.2998 4.19833 14.2998 3.9498V2.1498C14.2998 1.90128 14.0983 1.6998 13.8498 1.6998Z" fill="#0171A1"/>
</g>
<defs>
<clipPath id="clip0_3492_13866">
<rect width="16" height="16" fill="white"/>
</clipPath>
</defs>
</svg>
