<svg width="16" height="16" viewBox="0 0 16 16" fill="none" xmlns="http://www.w3.org/2000/svg">
<path d="M13.85 0.799805C14.5956 0.799805 15.2 1.40422 15.2 2.1498V3.9498C15.2 4.53737 14.8247 5.03726 14.3007 5.22276L14.3 12.0498C14.3 13.7895 12.8897 15.1998 11.15 15.1998H4.85005C3.11035 15.1998 1.70005 13.7895 1.70005 12.0498L1.70031 5.22308C1.17584 5.03783 0.800049 4.5377 0.800049 3.9498V2.1498C0.800049 1.40422 1.40446 0.799805 2.15005 0.799805H13.85ZM13.4 5.2998H2.60005V12.0498C2.60005 13.2924 3.60741 14.2998 4.85005 14.2998H11.15C12.3927 14.2998 13.4 13.2924 13.4 12.0498V5.2998ZM6.65005 7.0998H9.35005C9.59858 7.0998 9.80005 7.30128 9.80005 7.5498C9.80005 7.77072 9.64086 7.95445 9.43094 7.99255L9.35005 7.9998H6.65005C6.40152 7.9998 6.20005 7.79833 6.20005 7.5498C6.20005 7.32889 6.35924 7.14516 6.56916 7.10705L6.65005 7.0998H9.35005H6.65005ZM13.85 1.6998H2.15005C1.90152 1.6998 1.70005 1.90128 1.70005 2.1498V3.9498C1.70005 4.19833 1.90152 4.3998 2.15005 4.3998H13.85C14.0986 4.3998 14.3 4.19833 14.3 3.9498V2.1498C14.3 1.90128 14.0986 1.6998 13.85 1.6998Z" fill="#4A4A4A"/>
</svg>
