<svg width="16" height="16" viewBox="0 0 16 16" fill="none" xmlns="http://www.w3.org/2000/svg">
<path d="M9.88399 3.832L9.93564 3.76765C10.125 3.56394 10.4214 3.54545 10.6302 3.71216L10.69 3.76773L14.2439 7.59165C14.4332 7.79529 14.4504 8.11389 14.2957 8.33853L14.2441 8.40289L10.6903 12.2313C10.4821 12.4555 10.1443 12.4558 9.93586 12.2318C9.74635 12.0282 9.72893 11.7094 9.88374 11.4846L9.93535 11.4202L12.5747 8.57611L2.13354 8.57683C1.86348 8.57683 1.64029 8.36095 1.60497 8.08084L1.6001 8.00298C1.6001 7.71245 1.80078 7.47235 2.06115 7.43436L2.13354 7.42912L12.584 7.42839L9.93556 4.57921C9.7462 4.37545 9.72902 4.05664 9.88399 3.832L9.93564 3.76765L9.88399 3.832Z" fill="#16B442"/>
</svg>
