<svg width="48" height="48" viewBox="0 0 48 48" fill="none" xmlns="http://www.w3.org/2000/svg">
<path d="M24 2C36.1503 2 46 11.8497 46 24C46 36.1503 36.1503 46 24 46C11.8497 46 2 36.1503 2 24C2 11.8497 11.8497 2 24 2ZM24 5.3C13.6723 5.3 5.3 13.6723 5.3 24C5.3 34.3277 13.6723 42.7 24 42.7C34.3277 42.7 42.7 34.3277 42.7 24C42.7 13.6723 34.3277 5.3 24 5.3ZM21.25 27.1665L31.0833 17.3333C31.7276 16.6889 32.7724 16.6889 33.4167 17.3333C34.0025 17.9191 34.0558 18.8357 33.5765 19.4817L33.4167 19.6667L22.4167 30.6667C21.8309 31.2525 20.9143 31.3058 20.2683 30.8265L20.0833 30.6667L14.5833 25.1667C13.9389 24.5224 13.9389 23.4776 14.5833 22.8333C15.1691 22.2475 16.0857 22.1942 16.7317 22.6735L16.9167 22.8333L21.25 27.1665L31.0833 17.3333L21.25 27.1665Z" fill="#16B442"/>
</svg>
