<svg width="44" height="44" viewBox="0 0 44 44" fill="none" xmlns="http://www.w3.org/2000/svg">
<path d="M22 0C34.1503 0 44 9.84974 44 22C44 34.1503 34.1503 44 22 44C9.84974 44 0 34.1503 0 22C0 9.84974 9.84974 0 22 0ZM29.0833 15.3333L19.25 25.1665L14.9167 20.8333C14.2724 20.1889 13.2276 20.1889 12.5833 20.8333C11.9389 21.4776 11.9389 22.5224 12.5833 23.1667L18.0833 28.6667C18.7276 29.3111 19.7724 29.3111 20.4167 28.6667L31.4167 17.6667C32.0611 17.0224 32.0611 15.9776 31.4167 15.3333C30.7724 14.6889 29.7276 14.6889 29.0833 15.3333Z" fill="#16B442"/>
</svg>