<svg width="16" height="16" viewBox="0 0 16 16" fill="none" xmlns="http://www.w3.org/2000/svg">
<path d="M8.00033 0.666992C12.0504 0.666992 15.3337 3.95024 15.3337 8.00033C15.3337 12.0504 12.0504 15.3337 8.00033 15.3337C3.95024 15.3337 0.666992 12.0504 0.666992 8.00033C0.666992 3.95024 3.95024 0.666992 8.00033 0.666992ZM10.3614 5.77808L7.08366 9.05584L5.63923 7.61142C5.42445 7.39663 5.0762 7.39663 4.86142 7.61142C4.64663 7.8262 4.64663 8.17445 4.86142 8.38923L6.69475 10.2226C6.90954 10.4374 7.25778 10.4374 7.47257 10.2226L11.1392 6.5559C11.354 6.34111 11.354 5.99287 11.1392 5.77808C10.9244 5.56329 10.5762 5.56329 10.3614 5.77808Z" fill="#16B442"/>
</svg>
