<svg width="16" height="16" viewBox="0 0 16 16" fill="none" xmlns="http://www.w3.org/2000/svg">
<path d="M7.99984 0.666992C12.0499 0.666992 15.3332 3.95024 15.3332 8.00033C15.3332 12.0504 12.0499 15.3337 7.99984 15.3337C3.94975 15.3337 0.666504 12.0504 0.666504 8.00033C0.666504 3.95024 3.94975 0.666992 7.99984 0.666992ZM10.3609 5.77808L7.08317 9.05584L5.63875 7.61142C5.42396 7.39663 5.07572 7.39663 4.86093 7.61142C4.64614 7.8262 4.64614 8.17445 4.86093 8.38923L6.69426 10.2226C6.90905 10.4374 7.25729 10.4374 7.47208 10.2226L11.1387 6.5559C11.3535 6.34111 11.3535 5.99287 11.1387 5.77808C10.924 5.56329 10.5757 5.56329 10.3609 5.77808Z" fill="#B4CFE0"/>
</svg>
