<svg width="20" height="20" viewBox="0 0 20 20" fill="none" xmlns="http://www.w3.org/2000/svg">
<path d="M9.99992 0.833252C15.0625 0.833252 19.1666 4.93731 19.1666 9.99992C19.1666 15.0625 15.0625 19.1666 9.99992 19.1666C4.93731 19.1666 0.833252 15.0625 0.833252 9.99992C0.833252 4.93731 4.93731 0.833252 9.99992 0.833252ZM9.99992 2.20825C5.6967 2.20825 2.20825 5.6967 2.20825 9.99992C2.20825 14.3031 5.6967 17.7916 9.99992 17.7916C14.3031 17.7916 17.7916 14.3031 17.7916 9.99992C17.7916 5.6967 14.3031 2.20825 9.99992 2.20825ZM8.85408 11.3193L12.9513 7.22212C13.2198 6.95363 13.6551 6.95363 13.9236 7.22212C14.1676 7.46619 14.1898 7.84814 13.9901 8.11728L13.9236 8.19439L9.34022 12.7777C9.09614 13.0218 8.7142 13.044 8.44506 12.8443L8.36795 12.7777L6.07628 10.4861C5.8078 10.2176 5.8078 9.78227 6.07628 9.51378C6.32036 9.2697 6.7023 9.24752 6.97145 9.44722L7.04855 9.51378L8.85408 11.3193L12.9513 7.22212L8.85408 11.3193Z" fill="#819FB2"/>
</svg>
