<svg width="20" height="20" viewBox="0 0 20 20" fill="none" xmlns="http://www.w3.org/2000/svg">
<path d="M9.99992 0.833336C15.0625 0.833336 19.1666 4.93739 19.1666 10C19.1666 15.0626 15.0625 19.1667 9.99992 19.1667C4.93731 19.1667 0.833252 15.0626 0.833252 10C0.833252 4.93739 4.93731 0.833336 9.99992 0.833336ZM9.99992 2.20834C5.6967 2.20834 2.20825 5.69678 2.20825 10C2.20825 14.3032 5.6967 17.7917 9.99992 17.7917C14.3031 17.7917 17.7916 14.3032 17.7916 10C17.7916 5.69678 14.3031 2.20834 9.99992 2.20834ZM8.85408 11.3194L12.9513 7.2222C13.2198 6.95371 13.6551 6.95371 13.9236 7.2222C14.1676 7.46628 14.1898 7.84822 13.9901 8.11736L13.9236 8.19447L9.34022 12.7778C9.09614 13.0219 8.7142 13.0441 8.44506 12.8444L8.36795 12.7778L6.07628 10.4861C5.8078 10.2177 5.8078 9.78235 6.07628 9.51387C6.32036 9.26979 6.7023 9.2476 6.97145 9.4473L7.04855 9.51387L8.85408 11.3194L12.9513 7.2222L8.85408 11.3194Z" fill="#16B442"/>
</svg>
