<svg width="20" height="20" viewBox="0 0 20 20" fill="none" xmlns="http://www.w3.org/2000/svg">
<path d="M9.99992 0.833252C15.0625 0.833252 19.1666 4.93731 19.1666 9.99992C19.1666 15.0625 15.0625 19.1666 9.99992 19.1666C4.93731 19.1666 0.833252 15.0625 0.833252 9.99992C0.833252 4.93731 4.93731 0.833252 9.99992 0.833252ZM12.9513 7.22212L8.85408 11.3193L7.04855 9.51378C6.78007 9.2453 6.34477 9.2453 6.07628 9.51378C5.8078 9.78227 5.8078 10.2176 6.07628 10.4861L8.36795 12.7777C8.63644 13.0462 9.07174 13.0462 9.34022 12.7777L13.9236 8.19439C14.192 7.9259 14.192 7.4906 13.9236 7.22212C13.6551 6.95363 13.2198 6.95363 12.9513 7.22212Z" fill="#16B442"/>
</svg>
