<svg width="17" height="17" viewBox="0 0 17 17" fill="none" xmlns="http://www.w3.org/2000/svg">
<path d="M8.50005 1.71667C12.4766 1.71667 15.7 4.94083 15.7 8.91667C15.7 12.8925 12.4766 16.1167 8.50005 16.1167C4.52349 16.1167 1.30005 12.8925 1.30005 8.91667C1.30005 4.94083 4.52349 1.71667 8.50005 1.71667ZM8.50005 2.91691C5.19165 2.91691 2.50029 5.60827 2.50029 8.91667C2.50029 12.2251 5.19165 14.9164 8.50005 14.9164C11.8084 14.9164 14.4998 12.2251 14.4998 8.91667C14.4998 5.60827 11.8084 2.91691 8.50005 2.91691ZM7.96005 4.59667C8.23329 4.59667 8.45934 4.79995 8.49512 5.06343L8.50005 5.13667V8.91667H10.84C11.1381 8.91667 11.38 9.15859 11.38 9.45667C11.38 9.72991 11.1768 9.95597 10.9133 9.99174L10.84 9.99667H7.96005C7.68681 9.99667 7.46076 9.79339 7.42498 9.52992L7.42005 9.45667V5.13667C7.42005 4.83859 7.66197 4.59667 7.96005 4.59667Z" fill="#EB9B26"/>
</svg>
