<svg width="16" height="16" viewBox="0 0 16 16" fill="none" xmlns="http://www.w3.org/2000/svg">
<path fill-rule="evenodd" clip-rule="evenodd" d="M13.1533 2.84712C13.3938 3.08762 13.3938 3.47755 13.1533 3.71804L8.87125 8.00008L13.1533 12.2821C13.3938 12.5226 13.3938 12.9125 13.1533 13.153C12.9128 13.3935 12.5229 13.3935 12.2824 13.153L8.00033 8.871L3.71829 13.153C3.47779 13.3935 3.08786 13.3935 2.84737 13.153C2.60687 12.9125 2.60687 12.5226 2.84737 12.2821L7.1294 8.00008L2.84737 3.71804C2.60687 3.47755 2.60687 3.08762 2.84737 2.84712C3.08787 2.60662 3.47779 2.60662 3.71829 2.84712L8.00033 7.12916L12.2824 2.84712C12.5229 2.60662 12.9128 2.60662 13.1533 2.84712Z" fill="#F93131"/>
</svg>
