<svg width="18" height="18" viewBox="0 0 18 18" fill="none" xmlns="http://www.w3.org/2000/svg">
<path fill-rule="evenodd" clip-rule="evenodd" d="M0.666504 9.00001C0.666504 4.39763 4.39746 0.666672 8.99984 0.666672C13.6022 0.666672 17.3332 4.39763 17.3332 9.00001C17.3332 13.6024 13.6022 17.3333 8.99984 17.3333C4.39746 17.3333 0.666504 13.6024 0.666504 9.00001ZM8.99984 1.82946C5.03966 1.82946 1.82929 5.03982 1.82929 9.00001C1.82929 10.822 2.50885 12.4853 3.62834 13.7503C3.92715 11.8824 5.1802 10.3336 6.87171 9.61881C6.09508 8.99895 5.59741 8.04418 5.59741 6.97318C5.59741 5.10473 7.11204 3.59075 8.97984 3.59075C10.8481 3.59075 12.3628 5.10466 12.3628 6.97318C12.3628 8.0442 11.8651 8.99895 11.0884 9.6188C12.7913 10.3384 14.0497 11.9033 14.3375 13.7882C15.4771 12.5187 16.1704 10.8403 16.1704 9.00001C16.1704 5.03982 12.96 1.82946 8.99984 1.82946ZM13.3302 14.7158C13.273 14.6304 13.2377 14.5287 13.2328 14.4186C13.1314 12.1579 11.2662 10.3563 8.97999 10.3563C6.67423 10.3563 4.7963 12.1893 4.72493 14.4773C4.72228 14.5621 4.70161 14.6421 4.6667 14.7137C5.87036 15.6279 7.37173 16.1705 8.99984 16.1705C10.6267 16.1705 12.127 15.6288 13.3302 14.7158ZM8.97984 4.75355C7.75409 4.75355 6.7602 5.74706 6.7602 6.97318C6.7602 8.19944 7.75423 9.19334 8.97984 9.19334C10.206 9.19334 11.2 8.19937 11.2 6.97318C11.2 5.74713 10.2062 4.75355 8.97984 4.75355Z" fill="#0171A1"/>
</svg>
