<svg width="16" height="16" viewBox="0 0 16 16" fill="none" xmlns="http://www.w3.org/2000/svg">
<path fill-rule="evenodd" clip-rule="evenodd" d="M13.1523 2.84706C13.3928 3.08756 13.3928 3.47748 13.1523 3.71798L8.87027 8.00002L13.1523 12.2821C13.3928 12.5226 13.3928 12.9125 13.1523 13.153C12.9118 13.3935 12.5219 13.3935 12.2814 13.153L7.99935 8.87094L3.71731 13.153C3.47681 13.3935 3.08689 13.3935 2.84639 13.153C2.60589 12.9125 2.60589 12.5226 2.84639 12.2821L7.12843 8.00002L2.84639 3.71798C2.60589 3.47748 2.60589 3.08756 2.84639 2.84706C3.08689 2.60656 3.47681 2.60656 3.71731 2.84706L7.99935 7.1291L12.2814 2.84706C12.5219 2.60656 12.9118 2.60656 13.1523 2.84706Z" fill="#4A4A4A"/>
</svg>
