<svg width="12" height="16" viewBox="0 0 12 16" fill="none" xmlns="http://www.w3.org/2000/svg">
<path d="M10.925 13.8492C11.2978 13.8492 11.6001 14.1515 11.6001 14.5243C11.6001 14.8661 11.3461 15.1485 11.0166 15.1932L10.925 15.1994H1.07498C0.702139 15.1994 0.399902 14.8972 0.399902 14.5243C0.399902 14.1826 0.653867 13.9002 0.983368 13.8554L1.07498 13.8492H10.925ZM6.03477 0.799805C6.37654 0.799805 6.659 1.05377 6.70373 1.38328L6.70985 1.47488L6.70931 10.6497L9.3792 7.97581C9.61872 7.73593 9.9937 7.71379 10.2582 7.90964L10.3339 7.97493C10.5738 8.21437 10.596 8.58944 10.4001 8.85389L10.3348 8.92968L6.51588 12.7557L6.45224 12.8119L6.37033 12.8647L6.33757 12.8837L6.25548 12.9179L6.14702 12.945L6.08473 12.9521L6.03066 12.9538C5.98555 12.9538 5.93975 12.9488 5.895 12.9394L5.8222 12.9186C5.73578 12.8907 5.65737 12.8454 5.59063 12.7871L1.72957 8.9304C1.46574 8.66694 1.46544 8.23957 1.72888 7.97571C1.96838 7.73587 2.3434 7.71382 2.60783 7.90972L2.68359 7.97503L5.35918 10.646L5.35974 1.47488C5.35974 1.10205 5.66199 0.799805 6.03477 0.799805Z" fill="#6D858F"/>
</svg>
