<svg width="16" height="16" viewBox="0 0 16 16" fill="none" xmlns="http://www.w3.org/2000/svg">
<path d="M12.9255 13.8494C13.2983 13.8494 13.6006 14.1516 13.6006 14.5245C13.6006 14.8662 13.3466 15.1487 13.017 15.1934L12.9255 15.1995H3.07547C2.70263 15.1995 2.40039 14.8974 2.40039 14.5245C2.40039 14.1828 2.65436 13.9003 2.98386 13.8556L3.07547 13.8494H12.9255ZM8.03526 0.799988C8.37703 0.799988 8.65948 1.05395 8.70422 1.38346L8.71034 1.47507L8.7098 10.6499L11.3797 7.976C11.6192 7.73611 11.9942 7.71397 12.2586 7.90982L12.3344 7.97511C12.5743 8.21455 12.5964 8.58962 12.4006 8.85407L12.3353 8.92986L8.51637 12.7558L8.45273 12.8121L8.37082 12.8648L8.33806 12.8839L8.25597 12.918L8.1475 12.9451L8.08522 12.9522L8.03115 12.954C7.98603 12.954 7.94024 12.949 7.89548 12.9396L7.82268 12.9188C7.73626 12.8909 7.65786 12.8456 7.59111 12.7873L3.73006 8.93058C3.46623 8.66712 3.46593 8.23975 3.72937 7.9759C3.96887 7.73605 4.34389 7.714 4.60831 7.9099L4.68408 7.97521L7.35967 10.6462L7.36023 1.47507C7.36023 1.10223 7.66247 0.799988 8.03526 0.799988Z" fill="#0171A1"/>
</svg>
