<svg width="12" height="16" viewBox="0 0 12 16" fill="none" xmlns="http://www.w3.org/2000/svg">
<path d="M10.9251 13.8495C11.298 13.8495 11.6002 14.1517 11.6002 14.5245C11.6002 14.8663 11.3462 15.1488 11.0167 15.1935L10.9251 15.1996H1.0751C0.702261 15.1996 0.400024 14.8974 0.400024 14.5245C0.400024 14.1829 0.653989 13.9004 0.98349 13.8557L1.0751 13.8495H10.9251ZM6.03489 0.800049C6.37666 0.800049 6.65912 1.05401 6.70385 1.38352L6.70997 1.47513L6.70943 10.6499L9.37932 7.97606C9.61884 7.73617 9.99382 7.71404 10.2583 7.90988L10.3341 7.97517C10.5739 8.21461 10.5961 8.58968 10.4002 8.85413L10.335 8.92992L6.516 12.7559L6.45236 12.8122L6.37045 12.8649L6.33769 12.884L6.2556 12.9181L6.14714 12.9452L6.08485 12.9523L6.03078 12.954C5.98567 12.954 5.93987 12.9491 5.89512 12.9396L5.82232 12.9188C5.7359 12.8909 5.65749 12.8456 5.59075 12.7873L1.72969 8.93064C1.46586 8.66718 1.46556 8.23981 1.729 7.97596C1.9685 7.73612 2.34352 7.71406 2.60795 7.90996L2.68371 7.97527L5.3593 10.6462L5.35986 1.47513C5.35986 1.10229 5.66211 0.800049 6.03489 0.800049Z" fill="#0171A1"/>
</svg>
