<svg width="24" height="24" viewBox="0 0 24 24" fill="none" xmlns="http://www.w3.org/2000/svg">
<path fill-rule="evenodd" clip-rule="evenodd" d="M4.42437 3.74137C4.42437 2.33792 5.57109 1.2002 6.98564 1.2002H14.0679C14.5773 1.2002 15.0659 1.401 15.4261 1.75842L20.4389 6.73177C20.7992 7.0892 21.0015 7.57396 21.0015 8.07943V18.9884C21.0015 20.3919 19.8548 21.5296 18.4402 21.5296H17.1596V20.259H18.4402C19.1475 20.259 19.7209 19.6902 19.7209 18.9884V8.82373H15.2386C14.1778 8.82373 13.3177 7.97044 13.3177 6.91784V2.47078H6.98564C6.27837 2.47078 5.705 3.03965 5.705 3.74137V8.82373C5.23848 8.82373 4.80109 8.94747 4.42437 9.16369V3.74137ZM15.2386 7.55314H19.4556L14.5983 2.73394V6.91784C14.5983 7.2687 14.885 7.55314 15.2386 7.55314ZM16.4416 16.0202C16.4416 12.4751 13.5673 9.6002 10.0216 9.6002C6.4758 9.6002 3.60156 12.4751 3.60156 16.0202C3.60156 19.5653 6.4758 22.4402 10.0216 22.4402C13.5673 22.4402 16.4416 19.5653 16.4416 16.0202ZM4.67178 16.0202C4.67178 13.0702 7.07157 10.6704 10.0216 10.6704C12.9716 10.6704 15.3713 13.0702 15.3713 16.0202C15.3713 18.9702 12.9716 21.37 10.0216 21.37C7.07157 21.37 4.67178 18.9702 4.67178 16.0202ZM10.6636 18.9092C10.6636 18.5546 10.3761 18.2672 10.0216 18.2672C9.667 18.2672 9.37956 18.5546 9.37956 18.9092C9.37956 19.2638 9.667 19.5512 10.0216 19.5512C10.3761 19.5512 10.6636 19.2638 10.6636 18.9092ZM11.7871 14.4152C11.7871 13.4401 10.9966 12.6497 10.0216 12.6497C9.0465 12.6497 8.25606 13.4401 8.25606 14.4152C8.25606 14.6811 8.47164 14.8967 8.73756 14.8967C9.00349 14.8967 9.21906 14.6811 9.21906 14.4152L9.22321 14.3331C9.2643 13.9285 9.60605 13.6127 10.0216 13.6127C10.4648 13.6127 10.8241 13.972 10.8241 14.4152C10.8241 14.7899 10.7223 14.9595 10.3231 15.3587L10.2149 15.469C9.73109 15.9727 9.54006 16.3343 9.54006 16.9832C9.54006 17.2491 9.75564 17.4647 10.0216 17.4647C10.2875 17.4647 10.5031 17.2491 10.5031 16.9832C10.5031 16.6084 10.6048 16.4389 11.004 16.0397L11.1122 15.9294C11.596 15.4257 11.7871 15.0641 11.7871 14.4152Z" fill="#0084BD"/>
</svg>
