<svg width="20" height="20" viewBox="0 0 20 20" fill="none" xmlns="http://www.w3.org/2000/svg">
<path d="M10.6 15.3519C10.9314 15.3519 11.2 15.6337 11.2 15.9815C11.2 16.3292 10.9314 16.6111 10.6 16.6111H8.99586C8.06489 16.6111 7.28754 15.8662 7.20325 14.8932L6.78288 10.0408C6.74909 9.65073 6.54421 9.29934 6.2286 9.09016L2.11842 6.36606C1.42218 5.90462 1 5.10082 1 4.23668V3.7037C1 2.48663 1.9402 1.5 3.1 1.5H16.9C18.0598 1.5 19 2.48663 19 3.7037V4.36993C19 5.13502 18.6686 5.85862 18.0993 6.33656L14.2748 9.54721C14.0161 9.76444 13.6385 9.72042 13.4315 9.44888C13.2245 9.17735 13.2664 8.78113 13.5252 8.5639L17.3496 5.35325C17.6343 5.11427 17.8 4.75247 17.8 4.36993V3.7037C17.8 3.1821 17.3971 2.75926 16.9 2.75926H3.1C2.60294 2.75926 2.2 3.1821 2.2 3.7037V4.23668C2.2 4.66875 2.41109 5.07065 2.75921 5.30137L6.86939 8.02547C7.50062 8.44382 7.91036 9.14661 7.97795 9.92683L8.39832 14.7792C8.42642 15.1035 8.68554 15.3519 8.99586 15.3519H10.6ZM18.4 12.2037C18.7314 12.2037 19 12.4856 19 12.8333C19 13.1811 18.7314 13.463 18.4 13.463H13C12.6686 13.463 12.4 13.1811 12.4 12.8333C12.4 12.4856 12.6686 12.2037 13 12.2037H18.4ZM18.4 14.7222C18.7314 14.7222 19 15.0041 19 15.3519C19 15.6996 18.7314 15.9815 18.4 15.9815H13C12.6686 15.9815 12.4 15.6996 12.4 15.3519C12.4 15.0041 12.6686 14.7222 13 14.7222H18.4ZM18.4 17.2407C18.7314 17.2407 19 17.5226 19 17.8704C19 18.2181 18.7314 18.5 18.4 18.5H13C12.6686 18.5 12.4 18.2181 12.4 17.8704C12.4 17.5226 12.6686 17.2407 13 17.2407H18.4Z" fill="#002F44"/>
</svg>
