<svg width="20" height="20" viewBox="0 0 20 20" fill="none" xmlns="http://www.w3.org/2000/svg">
<path d="M10 1C14.9706 1 19 5.02944 19 10C19 14.9706 14.9706 19 10 19C5.02944 19 1 14.9706 1 10C1 5.02944 5.02944 1 10 1ZM10 2.34979C5.77491 2.34979 2.34979 5.77491 2.34979 10C2.34979 14.2251 5.77491 17.6502 10 17.6502C14.2251 17.6502 17.6502 14.2251 17.6502 10C17.6502 5.77491 14.2251 2.34979 10 2.34979ZM9.99672 8.64934C10.3384 8.64912 10.6209 8.90283 10.6658 9.23222L10.6721 9.32379L10.6753 14.2745C10.6755 14.6472 10.3736 14.9496 10.0008 14.9498C9.65917 14.95 9.37664 14.6963 9.33173 14.3669L9.32551 14.2753L9.32227 9.32468C9.32203 8.95194 9.62399 8.64958 9.99672 8.64934ZM10.0004 5.50184C10.4967 5.50184 10.8991 5.90418 10.8991 6.4005C10.8991 6.89681 10.4967 7.29915 10.0004 7.29915C9.50409 7.29915 9.10175 6.89681 9.10175 6.4005C9.10175 5.90418 9.50409 5.50184 10.0004 5.50184Z" fill="#0171A1"/>
</svg>
