<svg width="14" height="10" viewBox="0 0 14 10" fill="none" xmlns="http://www.w3.org/2000/svg">
<path d="M8.8835 0.83237L8.93515 0.768013C9.12456 0.564301 9.42091 0.545813 9.62973 0.712527L9.68955 0.768097L13.2434 4.59202C13.4327 4.79566 13.45 5.11425 13.2952 5.33889L13.2436 5.40326L9.68977 9.23162C9.48159 9.45588 9.14384 9.45612 8.93537 9.23217C8.74586 9.02858 8.72844 8.70978 8.88325 8.48501L8.93486 8.42061L11.5742 5.57648L1.13305 5.5772C0.862989 5.5772 0.639802 5.36131 0.604479 5.08121L0.599609 5.00334C0.599609 4.71282 0.800292 4.47272 1.06066 4.43472L1.13305 4.42948L11.5835 4.42876L8.93508 1.57957C8.74571 1.37582 8.72853 1.05701 8.8835 0.83237L8.93515 0.768013L8.8835 0.83237Z" fill="#0171A1"/>
</svg>
