<svg width="20" height="20" viewBox="0 0 20 20" fill="none" xmlns="http://www.w3.org/2000/svg">
<path fill-rule="evenodd" clip-rule="evenodd" d="M7.33332 1C6.15511 1 5.19998 1.9481 5.19998 3.11765V6.63097C5.54375 6.53446 5.90034 6.46827 6.26665 6.4355V3.11765C6.26665 2.53288 6.74422 2.05882 7.33332 2.05882H11.6V5.76471C11.6 6.64187 12.3164 7.35294 13.2 7.35294H16.9333V15.8235C16.9333 16.4083 16.4558 16.8824 15.8666 16.8824H14.027C13.8319 17.2612 13.5962 17.616 13.3257 17.9412H15.8666C17.0449 17.9412 18 16.9931 18 15.8235V6.73269C18 6.31147 17.8314 5.9075 17.5314 5.60964L13.3561 1.46518C13.0561 1.16734 12.6492 1 12.2248 1H7.33332ZM16.7124 6.29412H13.2C12.9055 6.29412 12.6666 6.05709 12.6666 5.76471V2.27812L16.7124 6.29412ZM7.54074 19C10.6008 19 13.0815 16.5376 13.0815 13.5C13.0815 10.4624 10.6008 8 7.54074 8C4.48067 8 2 10.4624 2 13.5C2 16.5376 4.48067 19 7.54074 19ZM7.50003 18C9.98531 18 12 15.9853 12 13.5C12 11.0147 9.98531 9 7.50003 9C5.01475 9 3.00003 11.0147 3.00003 13.5C3.00003 15.9853 5.01475 18 7.50003 18ZM7.81202 17H7.20515L7.20802 16.3738C6.02863 16.2809 5.29008 15.6711 5.25 14.6457H6.29485C6.33206 15.1406 6.70134 15.4195 7.21374 15.4961L7.22519 13.8418L6.96756 13.7789C6.00286 13.541 5.40458 13.0789 5.40458 12.275C5.40172 11.3699 6.17462 10.741 7.24809 10.6371L7.25095 10H7.85782L7.85496 10.6371C8.93702 10.7355 9.65267 11.3699 9.66985 12.2395H8.6479C8.6021 11.8457 8.30725 11.5832 7.84924 11.5066L7.83779 13.068L8.02672 13.1145C8.9084 13.3141 9.74714 13.757 9.75 14.7277C9.74714 15.6438 9.04294 16.2891 7.81489 16.3738L7.81202 17ZM7.83206 13.9949L7.82061 15.4961C8.34447 15.4141 8.68511 15.1242 8.68798 14.7195C8.68511 14.3313 8.35305 14.1398 7.83206 13.9949ZM6.48092 12.2121C6.47519 12.6004 6.83588 12.8 7.23092 12.9203L7.24237 11.5066C6.76145 11.5859 6.48378 11.8594 6.48092 12.2121Z" fill="#0171A1"/>
</svg>
