<svg width="20" height="20" viewBox="0 0 20 20" fill="none" xmlns="http://www.w3.org/2000/svg">
<path d="M10 1C9.64 1 9.4 1.24 9.4 1.6V4.6C9.4 4.96 9.64 5.2 10 5.2C10.36 5.2 10.6 4.96 10.6 4.6V1.6C10.6 1.24 10.36 1 10 1ZM7.36 2.02C7.24 1.72 6.88 1.54 6.58 1.72C6.22 1.84 6.1 2.14 6.22 2.44L7.36 5.2C7.48 5.44 7.66 5.56 7.9 5.56C7.96 5.56 8.08 5.56 8.14 5.5C8.44 5.38 8.62 5.02 8.44 4.72L7.36 2.02ZM5.74 6.58C5.86 6.7 6.04 6.76 6.16 6.76C6.28 6.76 6.46 6.7 6.58 6.58C6.82 6.34 6.82 5.98 6.58 5.74L4.48 3.64C4.24 3.4 3.88 3.4 3.64 3.64C3.4 3.88 3.4 4.24 3.64 4.48L5.74 6.58ZM2.02 7.36L4.78 8.5C4.84 8.56 4.96 8.56 5.02 8.56C5.26 8.56 5.5 8.44 5.56 8.2C5.68 7.9 5.56 7.54 5.26 7.42L2.44 6.22C2.14 6.1 1.78 6.22 1.66 6.52C1.54 6.88 1.72 7.24 2.02 7.36ZM5.2 10C5.2 9.64 4.96 9.4 4.6 9.4H1.6C1.24 9.4 1 9.64 1 10C1 10.36 1.24 10.6 1.6 10.6H4.6C4.96 10.6 5.2 10.36 5.2 10ZM5.56 11.86C5.44 11.56 5.08 11.38 4.78 11.56L2.02 12.7C1.72 12.82 1.54 13.18 1.72 13.48C1.84 13.72 2.02 13.84 2.26 13.84C2.32 13.84 2.44 13.84 2.5 13.78L5.26 12.64C5.56 12.52 5.68 12.16 5.56 11.86ZM6.58 13.42C6.34 13.18 5.98 13.18 5.74 13.42L3.64 15.52C3.4 15.76 3.4 16.12 3.64 16.36C3.76 16.48 3.94 16.54 4.06 16.54C4.18 16.54 4.36 16.48 4.48 16.36L6.58 14.26C6.82 14.02 6.82 13.6 6.58 13.42ZM8.14 14.44C7.84 14.32 7.48 14.44 7.36 14.74L6.22 17.5C6.1 17.8 6.22 18.16 6.52 18.28C6.58 18.34 6.7 18.34 6.76 18.34C7 18.34 7.24 18.22 7.3 17.98L8.44 15.22C8.62 14.92 8.44 14.56 8.14 14.44ZM10 14.8C9.64 14.8 9.4 15.04 9.4 15.4V18.4C9.4 18.76 9.64 19 10 19C10.36 19 10.6 18.76 10.6 18.4V15.4C10.6 15.04 10.36 14.8 10 14.8ZM12.64 14.74C12.52 14.44 12.16 14.26 11.86 14.44C11.56 14.56 11.38 14.92 11.56 15.22L12.7 17.98C12.82 18.22 13 18.34 13.24 18.34C13.3 18.34 13.42 18.34 13.48 18.28C13.78 18.16 13.96 17.8 13.78 17.5L12.64 14.74ZM14.26 13.42C14.02 13.18 13.66 13.18 13.42 13.42C13.18 13.66 13.18 14.02 13.42 14.26L15.52 16.36C15.64 16.48 15.82 16.54 15.94 16.54C16.06 16.54 16.24 16.48 16.36 16.36C16.6 16.12 16.6 15.76 16.36 15.52L14.26 13.42ZM17.98 12.64L15.22 11.5C14.92 11.38 14.56 11.5 14.44 11.8C14.32 12.1 14.44 12.46 14.74 12.58L17.5 13.72C17.56 13.78 17.68 13.78 17.74 13.78C17.98 13.78 18.22 13.66 18.28 13.42C18.46 13.12 18.28 12.76 17.98 12.64ZM18.4 9.4H15.4C15.04 9.4 14.8 9.64 14.8 10C14.8 10.36 15.04 10.6 15.4 10.6H18.4C18.76 10.6 19 10.36 19 10C19 9.64 18.76 9.4 18.4 9.4ZM14.44 8.14C14.56 8.38 14.74 8.5 14.98 8.5C15.04 8.5 15.16 8.5 15.22 8.44L17.98 7.3C18.28 7.18 18.46 6.82 18.28 6.52C18.16 6.22 17.8 6.04 17.5 6.22L14.74 7.36C14.44 7.48 14.32 7.84 14.44 8.14ZM13.42 6.58C13.54 6.7 13.72 6.76 13.84 6.76C13.96 6.76 14.14 6.7 14.26 6.58L16.36 4.48C16.6 4.24 16.6 3.88 16.36 3.64C16.12 3.4 15.76 3.4 15.52 3.64L13.42 5.74C13.18 5.98 13.18 6.4 13.42 6.58ZM11.86 5.56C11.92 5.62 12.04 5.62 12.1 5.62C12.34 5.62 12.58 5.5 12.64 5.26L13.78 2.5C13.9 2.2 13.78 1.84 13.48 1.72C13.18 1.6 12.82 1.72 12.7 2.02L11.56 4.78C11.38 5.08 11.56 5.44 11.86 5.56Z" fill="#0171A1"/>
</svg>
