<svg width="16" height="16" viewBox="0 0 16 16" fill="none" xmlns="http://www.w3.org/2000/svg">
<path d="M7.99999 0.800049C11.4242 0.800049 14.2 3.56309 14.2 6.97148C14.2 9.92063 12.2005 12.6346 8.27737 15.1196C8.10813 15.2268 7.89184 15.2268 7.7226 15.1196C3.79944 12.6346 1.79999 9.92063 1.79999 6.97148C1.79999 3.56309 4.57582 0.800049 7.99999 0.800049ZM7.99999 1.82862C5.14652 1.82862 2.83332 4.13116 2.83332 6.97148C2.83332 9.36328 4.42435 11.6594 7.66991 13.8545L7.99999 14.0736L8.33006 13.8545C11.5756 11.6594 13.1667 9.36328 13.1667 6.97148C13.1667 4.13116 10.8535 1.82862 7.99999 1.82862ZM7.99999 5.42862C8.85603 5.42862 9.54999 6.11938 9.54999 6.97148C9.54999 7.82357 8.85603 8.51433 7.99999 8.51433C7.14395 8.51433 6.44999 7.82357 6.44999 6.97148C6.44999 6.11938 7.14395 5.42862 7.99999 5.42862Z" fill="#6D858F"/>
</svg>
