<svg width="13" height="18" viewBox="0 0 13 18" fill="none" xmlns="http://www.w3.org/2000/svg">
<path d="M10.1967 12.478C10.6037 12.8808 10.6037 13.5339 10.1967 13.9367L7.07018 17.0311C6.66318 17.434 6.00331 17.434 5.59631 17.0311L2.46976 13.9367C2.06276 13.5339 2.06276 12.8808 2.46976 12.478C2.87676 12.0752 3.53663 12.0752 3.94363 12.478L5.29107 13.8116L5.29107 6.51385L10.8094 0.972191C11.2152 0.564693 11.8731 0.564693 12.2789 0.972191C12.6847 1.37969 12.6847 2.04038 12.2789 2.44787L7.37544 7.37205V13.6422L7.59128 13.5979L8.72286 12.478C9.12986 12.0752 9.78974 12.0752 10.1967 12.478Z" fill="#4A4A4A"/>
<path d="M0.387589 0.972191C0.793374 0.564693 1.45128 0.564693 1.85707 0.972193L4.67618 3.8032L3.2067 5.27888L0.387589 2.44787C-0.0181961 2.04038 -0.0181961 1.37969 0.387589 0.972191Z" fill="#4A4A4A"/>
</svg>
