<svg width="14" height="18" viewBox="0 0 14 18" fill="none" xmlns="http://www.w3.org/2000/svg">
<path d="M3.13652 5.52202C2.72952 5.11921 2.72952 4.46611 3.13652 4.06329L6.26307 0.968861C6.67007 0.566044 7.32994 0.566044 7.73694 0.968861L10.8635 4.06329C11.2705 4.46611 11.2705 5.11921 10.8635 5.52202C10.4565 5.92484 9.79662 5.92484 9.38962 5.52202L8.04218 4.18843V11.4862L2.52382 17.0278C2.11803 17.4353 1.46012 17.4353 1.05434 17.0278C0.648553 16.6203 0.648554 15.9596 1.05434 15.5521L5.95782 10.628V4.35782L5.74197 4.40206L4.61039 5.52202C4.20339 5.92484 3.54351 5.92484 3.13652 5.52202Z" fill="#4A4A4A"/>
<path d="M12.9457 17.0278C12.5399 17.4353 11.882 17.4353 11.4762 17.0278L8.65707 14.1968L10.1266 12.7211L12.9457 15.5521C13.3514 15.9596 13.3514 16.6203 12.9457 17.0278Z" fill="#4A4A4A"/>
</svg>
