<svg width="83" height="63" viewBox="0 0 83 63" fill="none" xmlns="http://www.w3.org/2000/svg">
<path fill-rule="evenodd" clip-rule="evenodd" d="M61.8742 0.12247C56.853 0.860644 52.861 4.49269 51.7033 9.37655L51.4059 10.6319H13.8149L12.0267 6.9559C11.0434 4.93411 10.0611 3.10482 9.84375 2.8908C9.50847 2.56033 8.79352 2.50175 5.09964 2.50175H0.75V5.11967L8.14941 5.25167L11.8974 12.4964L14.4508 27.5844C15.8552 35.8827 17.0044 42.7687 17.0044 42.8866C17.0044 43.0045 16.7225 43.1707 16.3778 43.2558C15.3193 43.5177 13.8848 44.5452 13.1153 45.5923C10.9918 48.4816 11.3831 52.0639 14.0832 54.4571C15.5857 55.7883 16.5144 56.0707 19.923 56.2328L22.7199 56.3658L23.3713 57.5157C24.0538 58.7206 25.548 59.7919 27.0317 60.1403C27.4543 60.2396 21.7141 60.3316 14.2751 60.3453L0.75 60.3696V63H82.75V60.3696L59.5814 60.3651L60.8548 59.6453C64.7112 57.4655 64.595 52.178 60.6476 50.2392C58.9729 49.4166 57.5338 49.4104 55.8885 50.2186C54.6427 50.8305 53.6 51.9157 53.1587 53.0601L52.9219 53.6742H33.567L32.9782 52.5383C32.5954 51.7997 31.9879 51.1356 31.2407 50.639C28.4308 48.7719 24.9014 49.6246 23.3121 52.5546L22.7056 53.6727L20.2704 53.6735C18.2223 53.6742 17.6653 53.5886 16.7667 53.1362C15.4877 52.492 14.8244 51.6589 14.5978 50.4121C14.2475 48.4847 14.9814 47.0177 16.7584 46.0913L17.8087 45.544H40.2949C61.6112 45.544 62.8017 45.5217 63.175 45.115C63.4536 44.8118 64.0851 41.6279 65.3311 34.244L67.0929 23.8019L68.8309 22.9552C75.0187 19.9408 77.5391 12.9275 74.6201 6.84615C72.3845 2.18826 67.0315 -0.635551 61.8742 0.12247ZM33.6048 5.45086C33.5311 5.64001 33.5051 6.26436 33.5468 6.83849L33.6228 7.88203H36.264L36.2822 5.25167L35.0105 5.17922C34.0772 5.12613 33.7031 5.19835 33.6048 5.45086ZM39.0814 8.00159H41.75V5.13211H39.0814V8.00159ZM44.5171 5.46353C44.4461 5.64575 44.4223 6.26436 44.464 6.83849L44.5399 7.88203H47.2086L47.2275 6.80597C47.2379 6.21414 47.1989 5.59553 47.1409 5.43101C46.9897 5.0025 44.6853 5.0312 44.5171 5.46353ZM65.7137 5.50442C66.2484 5.87339 66.253 5.93269 66.253 12.3194V18.7621H63.5843V8.00159H60.9157V5.13211H63.045C64.5797 5.13211 65.3252 5.23613 65.7137 5.50442ZM25.4958 13.3221C25.496 13.3551 25.7144 15.9644 25.9808 19.1208C26.2471 22.2773 26.4655 25.2634 26.4657 25.7565L26.466 26.6532H16.8683L15.8404 20.1371C15.2749 16.5531 14.8142 13.5402 14.8166 13.4417C14.8205 13.2853 25.4951 13.1657 25.4958 13.3221ZM39.0814 26.6532H29.4199L29.2843 25.7565C29.2098 25.2634 28.9803 22.6001 28.7746 19.8382C28.5689 17.0763 28.3542 14.4668 28.2976 14.0395L28.1948 13.2623H39.0814V26.6532ZM51.8057 15.122C52.2382 16.989 52.1817 19.2392 51.5502 25.2783L51.4066 26.6532H41.75V13.2623H51.3748L51.8057 15.122ZM55.5968 21.0546C56.3591 21.8564 58.7963 23.1857 60.1879 23.5587C60.7883 23.7197 61.9346 23.9169 62.7352 23.997L64.1908 24.1424L64.1159 24.9794C63.9555 26.773 64.3264 26.6532 58.9314 26.6532H54.0687L54.2031 25.8761C54.2771 25.4488 54.4112 24.0499 54.5015 22.7675C54.5917 21.4851 54.7429 20.436 54.8372 20.436C54.9314 20.436 55.2732 20.7144 55.5968 21.0546ZM26.8153 30.539C26.9638 31.6456 27.9216 42.0863 27.9216 42.5987C27.9216 42.8469 27.0485 42.9136 23.8019 42.9136C19.7284 42.9136 19.6808 42.9076 19.5576 42.3756C19.3329 41.4062 17.4896 30.2848 17.4896 29.8991C17.4896 29.5698 18.0661 29.5227 22.0843 29.5227H26.6787L26.8153 30.539ZM39.0814 42.9136H30.6795L30.2569 37.354C30.0242 34.2963 29.7719 31.2834 29.6958 30.6585L29.5572 29.5227H39.0814V42.9136ZM51.1084 30.2999C51.0395 30.7272 50.8093 33.4981 50.597 36.4573C50.3845 39.4164 50.1608 42.0796 50.0999 42.3756C49.9905 42.9081 49.9473 42.9136 45.8697 42.9136H41.75V29.5227H51.2336L51.1084 30.2999ZM63.2219 30.0607C63.1086 30.5342 61.1583 42.5963 61.1583 42.8247C61.1583 42.8737 59.3024 42.9136 57.034 42.9136H52.9098L52.9119 42.1365C52.9129 41.7092 53.1293 38.7768 53.3925 35.6204C53.6558 32.4639 53.8731 29.8006 53.8756 29.7021C53.878 29.6035 56.0112 29.5227 58.6156 29.5227H63.3509L63.2219 30.0607ZM29.2906 52.6304C32.2516 54.0154 30.4308 58.5138 27.319 57.5014C26.1504 57.1214 25.4956 56.2266 25.4956 55.0104C25.4956 53.8311 26.0082 53.0269 27.0429 52.5831C28.0334 52.1581 28.2928 52.1636 29.2906 52.6304ZM59.9802 53.1094C61.5991 54.6381 60.709 57.2955 58.4591 57.6494C56.847 57.9031 55.132 56.1345 55.437 54.5326C55.5791 53.7859 56.5231 52.6897 57.2766 52.3968C57.9853 52.1213 59.3009 52.468 59.9802 53.1094ZM53.2657 57.2436C53.7759 58.3586 54.616 59.1778 55.9423 59.8538L56.9127 60.3486L42.7204 60.3512C28.6574 60.3541 28.5398 60.35 29.8149 59.916C31.278 59.4179 32.3627 58.5059 33.0434 57.2013L33.5114 56.3045H52.836L53.2657 57.2436Z" fill="#0171A1"/>
<path d="M75.75 12.5C75.75 19.4036 70.1536 25 63.25 25C56.3464 25 50.75 19.4036 50.75 12.5C50.75 5.59644 56.3464 0 63.25 0C70.1536 0 75.75 5.59644 75.75 12.5Z" fill="#0171A1"/>
</svg>
