<svg width="59" height="64" viewBox="0 0 59 64" fill="none" xmlns="http://www.w3.org/2000/svg">
<path fill-rule="evenodd" clip-rule="evenodd" d="M22.2358 0.279603C19.8269 1.05776 17.957 2.58095 16.8216 4.69035C16.1736 5.89346 16.075 6.40246 16.0744 8.54089C16.0738 11.2877 16.5178 12.4514 18.302 14.3806C21.3527 17.6797 27.0194 17.881 30.4944 14.8141C32.947 12.6491 33.9588 8.82156 32.9008 5.70948C32.2996 3.94178 30.3041 1.74695 28.4745 0.84092C26.7831 0.00361981 23.8947 -0.256236 22.2358 0.279603ZM16.4351 18.0814C14.6019 18.5847 13.031 19.6561 10.7449 21.9626C6.24042 26.507 2.06333 33.4524 0.678818 38.699C0.11352 40.841 0.105953 44.3532 0.663123 45.9505C1.24552 47.6208 2.41899 48.9361 4.0535 49.7518C5.29649 50.3717 5.72333 50.4311 8.783 50.4076C11.621 50.3859 12.6669 50.246 15.4802 49.5122C17.314 49.0339 18.8451 48.6757 18.8827 48.7165C18.9202 48.757 17.7616 50.1417 16.3079 51.793C12.4716 56.1509 11.1151 58.1848 10.9542 59.8205C10.6255 63.1634 13.8581 65.0154 17.235 63.4183C19.5562 62.3206 29.5877 50.6992 31.1362 47.3138C32.3823 44.5897 31.2671 41.5559 28.572 40.3383C27.3621 39.7915 26.8347 39.7548 20.2086 39.7548H13.1367L16.281 36.674L19.4253 33.5931L20.344 35.3734L21.2627 37.1537L23.4308 37.1592C27.6292 37.1696 29.9652 37.7306 32.1233 39.2467C32.7587 39.693 32.7603 39.691 32.4515 38.9036C32.2808 38.4682 30.9389 34.9701 29.4697 31.1299C26.1959 22.5721 25.4625 21.0257 24.141 19.8921C22.0561 18.1039 18.9841 17.3818 16.4351 18.0814ZM33.1648 34.0733C33.2741 34.337 33.4893 34.8912 33.6426 35.3055C33.915 36.0404 33.9747 36.0584 36.1364 36.0584H38.3511V39.57V43.0816L39.262 43.0928C39.7628 43.0991 40.4251 43.1153 40.7334 43.1292C41.5955 43.1675 43.3236 43.156 45.1476 43.0996L46.1986 43.0671V39.5629V36.0584H50.9631H55.7276V48.1059V60.1534H42.2748H28.822V58.4071C28.822 57.1382 28.699 56.5613 28.3722 56.2963C27.9838 55.9814 27.8131 56.0606 27.1186 56.879C26.4005 57.7248 26.3139 58.0361 26.3072 59.7917C26.3016 61.221 26.4199 61.8745 26.7399 62.1875C27.1295 62.5678 28.9263 62.6177 42.2748 62.6177C55.6233 62.6177 57.4201 62.5678 57.8097 62.1875C58.1981 61.8077 58.25 60.16 58.25 48.2053C58.25 39.3871 58.1485 34.4684 57.9599 34.1237C57.6797 33.6125 57.243 33.5942 45.318 33.5942C33.6653 33.5942 32.9773 33.6213 33.1648 34.0733ZM34.1555 45.2964C34.144 47.2298 33.4372 48.9041 31.5039 51.5767C30.6132 52.808 29.866 53.912 29.8436 54.03C29.8212 54.1483 30.2315 54.527 30.7553 54.8717C32.5919 56.0808 35.2247 55.5595 36.362 53.7617C37.2253 52.3976 37.1039 50.9784 35.8436 47.7007C34.3267 43.7554 34.1662 43.5265 34.1555 45.2964ZM8.12325 53.0205L4.94111 53.1714L4.08966 54.3211C1.85958 57.3327 3.4201 61.2445 6.8528 61.2475L8.00554 61.2486L8.14679 59.5294C8.32028 57.4181 9.12408 55.7824 10.8334 54.0612C11.5439 53.346 11.9408 52.7853 11.7151 52.8151C11.4898 52.8452 9.87351 52.9378 8.12325 53.0205Z" fill="#0171A1"/>
</svg>
