<svg width="61" height="62" viewBox="0 0 61 62" fill="none" xmlns="http://www.w3.org/2000/svg">
<path fill-rule="evenodd" clip-rule="evenodd" d="M27.0735 0.0322211C24.9291 0.33106 23.0691 1.90821 22.4905 3.91835C21.8762 6.05246 22.5619 8.32165 24.2452 9.72491C24.8139 10.1989 25.9082 10.7411 26.5804 10.8818C27.259 11.0238 28.2537 11.0238 28.9324 10.8818C29.6075 10.7404 30.7027 10.1969 31.2631 9.72491C32.1744 8.95753 32.7821 7.97761 33.0803 6.79442C33.288 5.97104 33.247 4.60103 32.992 3.84225C32.2523 1.64064 30.3405 0.155273 28.0599 0.0103048C27.7469 -0.00963304 27.303 0.000259647 27.0735 0.0322211ZM39.0991 10.3162C38.9739 10.3536 38.779 10.4618 38.6661 10.5567C38.4417 10.7452 35.501 15.5913 35.3567 16.0104C35.2963 16.1855 35.2676 16.9903 35.2676 18.5026C35.2676 19.731 35.2498 20.7362 35.2281 20.7362C35.1733 20.7362 28.347 14.4866 27.415 13.5832C26.3763 12.5764 25.8503 12.232 24.8627 11.912C23.0669 11.3301 20.8873 11.7539 19.4626 12.9621C18.5819 13.7091 17.8376 14.8833 17.5496 15.98C17.2673 17.0554 17.2755 17.1536 18.4835 27.0789L19.612 36.3514L17.7685 41.0811C16.7547 43.6823 15.8734 45.9219 15.8102 46.058L15.6954 46.3053L15.0682 46.3051C13.6162 46.3048 4.0816 46.6879 3.62948 46.7648C2.5264 46.9523 1.58932 47.6696 1.06968 48.7242C0.81483 49.2414 0.786077 49.3637 0.758687 50.0465C0.733877 50.6675 0.757321 50.8883 0.893206 51.3107C1.21292 52.3046 2.01996 53.159 2.99794 53.539C3.75497 53.8332 3.89412 53.8311 13.0754 53.385C13.91 53.3445 15.4122 53.2738 16.4137 53.2279C17.4152 53.1821 18.7721 53.1196 19.4291 53.0889C20.0861 53.0583 20.6535 53.0005 20.69 52.9606C20.7265 52.9206 21.9369 50.0675 23.3796 46.6203C24.8225 43.1731 26.0181 40.3374 26.0367 40.3188C26.0601 40.2953 35.3026 47.3451 35.6327 47.6382C35.6458 47.6498 36.1799 50.3473 36.8195 53.6326C38.0633 60.0206 38.0633 60.0203 38.6613 60.7523C39.6635 61.979 41.422 62.3499 42.9016 61.6466C44.096 61.0788 44.8963 59.7902 44.9056 58.4203C44.9069 58.2235 44.2181 54.7362 43.3749 50.6707L41.8418 43.2789L36.4968 39.2178C33.5572 36.9843 31.1226 35.1381 31.0868 35.1152C31.0178 35.0711 29.7007 24.3919 29.7572 24.3352C29.7754 24.3169 31.0228 25.3893 32.5289 26.7182L35.2676 29.1344L35.2692 31.5368C35.2711 34.2493 35.2914 34.3644 35.8414 34.7852L36.1283 35.0047L47.9148 35.0244C59.6274 35.044 59.7031 35.0432 60.003 34.8897C60.169 34.8048 60.3987 34.593 60.5135 34.419L60.7222 34.1027L60.7448 25.2315C60.7601 19.2703 60.7417 16.2712 60.6889 16.0884C60.5869 15.7356 57.7089 10.9546 57.4119 10.6447C57.2872 10.5146 57.0552 10.369 56.8964 10.3213C56.5418 10.2148 39.4551 10.2099 39.0991 10.3162ZM46.6482 14.0014V15.0288H42.8926C40.827 15.0288 39.137 15.0086 39.137 14.9839C39.137 14.9593 39.4014 14.497 39.7245 13.9566L40.3121 12.9741H43.4801H46.6482V14.0014ZM56.0937 13.659C56.3083 14.0147 56.5786 14.4684 56.6945 14.6673L56.9052 15.0288H53.1423H49.3795V14.0006V12.9724L52.5415 12.9923L55.7035 13.0121L56.0937 13.659ZM58.0102 25.0548L58.0296 32.3031H48.0124H37.9953L38.0161 31.0285L38.0369 29.7538H42.8547C47.9913 29.7538 47.9429 29.757 48.6954 29.3736C50.2813 28.5655 50.8524 26.4853 49.9003 24.9845C49.6228 24.547 49.1173 24.0714 48.7066 23.8612C47.969 23.4838 47.846 23.4757 42.8539 23.4757C39.3206 23.4757 38.1588 23.4534 38.09 23.3844C38.0225 23.3167 37.9989 22.5777 37.9989 20.5304V17.7678L47.9949 17.787L57.9909 17.8064L58.0102 25.0548Z" fill="#0171A1"/>
</svg>
