<svg width="69" height="64" viewBox="0 0 69 64" fill="none" xmlns="http://www.w3.org/2000/svg">
<path fill-rule="evenodd" clip-rule="evenodd" d="M31.6972 0.0426069C25.2958 0.527241 19.4753 2.88629 14.6909 6.93531C13.5086 7.93586 11.5669 9.92763 10.6884 11.041C7.27008 15.3732 5.29386 20.0059 4.47237 25.6126C4.30256 26.7714 4.27773 27.275 4.27773 29.5555C4.27773 31.8359 4.30256 32.3395 4.47237 33.4984C5.0937 37.7386 6.07794 40.5928 8.36154 44.7756L8.59861 45.2098L5.17482 48.9328C3.29171 50.9804 1.57645 52.9203 1.36319 53.2436C-0.739471 56.4316 0.231844 60.8852 3.4741 62.9223C6.17215 64.6174 9.58855 64.2879 11.8985 62.1098C12.1633 61.8601 13.6128 60.3058 15.1198 58.6558C16.6267 57.0058 18.0037 55.5059 18.1798 55.3228L18.5 54.9899L18.9976 55.2921C19.2713 55.4584 19.9193 55.8078 20.4377 56.0687C23.5006 57.6099 26.3554 58.489 29.9966 59.0122C31.3788 59.2108 35.8648 59.223 37.1817 59.0316L38.032 58.908L38.9249 59.4934C41.071 60.9001 43.5135 61.8568 46.11 62.3076C47.4115 62.5335 49.7835 62.6145 51.0961 62.4778C55.5327 62.0158 59.5523 60.0947 62.681 56.9408C69.7643 49.8005 70.1361 38.4237 63.5355 30.7945L62.9888 30.1627L62.9886 29.0662C62.988 27.0096 62.6465 24.3907 62.0967 22.2268C59.0059 10.0631 48.6646 1.23011 36.2039 0.110665C34.9483 -0.00213655 32.7309 -0.0356511 31.6972 0.0426069ZM35.0237 7.01271C39.5211 7.30191 43.6213 8.83227 47.2304 11.5688C48.3033 12.3823 50.2382 14.2776 51.1106 15.3696C52.9052 17.6159 54.3039 20.2707 55.1075 22.9554C55.4244 24.0144 55.7165 25.2575 55.6614 25.3131C55.6429 25.3319 55.2717 25.2347 54.8367 25.0972C51.8101 24.1407 48.557 23.9799 45.3434 24.628C42.4678 25.2079 39.3744 26.7078 37.0967 28.6266C33.082 32.0087 30.6974 36.6288 30.2466 41.8985C29.9794 45.0213 30.5398 48.2338 31.8825 51.2748L32.2945 52.208L31.5494 52.1474C29.8024 52.0054 27.5717 51.5081 25.8815 50.8838C18.0509 47.9916 12.5641 41.1352 11.3173 32.6841C11.1129 31.2983 11.1125 27.8779 11.3166 26.5293C11.9183 22.5542 13.3418 19.0896 15.6482 15.9879C16.5077 14.8318 18.508 12.7507 19.5802 11.8972C23.1304 9.07073 27.633 7.30671 32.0373 7.01665C33.4983 6.9204 33.5874 6.92031 35.0237 7.01271ZM51.1269 27.8431C55.1466 28.2823 59.0824 30.5556 61.6038 33.8945C64.4803 37.7036 65.4771 42.6462 64.3071 47.2977C62.9233 52.7991 58.5497 57.1949 53.0522 58.6098C51.309 59.0585 48.8145 59.1876 47.0029 58.923C41.3792 58.1016 36.619 54.2457 34.6418 48.91C32.237 42.4211 34.3284 35.097 39.7752 30.9326C43.0368 28.4389 46.9165 27.383 51.1269 27.8431ZM47.1632 34.9836C46.6725 35.1675 46.3506 35.4432 46.1581 35.8441C45.9806 36.2135 45.9792 36.2714 46.002 41.9647L46.025 47.7124L46.2801 48.0764C46.4204 48.2766 46.6883 48.521 46.8753 48.6195C47.2047 48.7929 47.3478 48.7994 51.382 48.8246C54.3435 48.8432 55.6469 48.8222 55.8887 48.752C56.6735 48.5242 57.1226 47.9094 57.1203 47.0662C57.1179 46.2462 56.6517 45.6369 55.8562 45.4142C55.6763 45.3638 54.2694 45.3278 52.4683 45.3276L49.388 45.3271L49.3646 40.6696L49.3412 36.0121L49.1062 35.6704C48.677 35.0461 47.8119 34.7403 47.1632 34.9836Z" fill="#0171A1"/>
</svg>
