<svg width="76" height="63" viewBox="0 0 76 63" fill="none" xmlns="http://www.w3.org/2000/svg">
<path fill-rule="evenodd" clip-rule="evenodd" d="M29.9853 2.20167C22.9148 3.42445 17.1168 4.43799 17.1007 4.45401C17.0845 4.47004 17.1105 5.15269 17.1585 5.97098C17.2064 6.78936 17.3526 9.4501 17.4833 11.8838C18.6871 34.3058 18.645 33.6194 18.8243 33.7861C18.9133 33.8689 20.3808 34.9196 22.0854 36.121C23.7899 37.3224 27.4667 39.919 30.256 41.891C33.0452 43.8631 35.3765 45.506 35.4366 45.5419C35.4966 45.578 37.2082 44.9963 39.2401 44.2495C41.272 43.5025 43.7797 42.5829 44.8127 42.2057C45.8458 41.8285 48.3392 40.9146 50.3537 40.1746C52.3682 39.4347 55.7069 38.2105 57.773 37.4542C59.8391 36.6979 61.5581 36.0534 61.593 36.022C61.6543 35.9666 61.7385 33.6693 62.1413 21.0597C62.2461 17.7806 62.3943 13.2145 62.4707 10.9127C62.5471 8.61094 62.6096 6.44971 62.6096 6.10997V5.49224L61.6939 5.25283C61.1904 5.1212 59.3202 4.62542 57.5382 4.15116C55.7562 3.6769 54.1925 3.29207 54.0634 3.29608C53.9342 3.29999 51.8845 3.70578 49.5085 4.19783C44.6835 5.19703 37.1991 6.74082 31.3829 7.93649C29.2652 8.37181 27.4589 8.74909 27.3691 8.7748C27.2154 8.81877 27.2094 9.1505 27.2671 14.405C27.3008 17.4759 27.3019 19.9884 27.2693 19.9884C27.1817 19.9884 24.5382 18.7772 24.4611 18.7018C24.4248 18.6662 24.3492 17.5263 24.2932 16.1687C24.1011 11.5145 23.9378 7.1794 23.9537 7.16087C23.9752 7.13599 25.3145 6.85438 27.8142 6.34928C28.9505 6.11965 34.0431 5.08925 39.1309 4.0594C44.2187 3.02965 48.7196 2.11923 49.1328 2.03632C49.5461 1.95332 49.9156 1.85904 49.954 1.82681C50.0091 1.78051 43.541 0.0859952 42.9814 0.000104869C42.9039 -0.011726 37.0557 0.978994 29.9853 2.20167ZM60.2607 9.29872C60.2601 9.51652 60.1985 12.1679 60.1239 15.1909C60.0491 18.2138 59.9402 22.9089 59.8817 25.6244C59.8233 28.3399 59.7475 31.3733 59.7134 32.3651L59.6513 34.1685L48.9052 38.0236C42.9948 40.144 38.1495 41.8687 38.1379 41.8562C38.0875 41.8023 37.9579 14.3454 38.0078 14.2812C38.0575 14.2171 39.4404 13.8737 44.2962 12.7197C45.1485 12.5172 47.6842 11.9104 49.9311 11.3714C52.178 10.8324 55.1786 10.1148 56.5991 9.7768C58.0195 9.43882 59.393 9.10765 59.6513 9.04095C59.9095 8.97425 60.1525 8.91594 60.1913 8.91128C60.2301 8.90662 60.2613 9.08092 60.2607 9.29872ZM53.0762 14.3255C52.8767 14.7502 52.2554 16.0573 51.6955 17.2302C51.1357 18.403 50.6917 19.3766 50.709 19.3938C50.7264 19.411 51.0673 19.3369 51.4666 19.2292C51.8659 19.1215 52.213 19.0536 52.2379 19.0783C52.2628 19.103 52.2132 21.5201 52.1278 24.4497C52.0422 27.3793 52.0001 29.8038 52.0341 29.8375C52.0809 29.884 54.0598 29.3488 54.1228 29.2726C54.1297 29.2643 54.2142 26.829 54.3106 23.861L54.486 18.4643L55.2608 18.2841C55.687 18.185 56.0342 18.0772 56.0324 18.0447C56.0207 17.8303 53.7034 13.6038 53.585 13.5811C53.4833 13.5617 53.3289 13.7876 53.0762 14.3255ZM45.7074 16.2855C45.5603 16.6057 44.9085 17.9757 44.259 19.33C43.6095 20.6842 43.0971 21.811 43.1203 21.8341C43.1435 21.8571 43.4368 21.8075 43.7721 21.724C44.1074 21.6405 44.4403 21.5721 44.5118 21.5721C44.6214 21.5721 44.6347 22.4148 44.5968 26.9752C44.5619 31.1881 44.5772 32.3783 44.6665 32.3783C44.7762 32.3783 46.9379 31.746 46.9814 31.7013C46.993 31.6894 47.0282 30.2124 47.0596 28.4191C47.0909 26.6258 47.1417 24.1896 47.1723 23.0052L47.2278 20.8517L48.021 20.6866C48.6751 20.5504 48.8041 20.4952 48.7565 20.3714C48.622 20.0216 46.1208 15.7075 46.0512 15.7055C46.0092 15.7043 45.8545 15.9653 45.7074 16.2855ZM12.4591 28.6586C11.0903 29.1147 9.95413 29.4884 9.93422 29.4891C9.8573 29.4918 10.435 29.8896 12.9075 31.5368C14.3163 32.4753 15.4871 33.2252 15.5093 33.2032C15.5314 33.1812 15.4893 32.0748 15.4156 30.7446C15.3419 29.4143 15.2805 28.2106 15.2791 28.0698C15.2773 27.8858 15.2303 27.8158 15.1122 27.8215C15.0218 27.8258 13.8279 28.2025 12.4591 28.6586ZM3.87578 31.4543C2.17658 32.0115 0.770672 32.4831 0.751419 32.5022C0.718361 32.5349 1.2733 38.4601 1.31209 38.4882C1.32205 38.4955 3.27425 39.9817 5.6503 41.7911C8.02634 43.6004 10.9635 45.8361 12.1774 46.7595C15.7033 49.4417 30.8894 61.0104 32.2145 62.0238C32.8784 62.5315 33.4833 62.9704 33.5588 62.9991C33.6341 63.0278 35.2137 62.3664 37.0689 61.5293L40.4421 60.0073L40.4673 58.1007L40.4927 56.1943L46.5597 53.5241C49.8965 52.0554 52.6971 50.827 52.7832 50.7943C52.9272 50.7394 52.9346 50.8791 52.8763 52.549C52.8414 53.5468 52.8331 54.3632 52.8577 54.3632C52.9119 54.3632 57.8721 52.1215 58.4735 51.8252L58.9 51.6151L58.9784 49.8451C59.0215 48.8716 59.0849 48.0488 59.1193 48.0166C59.2321 47.9108 70.05 43.1743 70.0893 43.2134C70.1106 43.2344 70.067 44.0015 69.9926 44.9181C69.9182 45.8347 69.8733 46.6007 69.8929 46.6202C69.9352 46.6626 74.9409 44.4187 75.1418 44.2673C75.2495 44.1861 75.3372 43.4765 75.5324 41.1093C75.6708 39.4299 75.7675 38.0425 75.7473 38.0261C75.7272 38.0098 74.6119 37.4395 73.2689 36.7586C71.9259 36.0778 70.32 35.2595 69.7002 34.9402C66.0904 33.0803 65.034 32.5507 65.0005 32.584C64.9588 32.6254 64.772 35.9782 64.7706 36.7108L64.7696 37.1773L67.5166 38.7992L70.2636 40.421L69.5123 40.761C69.0991 40.9481 68.522 41.1986 68.2299 41.3178L67.6988 41.5345L65.3186 40.2494C64.0094 39.5426 62.896 38.9644 62.8444 38.9646C62.746 38.965 57.5808 40.9167 57.3697 41.0332C57.2922 41.0761 58.0829 41.6332 59.5532 42.5715C60.821 43.3807 61.8583 44.054 61.8583 44.0679C61.8583 44.0817 61.2491 44.3533 60.5045 44.6716L59.1506 45.25L56.73 43.6815C55.3985 42.8189 54.2645 42.1259 54.2098 42.1415C53.832 42.2496 47.7718 44.6325 47.7746 44.6719C47.7766 44.6992 48.9364 45.4342 50.3518 46.3052C51.7674 47.1762 52.8963 47.917 52.8605 47.9513C52.7695 48.0388 50.227 49.1464 50.1172 49.1464C50.0677 49.1464 48.7995 48.3694 47.299 47.4199C45.7983 46.4702 44.5328 45.7163 44.4868 45.7445C44.4408 45.7728 42.9392 46.2975 41.1501 46.9107C39.3609 47.5238 37.8566 48.0504 37.8071 48.0807C37.7575 48.111 37.8555 48.2286 38.0248 48.3419C38.1941 48.4552 39.4842 49.3177 40.8918 50.2584C42.2994 51.199 43.4505 51.994 43.45 52.0248C43.4495 52.0556 42.7717 52.3698 41.9439 52.723L40.4389 53.3651L40.0431 53.0849C38.6365 52.0888 7.13462 30.4867 7.05902 30.4664C7.00736 30.4525 5.57488 30.8971 3.87578 31.4543ZM49.2737 33.0644L42.1831 35.4105L42.1564 36.363C42.1396 36.9626 42.1649 37.3156 42.2249 37.3156C42.2773 37.3156 42.4795 37.2541 42.6743 37.179C42.869 37.1039 44.2962 36.5971 45.8458 36.0529C47.3954 35.5086 50.2692 34.4981 52.232 33.8074C54.1948 33.1166 55.9381 32.5041 56.106 32.4462C56.3845 32.3501 56.4112 32.3068 56.4112 31.9534C56.4112 31.7402 56.4381 31.3713 56.471 31.1337C56.5038 30.896 56.4932 30.7052 56.4475 30.7098C56.4017 30.7144 53.1735 31.7739 49.2737 33.0644ZM8.22544 37.9657C10.6747 39.7554 12.7305 41.2741 12.7936 41.3404C12.8943 41.4461 13.2285 44.9302 13.1483 45.0376C13.1332 45.0577 12.7924 44.8238 12.3909 44.5178C11.9894 44.2117 9.99151 42.712 7.95121 41.185C5.91091 39.658 4.18588 38.3574 4.11779 38.2949C4.03872 38.2222 3.94574 37.6625 3.86066 36.7469C3.7874 35.9581 3.70382 35.1765 3.67499 35.0099C3.64615 34.8434 3.6562 34.7081 3.69734 34.7093C3.73838 34.7105 5.77605 36.1759 8.22544 37.9657ZM22.0384 48.038C24.0787 49.5274 26.5551 51.3318 27.5414 52.0479L29.3348 53.3498L29.3989 55.2667C29.4343 56.321 29.4445 57.202 29.4218 57.2245C29.3794 57.2666 18.5627 49.1796 18.4594 49.0286C18.428 48.9827 18.3736 48.3301 18.3386 47.5785C18.3037 46.8269 18.2501 46.0128 18.2194 45.7695C18.1888 45.5262 18.2009 45.3277 18.2462 45.3285C18.2917 45.3293 19.9981 46.5487 22.0384 48.038Z" fill="#0171A1"/>
</svg>
