<svg width="72" height="63" viewBox="0 0 72 63" fill="none" xmlns="http://www.w3.org/2000/svg">
<path fill-rule="evenodd" clip-rule="evenodd" d="M20.6584 0.210383C19.2515 0.621395 17.7358 1.7871 16.8172 3.16427C14.2156 7.06479 15.8763 12.3649 20.2246 14.0404C21.7277 14.6196 24.5391 14.4939 25.9967 13.7822C29.1294 12.2533 30.7113 8.58979 29.7221 5.15624C29.2228 3.42376 27.6318 1.4727 26.0556 0.66071C24.8162 0.0221502 22.0828 -0.205908 20.6584 0.210383ZM50.8361 14.4807L48.7003 15.2821L49.2008 16.7493C49.7602 18.3902 49.8139 18.7632 49.4575 18.5412C49.3235 18.4575 49.1401 18.51 49.0496 18.6576C48.9593 18.8052 48.6215 18.9258 48.2989 18.9258C47.9763 18.9258 47.6008 19.0293 47.464 19.1557C47.3274 19.2822 46.9012 19.4601 46.5174 19.5512C45.8753 19.7037 45.7827 19.6166 45.3622 18.4633C45.1108 17.7741 44.8219 17.1123 44.7204 16.9932C44.4318 16.6545 40.1644 18.2656 40.0686 18.7492C40.0233 18.9783 40.4168 20.3887 40.943 21.8836C44.3897 31.6743 44.5713 32.1246 45.0775 32.1246C45.3507 32.1246 47.9452 31.2783 50.8429 30.2438C53.7406 29.2093 56.6117 28.1885 57.2234 27.9752C58.0324 27.693 58.3354 27.4435 58.3354 27.06C58.3354 26.7699 57.618 24.4944 56.7414 22.0032C55.8647 19.5121 54.9063 16.7612 54.6116 15.8901C54.0232 14.1505 53.7134 13.6378 53.2668 13.6629C53.1043 13.6721 52.0106 14.0401 50.8361 14.4807ZM15.1638 14.7077C12.8574 15.1148 10.7773 16.9272 9.22185 19.8854C7.39452 23.3601 5.03028 31.8472 5.33693 33.8307C5.42772 34.4168 5.96854 37.1196 6.53893 39.837C7.10931 42.5541 7.57609 44.9352 7.57609 45.1279C7.57609 45.3203 6.15481 47.5517 4.41775 50.0864C0.798136 55.3675 0.25 56.3384 0.25 57.4691C0.25 58.479 0.843947 59.6775 1.61502 60.2221C2.39001 60.7698 4.29924 60.7458 5.25503 60.1761C6.62998 59.3565 15.0066 49.7274 15.6084 48.2745C15.87 47.6428 16.0186 45.6572 16.123 41.405C16.2667 35.5439 16.2881 35.361 17.1913 32.2566C17.6984 30.5144 18.1906 28.9398 18.2853 28.7574C18.3954 28.5449 18.7816 28.9181 19.3614 29.7971C19.8588 30.5516 20.5603 31.3773 20.92 31.6323C21.5671 32.0909 31.743 34.5004 33.0327 34.5004C33.4 34.5004 34.0497 34.2042 34.4762 33.8421C36.0631 32.495 35.696 29.9645 33.7922 29.1266C32.8739 28.7222 25.8751 26.0532 25.7333 26.0532C25.6964 26.0532 25.1707 25.1327 24.565 24.0074C20.9687 17.3258 20.0257 15.894 18.7651 15.2011C18.0205 14.7919 16.1439 14.5348 15.1638 14.7077ZM36.0052 22.3124C35.7671 22.5779 35.5722 23.0531 35.5722 23.3683C35.5722 23.6834 35.4584 23.9414 35.3192 23.9414C34.9921 23.9414 33.2174 25.7287 33.2174 26.0585C33.2174 26.1968 33.6491 26.4919 34.1766 26.7144C35.0895 27.0993 35.1656 27.0906 35.7499 26.5368C36.1162 26.1897 36.4511 26.0545 36.5795 26.2018C36.8009 26.4557 40.0273 35.5305 40.0228 35.8863C40.0163 36.3984 38.6034 36.0154 37.9069 35.3127L37.1421 34.5411L36.3571 35.333C35.416 36.2826 35.4071 36.3636 36.1646 37.0816C37.0571 37.9276 38.6505 38.505 39.8517 38.4173L40.9242 38.3392L41.6304 40.3135C43.2337 44.7968 45.7764 52.1359 45.7764 52.2811C45.7764 52.3672 45.3936 52.6325 44.926 52.8708C42.942 53.8826 41.8517 55.6054 41.8517 57.7283C41.8517 59.489 42.3227 60.5531 43.6275 61.741C44.8211 62.8278 45.9242 63.1387 47.9038 62.9468C49.3913 62.8027 50.2683 62.2439 51.4018 60.7183C52.1454 59.7173 52.4685 59.5605 57.5505 57.7338C60.5005 56.6734 63.1272 55.6962 63.3873 55.5626C63.7256 55.3889 63.8376 55.0798 63.7797 54.4792C63.7143 53.7969 63.5715 53.6237 63.0207 53.5593C62.6476 53.5155 60.1939 54.258 57.568 55.2091C54.9424 56.1603 52.6961 56.9385 52.5766 56.9385C52.457 56.9385 52.284 56.594 52.1925 56.1729C51.9764 55.1801 50.626 53.6303 49.3385 52.8975C48.3759 52.3498 48.255 52.1291 47.0723 48.7552C46.385 46.7952 44.7976 42.2811 43.5448 38.7241C42.2918 35.167 40.5108 30.059 39.5872 27.3731C37.6936 21.8665 37.1253 21.0635 36.0052 22.3124ZM60.6081 29.8653C58.9079 30.4975 57.4652 31.0669 57.4021 31.1305C57.3391 31.1941 57.5235 31.9385 57.8121 32.7846C58.1007 33.6306 58.3072 34.3373 58.2708 34.3545C58.2344 34.3719 57.8514 34.5443 57.4196 34.738C56.9879 34.9315 56.4304 35.1949 56.1805 35.3232C55.9306 35.4515 55.5125 35.5563 55.2516 35.5563C54.9905 35.5563 54.6488 35.6857 54.4921 35.8438C54.2867 36.051 54.0473 35.6461 53.6336 34.3919C53.3181 33.4353 53.0206 32.6526 52.9727 32.6526C52.4738 32.6526 46.0456 35.1556 45.959 35.3834C45.8954 35.5511 47.2879 39.7866 49.0535 44.7955C51.3497 51.3099 52.3861 53.9276 52.6933 53.9901C53.064 54.0653 55.7919 53.1248 68.8585 48.4162C70.1134 47.964 71.1888 47.4662 71.2482 47.3099C71.3076 47.1536 69.9153 42.9305 68.1539 37.9253C65.2005 29.5316 64.9033 28.8207 64.3255 28.7703C63.9809 28.7402 62.3082 29.233 60.6081 29.8653ZM18.7541 38.0937C18.2662 38.5858 19.5197 58.0023 20.1722 60.0605C20.69 61.6943 22.8931 62.4397 24.5883 61.5554C26.0857 60.774 26.121 60.4459 25.6139 52.0549C25.2675 46.3253 25.1642 45.9866 22.8719 43.0797C22.0705 42.0634 20.8512 40.4903 20.1623 39.5841C19.4734 38.6781 18.8397 38.0074 18.7541 38.0937ZM48.4682 55.113C49.7979 55.7244 50.3549 57.7834 49.5925 59.2707C48.7361 60.9417 46.3999 61.2225 45.0116 59.8219C43.65 58.4481 43.9729 56.0613 45.6456 55.1331C46.3214 54.758 47.6752 54.7485 48.4682 55.113Z" fill="#0171A1"/>
</svg>
