<svg width="24" height="24" viewBox="0 0 24 24" fill="none" xmlns="http://www.w3.org/2000/svg">
<path d="M20.0667 7.625C21.6867 7.625 23 8.93084 23 10.5417V17.8333C23 19.4442 21.6867 20.75 20.0667 20.75H6.86667C5.24663 20.75 3.93333 19.4442 3.93333 17.8333V16.375C2.3133 16.375 1 15.0692 1 13.4583V6.16667C1 4.55584 2.3133 3.25 3.93333 3.25H17.1333C18.7534 3.25 20.0667 4.55584 20.0667 6.16667V7.625ZM20.0667 9.08333V13.4583C20.0667 15.0692 18.7534 16.375 17.1333 16.375H5.4V17.8333C5.4 18.6387 6.05665 19.2917 6.86667 19.2917H20.0667C20.8767 19.2917 21.5333 18.6387 21.5333 17.8333V10.5417C21.5333 9.73625 20.8767 9.08333 20.0667 9.08333ZM18.6 6.16667C18.6 5.36125 17.9434 4.70833 17.1333 4.70833H3.93333C3.12332 4.70833 2.46667 5.36125 2.46667 6.16667H18.6ZM18.6 10.5417H2.46667V13.4583C2.46667 14.2637 3.12332 14.9167 3.93333 14.9167H17.1333C17.9434 14.9167 18.6 14.2637 18.6 13.4583V10.5417ZM2.46667 7.625V9.08333H18.6V7.625H2.46667Z" fill="#0171A1"/>
</svg>
