<svg width="20" height="14" viewBox="0 0 20 14" fill="none" xmlns="http://www.w3.org/2000/svg">
<path fill-rule="evenodd" clip-rule="evenodd" d="M8.80651 0.75H3.26319C2.98704 0.75 2.76319 0.973858 2.76319 1.25V2.45587C2.76319 2.73201 2.98704 2.95587 3.26319 2.95587H8.80651C9.08265 2.95587 9.30651 2.73201 9.30651 2.45587V1.25C9.30651 0.973858 9.08265 0.75 8.80651 0.75ZM10.7214 4.92646C10.7214 4.65031 10.4976 4.42646 10.2214 4.42646H1.80902C1.53287 4.42646 1.30902 4.65031 1.30902 4.92646V6.13233C1.30902 6.40847 1.53287 6.63233 1.80902 6.63233H10.2214C10.4976 6.63233 10.7214 6.40847 10.7214 6.13233V4.92646ZM14.6855 5.36547L12.5771 8.06747H0.500262C0.173128 8.06747 -0.0658836 8.37643 0.0162948 8.69308L1.10178 12.8756C1.159 13.0961 1.35798 13.25 1.58575 13.25H17.024C17.2349 13.25 17.4231 13.1177 17.4945 12.9192L19.9703 6.03467C20.0874 5.70887 19.846 5.36547 19.4998 5.36547H14.6855ZM4.21725 10.3089C4.21725 10.715 3.89175 11.0442 3.49021 11.0442C3.08868 11.0442 2.76318 10.715 2.76318 10.3089C2.76318 9.90282 3.08868 9.57362 3.49021 9.57362C3.89175 9.57362 4.21725 9.90282 4.21725 10.3089ZM7.85264 11.0442C8.25417 11.0442 8.57968 10.715 8.57968 10.3089C8.57968 9.90282 8.25417 9.57362 7.85264 9.57362C7.45111 9.57362 7.12561 9.90282 7.12561 10.3089C7.12561 10.715 7.45111 11.0442 7.85264 11.0442ZM12.9417 10.3089C12.9417 10.715 12.6162 11.0442 12.2147 11.0442C11.8132 11.0442 11.4877 10.715 11.4877 10.3089C11.4877 9.90282 11.8132 9.57362 12.2147 9.57362C12.6162 9.57362 12.9417 9.90282 12.9417 10.3089Z" fill="#819FB2"/>
</svg>
