<svg width="20" height="20" viewBox="0 0 20 20" fill="none" xmlns="http://www.w3.org/2000/svg">
<path fill-rule="evenodd" clip-rule="evenodd" d="M3 5C3 5.55228 2.55228 6 2 6C1.44772 6 1 5.55228 1 5C1 4.44772 1.44772 4 2 4C2.55228 4 3 4.44772 3 5ZM3 10C3 10.5523 2.55228 11 2 11C1.44772 11 1 10.5523 1 10C1 9.44772 1.44772 9 2 9C2.55228 9 3 9.44772 3 10ZM2 16C2.55228 16 3 15.5523 3 15C3 14.4477 2.55228 14 2 14C1.44772 14 1 14.4477 1 15C1 15.5523 1.44772 16 2 16ZM6 4C5.44772 4 5 4.44772 5 5C5 5.55228 5.44772 6 6 6H18C18.5523 6 19 5.55228 19 5C19 4.44772 18.5523 4 18 4H6ZM5 10C5 9.44772 5.44772 9 6 9H18C18.5523 9 19 9.44772 19 10C19 10.5523 18.5523 11 18 11H6C5.44772 11 5 10.5523 5 10ZM6 14C5.44772 14 5 14.4477 5 15C5 15.5523 5.44772 16 6 16H14C14.5523 16 15 15.5523 15 15C15 14.4477 14.5523 14 14 14H6Z" fill="#0171A1"/>
</svg>
