<svg width="10" height="10" viewBox="0 0 10 10" fill="none" xmlns="http://www.w3.org/2000/svg">
<path fill-rule="evenodd" clip-rule="evenodd" d="M5.79922 1.00001C5.79922 0.558184 5.44105 0.200012 4.99922 0.200012C4.55739 0.200012 4.19922 0.558184 4.19922 1.00001V4.20001H0.999219C0.557391 4.20001 0.199219 4.55818 0.199219 5.00001C0.199219 5.44184 0.557391 5.80001 0.999219 5.80001H4.19922V9.00001C4.19922 9.44184 4.55739 9.80001 4.99922 9.80001C5.44105 9.80001 5.79922 9.44184 5.79922 9.00001V5.80001H8.99922C9.44105 5.80001 9.79922 5.44184 9.79922 5.00001C9.79922 4.55818 9.44105 4.20001 8.99922 4.20001H5.79922V1.00001Z" fill="#0171A1"/>
</svg>