<svg width="16" height="16" viewBox="0 0 16 16" fill="none" xmlns="http://www.w3.org/2000/svg">
<path d="M10.9981 1C11.9919 1 12.7975 1.7835 12.7975 2.75L12.7971 3.33567L13.3972 3.33611C14.8323 3.33748 15.9952 4.46793 15.9974 5.86301L16 10.5275C16.0015 11.4936 15.1963 12.2779 14.2022 12.2785L12.7955 12.2778V13.25C12.7955 14.2165 11.9899 15 10.9961 15H4.99823C4.00447 15 3.19887 14.2165 3.19887 13.25L3.19959 12.2778L1.79936 12.2778C0.805602 12.2778 0 11.4943 0 10.5278V5.86389C0 4.46784 1.16365 3.33611 2.59908 3.33611L3.19807 3.33567L3.19887 2.75C3.19887 1.7835 4.00447 1 4.99823 1H10.9981ZM10.9961 9.16667H4.99823C4.66697 9.16667 4.39844 9.42783 4.39844 9.75V13.25C4.39844 13.5722 4.66697 13.8333 4.99823 13.8333H10.9961C11.3274 13.8333 11.5959 13.5722 11.5959 13.25V9.75C11.5959 9.42783 11.3274 9.16667 10.9961 9.16667ZM14.687 11.3523L14.6583 11.3303L14.728 11.4391L14.7684 11.5062L14.7478 11.4541L14.7199 11.4014L14.687 11.3523ZM13.3967 4.50278H2.59908C1.82615 4.50278 1.19957 5.11217 1.19957 5.86389V10.5278C1.19957 10.85 1.46811 11.1112 1.79936 11.1112L3.19887 11.1111V9.75C3.19887 8.7835 4.00447 8 4.99823 8H10.9961C11.9899 8 12.7955 8.7835 12.7955 9.75L12.7962 11.1112L14.2211 11.1115C14.5433 11.1013 14.8009 10.8441 14.8004 10.5287L14.7978 5.86421C14.7967 5.1129 14.1697 4.50352 13.3967 4.50278ZM10.9981 2.16667H4.99823C4.66697 2.16667 4.39844 2.42783 4.39844 2.75L4.39764 3.33567H11.5975L11.5979 2.75C11.5979 2.42783 11.3293 2.16667 10.9981 2.16667Z" fill="#212121"/>
</svg>
