<svg width="12" height="12" viewBox="0 0 12 12" fill="none" xmlns="http://www.w3.org/2000/svg">
<path d="M8.24857 0.75C8.99389 0.75 9.59809 1.33763 9.59809 2.0625L9.59779 2.50175L10.0479 2.50209C11.1242 2.50311 11.9964 3.35095 11.998 4.39725L12 7.89563C12.0011 8.62023 11.3972 9.20845 10.6517 9.20884L9.59659 9.20833V9.9375C9.59659 10.6624 8.99239 11.25 8.24707 11.25H3.74867C3.00335 11.25 2.39915 10.6624 2.39915 9.9375L2.39969 9.20836L1.34952 9.20837C0.604201 9.20837 0 8.62074 0 7.89587V4.39792C0 3.35088 0.872735 2.50209 1.94931 2.50209L2.39855 2.50175L2.39915 2.0625C2.39915 1.33763 3.00335 0.75 3.74867 0.75H8.24857ZM8.24707 6.875H3.74867C3.50023 6.875 3.29883 7.07088 3.29883 7.3125V9.9375C3.29883 10.1791 3.50023 10.375 3.74867 10.375H8.24707C8.49551 10.375 8.69691 10.1791 8.69691 9.9375V7.3125C8.69691 7.07088 8.49551 6.875 8.24707 6.875ZM11.0153 8.51419L10.9937 8.49771L11.046 8.57933L11.0763 8.62967L11.0608 8.59054L11.0399 8.55104L11.0153 8.51419ZM10.0475 3.37709H1.94931C1.36961 3.37709 0.899681 3.83413 0.899681 4.39792V7.89587C0.899681 8.13749 1.10108 8.33337 1.34952 8.33337L2.39915 8.33333V7.3125C2.39915 6.58763 3.00335 6 3.74867 6H8.24707C8.99239 6 9.59659 6.58763 9.59659 7.3125L9.59712 8.33337L10.6658 8.33361C10.9074 8.32597 11.1007 8.1331 11.1003 7.89653L11.0984 4.39816C11.0975 3.83467 10.6273 3.37764 10.0475 3.37709ZM8.24857 1.625H3.74867C3.50023 1.625 3.29883 1.82088 3.29883 2.0625L3.29823 2.50175H8.69811L8.69841 2.0625C8.69841 1.82088 8.49701 1.625 8.24857 1.625Z" fill="#4A4A4A"/>
</svg>
