<svg width="44" height="44" viewBox="0 0 44 44" fill="none" xmlns="http://www.w3.org/2000/svg">
<path d="M22.0004 0.399902C21.1364 0.399902 20.5604 0.975902 20.5604 1.8399V9.0399C20.5604 9.9039 21.1364 10.4799 22.0004 10.4799C22.8644 10.4799 23.4404 9.9039 23.4404 9.0399V1.8399C23.4404 0.975902 22.8644 0.399902 22.0004 0.399902ZM15.6644 2.8479C15.3764 2.1279 14.5124 1.6959 13.7924 2.1279C12.9284 2.4159 12.6404 3.1359 12.9284 3.8559L15.6644 10.4799C15.9524 11.0559 16.3844 11.3439 16.9604 11.3439C17.1044 11.3439 17.3924 11.3439 17.5364 11.1999C18.2564 10.9119 18.6884 10.0479 18.2564 9.3279L15.6644 2.8479ZM11.7764 13.7919C12.0644 14.0799 12.4964 14.2239 12.7844 14.2239C13.0724 14.2239 13.5044 14.0799 13.7924 13.7919C14.3684 13.2159 14.3684 12.3519 13.7924 11.7759L8.75239 6.7359C8.17639 6.1599 7.31239 6.1599 6.73639 6.7359C6.16039 7.3119 6.16039 8.1759 6.73639 8.7519L11.7764 13.7919ZM2.84839 15.6639L9.47239 18.3999C9.61639 18.5439 9.90439 18.5439 10.0484 18.5439C10.6244 18.5439 11.2004 18.2559 11.3444 17.6799C11.6324 16.9599 11.3444 16.0959 10.6244 15.8079L3.85639 12.9279C3.13639 12.6399 2.27239 12.9279 1.98439 13.6479C1.69639 14.5119 2.12839 15.3759 2.84839 15.6639ZM10.4804 21.9999C10.4804 21.1359 9.90439 20.5599 9.04039 20.5599H1.84039C0.976391 20.5599 0.400391 21.1359 0.400391 21.9999C0.400391 22.8639 0.976391 23.4399 1.84039 23.4399H9.04039C9.90439 23.4399 10.4804 22.8639 10.4804 21.9999ZM11.3444 26.4639C11.0564 25.7439 10.1924 25.3119 9.47239 25.7439L2.84839 28.4799C2.12839 28.7679 1.69639 29.6319 2.12839 30.3519C2.41639 30.9279 2.84839 31.2159 3.42439 31.2159C3.56839 31.2159 3.85639 31.2159 4.00039 31.0719L10.6244 28.3359C11.3444 28.0479 11.6324 27.1839 11.3444 26.4639ZM13.7924 30.2079C13.2164 29.6319 12.3524 29.6319 11.7764 30.2079L6.73639 35.2479C6.16039 35.8239 6.16039 36.6879 6.73639 37.2639C7.02439 37.5519 7.45639 37.6959 7.74439 37.6959C8.03239 37.6959 8.46439 37.5519 8.75239 37.2639L13.7924 32.2239C14.3684 31.6479 14.3684 30.6399 13.7924 30.2079ZM17.5364 32.6559C16.8164 32.3679 15.9524 32.6559 15.6644 33.3759L12.9284 39.9999C12.6404 40.7199 12.9284 41.5839 13.6484 41.8719C13.7924 42.0159 14.0804 42.0159 14.2244 42.0159C14.8004 42.0159 15.3764 41.7279 15.5204 41.1519L18.2564 34.5279C18.6884 33.8079 18.2564 32.9439 17.5364 32.6559ZM22.0004 33.5199C21.1364 33.5199 20.5604 34.0959 20.5604 34.9599V42.1599C20.5604 43.0239 21.1364 43.5999 22.0004 43.5999C22.8644 43.5999 23.4404 43.0239 23.4404 42.1599V34.9599C23.4404 34.0959 22.8644 33.5199 22.0004 33.5199ZM28.3364 33.3759C28.0484 32.6559 27.1844 32.2239 26.4644 32.6559C25.7444 32.9439 25.3124 33.8079 25.7444 34.5279L28.4804 41.1519C28.7684 41.7279 29.2004 42.0159 29.7764 42.0159C29.9204 42.0159 30.2084 42.0159 30.3524 41.8719C31.0724 41.5839 31.5044 40.7199 31.0724 39.9999L28.3364 33.3759ZM32.2244 30.2079C31.6484 29.6319 30.7844 29.6319 30.2084 30.2079C29.6324 30.7839 29.6324 31.6479 30.2084 32.2239L35.2484 37.2639C35.5364 37.5519 35.9684 37.6959 36.2564 37.6959C36.5444 37.6959 36.9764 37.5519 37.2644 37.2639C37.8404 36.6879 37.8404 35.8239 37.2644 35.2479L32.2244 30.2079ZM41.1524 28.3359L34.5284 25.5999C33.8084 25.3119 32.9444 25.5999 32.6564 26.3199C32.3684 27.0399 32.6564 27.9039 33.3764 28.1919L40.0004 30.9279C40.1444 31.0719 40.4324 31.0719 40.5764 31.0719C41.1524 31.0719 41.7284 30.7839 41.8724 30.2079C42.3044 29.4879 41.8724 28.6239 41.1524 28.3359ZM42.1604 20.5599H34.9604C34.0964 20.5599 33.5204 21.1359 33.5204 21.9999C33.5204 22.8639 34.0964 23.4399 34.9604 23.4399H42.1604C43.0244 23.4399 43.6004 22.8639 43.6004 21.9999C43.6004 21.1359 43.0244 20.5599 42.1604 20.5599ZM32.6564 17.5359C32.9444 18.1119 33.3764 18.3999 33.9524 18.3999C34.0964 18.3999 34.3844 18.3999 34.5284 18.2559L41.1524 15.5199C41.8724 15.2319 42.3044 14.3679 41.8724 13.6479C41.5844 12.9279 40.7204 12.4959 40.0004 12.9279L33.3764 15.6639C32.6564 15.9519 32.3684 16.8159 32.6564 17.5359ZM30.2084 13.7919C30.4964 14.0799 30.9284 14.2239 31.2164 14.2239C31.5044 14.2239 31.9364 14.0799 32.2244 13.7919L37.2644 8.7519C37.8404 8.1759 37.8404 7.3119 37.2644 6.7359C36.6884 6.1599 35.8244 6.1599 35.2484 6.7359L30.2084 11.7759C29.6324 12.3519 29.6324 13.3599 30.2084 13.7919ZM26.4644 11.3439C26.6084 11.4879 26.8964 11.4879 27.0404 11.4879C27.6164 11.4879 28.1924 11.1999 28.3364 10.6239L31.0724 3.9999C31.3604 3.2799 31.0724 2.4159 30.3524 2.1279C29.6324 1.8399 28.7684 2.1279 28.4804 2.8479L25.7444 9.4719C25.3124 10.1919 25.7444 11.0559 26.4644 11.3439Z" fill="#0171A1"/>
</svg>
