<svg width="48" height="48" viewBox="0 0 48 48" fill="none" xmlns="http://www.w3.org/2000/svg">
<path d="M24 2.40039C35.9297 2.40039 45.6 12.0729 45.6 24.0004C45.6 35.9279 35.9297 45.6004 24 45.6004C12.0703 45.6004 2.40002 35.9279 2.40002 24.0004C2.40002 12.0729 12.0703 2.40039 24 2.40039ZM24 6.00111C14.0748 6.00111 6.00074 14.0752 6.00074 24.0004C6.00074 33.9256 14.0748 41.9997 24 41.9997C33.9252 41.9997 41.9993 33.9256 41.9993 24.0004C41.9993 14.0752 33.9252 6.00111 24 6.00111ZM24 31.5604C25.193 31.5604 26.16 32.5275 26.16 33.7204C26.16 34.9133 25.193 35.8804 24 35.8804C22.8071 35.8804 21.84 34.9133 21.84 33.7204C21.84 32.5275 22.8071 31.5604 24 31.5604ZM24 12.6604C27.2806 12.6604 29.94 15.3198 29.94 18.6004C29.94 20.7836 29.2973 22.0003 27.6695 23.6949L27.3055 24.0659C25.9622 25.4092 25.62 25.9796 25.62 27.2404C25.62 28.1351 24.8947 28.8604 24 28.8604C23.1053 28.8604 22.38 28.1351 22.38 27.2404C22.38 25.0572 23.0227 23.8405 24.6505 22.1458L25.0145 21.7749C26.3578 20.4316 26.7 19.8612 26.7 18.6004C26.7 17.1092 25.4912 15.9004 24 15.9004C22.602 15.9004 21.4522 16.9628 21.314 18.3243L21.3 18.6004C21.3 19.4951 20.5747 20.2204 19.68 20.2204C18.7853 20.2204 18.06 19.4951 18.06 18.6004C18.06 15.3198 20.7194 12.6604 24 12.6604Z" fill="#0171A1"/>
</svg>
