<svg width="48" height="48" viewBox="0 0 48 48" fill="none" xmlns="http://www.w3.org/2000/svg">
<path d="M24.0004 2.40039C35.9301 2.40039 45.6004 12.0729 45.6004 24.0004C45.6004 35.9279 35.9301 45.6004 24.0004 45.6004C12.0707 45.6004 2.40039 35.9279 2.40039 24.0004C2.40039 12.0729 12.0707 2.40039 24.0004 2.40039ZM24.0004 6.00111C14.0752 6.00111 6.00111 14.0752 6.00111 24.0004C6.00111 33.9256 14.0752 41.9997 24.0004 41.9997C33.9256 41.9997 41.9997 33.9256 41.9997 24.0004C41.9997 14.0752 33.9256 6.00111 24.0004 6.00111ZM24.0004 31.5604C25.1933 31.5604 26.1604 32.5275 26.1604 33.7204C26.1604 34.9133 25.1933 35.8804 24.0004 35.8804C22.8074 35.8804 21.8404 34.9133 21.8404 33.7204C21.8404 32.5275 22.8074 31.5604 24.0004 31.5604ZM24.0004 12.6604C27.281 12.6604 29.9404 15.3198 29.9404 18.6004C29.9404 20.7836 29.2977 22.0003 27.6699 23.6949L27.3059 24.0659C25.9626 25.4092 25.6204 25.9796 25.6204 27.2404C25.6204 28.1351 24.8951 28.8604 24.0004 28.8604C23.1057 28.8604 22.3804 28.1351 22.3804 27.2404C22.3804 25.0572 23.0231 23.8405 24.6509 22.1459L25.0149 21.7749C26.3582 20.4316 26.7004 19.8612 26.7004 18.6004C26.7004 17.1092 25.4916 15.9004 24.0004 15.9004C22.6024 15.9004 21.4526 16.9628 21.3143 18.3243L21.3004 18.6004C21.3004 19.4951 20.5751 20.2204 19.6804 20.2204C18.7857 20.2204 18.0604 19.4951 18.0604 18.6004C18.0604 15.3198 20.7198 12.6604 24.0004 12.6604Z" fill="#0171A1"/>
</svg>
