<?xml version="1.0" encoding="utf-8"?>
<!-- Generator: Adobe Illustrator 25.0.0, SVG Export Plug-In . SVG Version: 6.00 Build 0)  -->
<svg version="1.1" id="Layer_1" xmlns="http://www.w3.org/2000/svg" xmlns:xlink="http://www.w3.org/1999/xlink" x="0px" y="0px"
	 viewBox="0 0 15 15" style="enable-background:new 0 0 15 15;" xml:space="preserve">
<style type="text/css">
	.st0{fill:#0B6084;}
	.st1{fill:#FFFFFF;stroke:#0B6084;}
</style>
<path class="st0" d="M7.5,15L7.5,15C3.4,15,0,11.6,0,7.5v0C0,3.4,3.4,0,7.5,0h0C11.6,0,15,3.4,15,7.5v0C15,11.6,11.6,15,7.5,15z"/>
<path class="st1" d="M7.5,14.4L7.5,14.4c-3.8,0-6.9-3.1-6.9-6.9v0c0-3.8,3.1-6.9,6.9-6.9h0c3.8,0,6.9,3.1,6.9,6.9v0
	C14.4,11.3,11.3,14.4,7.5,14.4z"/>
<path class="st0" d="M7.5,11.5L7.5,11.5c-2.2,0-4-1.8-4-4v0c0-2.2,1.8-4,4-4h0c2.2,0,4,1.8,4,4v0C11.5,9.7,9.7,11.5,7.5,11.5z"/>
</svg>
