<?xml version="1.0" encoding="utf-8"?>
<!-- Generator: Adobe Illustrator 25.0.0, SVG Export Plug-In . SVG Version: 6.00 Build 0)  -->
<svg version="1.1" id="Layer_1" xmlns="http://www.w3.org/2000/svg" xmlns:xlink="http://www.w3.org/1999/xlink" x="0px" y="0px"
	 viewBox="0 0 15 15" style="enable-background:new 0 0 15 15;" xml:space="preserve">
<style type="text/css">
	.st0{fill:#B4CFE0;}
	.st1{fill:#FFFFFF;}
</style>
<path class="st0" d="M28.6,11.5L28.6,11.5c-4.1,0-7.5-3.4-7.5-7.5v0c0-4.1,3.4-7.5,7.5-7.5h0c4.1,0,7.5,3.4,7.5,7.5v0
	C36.1,8.1,32.7,11.5,28.6,11.5z"/>
<g>
	<path class="st1" d="M7.6,14.5H7.4c-3.8,0-6.9-3.1-6.9-6.9V7.4c0-3.8,3.1-6.9,6.9-6.9h0.2c3.8,0,6.9,3.1,6.9,6.9v0.2
		C14.5,11.4,11.4,14.5,7.6,14.5z"/>
	<path class="st0" d="M7.5,15C3.4,15,0,11.6,0,7.5S3.4,0,7.5,0S15,3.4,15,7.5S11.6,15,7.5,15z M7.5,1C3.9,1,1,3.9,1,7.5
		S3.9,14,7.5,14S14,11.1,14,7.5S11.1,1,7.5,1z"/>
</g>
<g>
	<path class="st0" d="M7.6,11.6H7.4c-2.2,0-4-1.8-4-4V7.4c0-2.2,1.8-4,4-4h0.1c2.2,0,4,1.8,4,4v0.1C11.6,9.8,9.8,11.6,7.6,11.6z"/>
</g>
</svg>
