<svg width="24" height="24" viewBox="0 0 24 24" fill="none" xmlns="http://www.w3.org/2000/svg">
<path d="M1.00095 2H4.50095C4.7771 2 5.00095 2.22386 5.00095 2.5V15.5C5.00095 15.7761 4.7771 16 4.50095 16H2.73246C2.90261 16.2942 3 16.6357 3 17C3 18.1045 2.10457 19 1 19L1.00095 2Z" fill="#0171A1"/>
<path d="M1.00095 20H22.501C22.7771 20 23.001 20.2239 23.001 20.5V21.5C23.001 21.7761 22.7771 22 22.501 22H1.00095V20Z" fill="#0171A1"/>
<path fill-rule="evenodd" clip-rule="evenodd" d="M7.50095 2C7.22481 2 7.00095 2.22386 7.00095 2.5V11H20.5C20.7761 11 21 11.2239 21 11.5V12.5C21 12.7761 20.7761 13 20.5 13H7.00095V15.5C7.00095 15.7761 7.22481 16 7.50095 16H8.26852C8.09835 16.2942 8.00095 16.6357 8.00095 17C8.00095 18.1046 8.89638 19 10.001 19C10.598 19 11.134 18.7383 11.5005 18.3235C11.8669 18.7383 12.4029 19 13 19C14.1046 19 15 18.1046 15 17C15 16.6357 14.9026 16.2942 14.7324 16H17.2685C17.0983 16.2942 17.001 16.6357 17.001 17C17.001 18.1046 17.8964 19 19.001 19C20.1055 19 21.001 18.1046 21.001 17C21.001 16.6357 20.9036 16.2942 20.7334 16H22.501C22.7771 16 23.001 15.7761 23.001 15.5V8.33852C23.001 8.13406 22.8765 7.95021 22.6866 7.87428L18.863 6.34483L17.1308 2.30304C17.052 2.1192 16.8713 2 16.6713 2H7.50095ZM10.5901 4C10.8284 4 11.0336 4.16823 11.0804 4.40194L11.8804 8.40194C11.9423 8.71134 11.7056 9 11.3901 9H10.4099C10.1716 9 9.96635 8.83177 9.91961 8.59806L9.11961 4.59806C9.05773 4.28866 9.29438 4 9.6099 4H10.5901ZM15.1257 4.31431C15.0498 4.12448 14.8659 4 14.6615 4H13.6099C13.2944 4 13.0577 4.28866 13.1196 4.59806L13.9196 8.59806C13.9664 8.83177 14.1716 9 14.4099 9H16.2615C16.6152 9 16.8571 8.64274 16.7257 8.3143L15.1257 4.31431Z" fill="#0171A1"/>
</svg>
