<svg width="24" height="24" viewBox="0 0 24 24" fill="none" xmlns="http://www.w3.org/2000/svg">
<path fill-rule="evenodd" clip-rule="evenodd" d="M1 3.5H2.25V15H1V16C1 16.2761 1.22386 16.5 1.5 16.5H22.5C22.7761 16.5 23 16.2761 23 16V15H21.75V3.5H23V2.5C23 2.22386 22.7761 2 22.5 2H1.5C1.22386 2 1 2.22386 1 2.5V3.5ZM5.25 5.25V13.25C5.25 13.5261 5.47386 13.75 5.75 13.75H6.25C6.52614 13.75 6.75 13.5261 6.75 13.25V5.25C6.75 4.97386 6.52614 4.75 6.25 4.75H5.75C5.47386 4.75 5.25 4.97386 5.25 5.25ZM9.25 5.25V13.25C9.25 13.5261 9.47386 13.75 9.75 13.75H10.25C10.5261 13.75 10.75 13.5261 10.75 13.25V5.25C10.75 4.97386 10.5261 4.75 10.25 4.75H9.75C9.47386 4.75 9.25 4.97386 9.25 5.25ZM13.25 13.25V5.25C13.25 4.97386 13.4739 4.75 13.75 4.75H14.25C14.5261 4.75 14.75 4.97386 14.75 5.25V13.25C14.75 13.5261 14.5261 13.75 14.25 13.75H13.75C13.4739 13.75 13.25 13.5261 13.25 13.25ZM17.25 5.25V13.25C17.25 13.5261 17.4739 13.75 17.75 13.75H18.25C18.5261 13.75 18.75 13.5261 18.75 13.25V5.25C18.75 4.97386 18.5261 4.75 18.25 4.75H17.75C17.4739 4.75 17.25 4.97386 17.25 5.25Z" fill="#0171A1"/>
<path d="M1 19C1 19.2761 1.23643 19.5 1.51257 19.5H3.06301C3.02188 19.6598 3 19.8274 3 20C3 21.1046 3.89543 22 5 22C5.59735 22 6.13353 21.7381 6.5 21.3229C6.86647 21.7381 7.40265 22 8 22C9.10457 22 10 21.1046 10 20C10 19.8274 9.97812 19.6598 9.93699 19.5H14.063C14.0219 19.6598 14 19.8274 14 20C14 21.1046 14.8954 22 16 22C16.5973 22 17.1335 21.7381 17.5 21.3229C17.8665 21.7381 18.4027 22 19 22C20.1046 22 21 21.1046 21 20C21 19.8274 20.9781 19.6598 20.937 19.5H22.4886C22.7647 19.5 23 19.2761 23 19V18H1V19Z" fill="#0171A1"/>
</svg>
