<svg width="24" height="24" viewBox="0 0 24 24" fill="none" xmlns="http://www.w3.org/2000/svg">
<path fill-rule="evenodd" clip-rule="evenodd" d="M3.25 3.5H2V2.5C2 2.22385 2.22388 2 2.5 2H21.5C21.7761 2 22 2.22385 22 2.5V3.5H20.75V12H22V13C22 13.2762 21.7761 13.5 21.5 13.5H2.5C2.22388 13.5 2 13.2762 2 13V12H3.25V3.5ZM7.25 5.25V10.25C7.25 10.5262 7.47388 10.75 7.75 10.75H8.25C8.52612 10.75 8.75 10.5262 8.75 10.25V5.25C8.75 4.97385 8.52612 4.75 8.25 4.75H7.75C7.47388 4.75 7.25 4.97385 7.25 5.25ZM11.25 5.25V10.25C11.25 10.5262 11.4739 10.75 11.75 10.75H12.25C12.5261 10.75 12.75 10.5262 12.75 10.25V5.25C12.75 4.97385 12.5261 4.75 12.25 4.75H11.75C11.4739 4.75 11.25 4.97385 11.25 5.25ZM15.25 10.25V5.25C15.25 4.97385 15.4739 4.75 15.75 4.75H16.25C16.5261 4.75 16.75 4.97385 16.75 5.25V10.25C16.75 10.5262 16.5261 10.75 16.25 10.75H15.75C15.4739 10.75 15.25 10.5262 15.25 10.25Z" fill="#0171A1"/>
<path d="M1.51257 19.5C1.23645 19.5 1 19.2762 1 19V18H23V19C23 19.2762 22.7647 19.5 22.4886 19.5H20.937C20.9781 19.6598 21 19.8274 21 20C21 21.1046 20.1046 22 19 22C18.4026 22 17.8665 21.7381 17.5 21.3229C17.1335 21.7381 16.5974 22 16 22C14.8954 22 14 21.1046 14 20C14 19.8274 14.0219 19.6598 14.063 19.5H9.93701C9.97815 19.6598 10 19.8274 10 20C10 21.1046 9.10455 22 8 22C7.40265 22 6.86646 21.7381 6.5 21.3229C6.13354 21.7381 5.59735 22 5 22C3.89545 22 3 21.1046 3 20C3 19.8274 3.02185 19.6598 3.06299 19.5H1.51257Z" fill="#0171A1"/>
</svg>
