<svg width="24" height="24" viewBox="0 0 24 24" fill="none" xmlns="http://www.w3.org/2000/svg">
<path d="M23 2H19.5C19.2239 2 19 2.22386 19 2.5V15.5C19 15.7761 19.2239 16 19.5 16H21.2685C21.0983 16.2942 21.001 16.6357 21.001 17C21.001 18.1045 21.8964 19 23.001 19L23 2Z" fill="#0171A1"/>
<path d="M23 20H1.5C1.22386 20 1 20.2239 1 20.5V21.5C1 21.7761 1.22386 22 1.5 22H23V20Z" fill="#0171A1"/>
<path fill-rule="evenodd" clip-rule="evenodd" d="M16.5 2C16.7761 2 17 2.22386 17 2.5V10.5C17 10.7761 16.7761 11 16.5 11H6V10.4671C6 10.2675 5.77746 10.1484 5.61132 10.2591L3.31202 11.792C3.16359 11.8909 3.16359 12.1091 3.31202 12.208L5.61133 13.7409C5.77746 13.8516 6 13.7325 6 13.5329V13H16.5C16.7761 13 17 13.2239 17 13.5V15.5C17 15.7761 16.7761 16 16.5 16H15.7324C15.9026 16.2942 16 16.6357 16 17C16 18.1046 15.1046 19 14 19C13.4029 19 12.8669 18.7383 12.5005 18.3235C12.134 18.7383 11.598 19 11.001 19C9.89638 19 9.00095 18.1046 9.00095 17C9.00095 16.6357 9.09835 16.2942 9.26852 16H6.73244C6.90261 16.2942 7 16.6357 7 17C7 18.1046 6.10457 19 5 19C3.89543 19 3 18.1046 3 17C3 16.6357 3.09739 16.2942 3.26756 16H1.5C1.22386 16 1 15.7761 1 15.5V8.33852C1 8.13406 1.12448 7.95021 1.3143 7.87428L5.13793 6.34483L6.87012 2.30304C6.94891 2.1192 7.12968 2 7.3297 2H16.5ZM13.4109 4C13.1725 4 12.9673 4.16823 12.9206 4.40194L12.1206 8.40194C12.0587 8.71134 12.2953 9 12.6109 9H13.5911C13.8294 9 14.0346 8.83177 14.0813 8.59806L14.8813 4.59806C14.9432 4.28866 14.7066 4 14.3911 4H13.4109ZM8.87523 4.31431C8.95116 4.12448 9.13502 4 9.33947 4H10.3911C10.7066 4 10.9432 4.28866 10.8813 4.59806L10.0813 8.59806C10.0346 8.83177 9.82939 9 9.59105 9H7.73947C7.38574 9 7.14386 8.64274 7.27523 8.3143L8.87523 4.31431Z" fill="#0171A1"/>
</svg>
