<svg width="22" height="22" viewBox="0 0 22 22" fill="none" xmlns="http://www.w3.org/2000/svg">
<path d="M11.0002 0.200012C16.965 0.200012 21.8002 5.03625 21.8002 11C21.8002 16.9638 16.965 21.8 11.0002 21.8C5.03536 21.8 0.200195 16.9638 0.200195 11C0.200195 5.03625 5.03536 0.200012 11.0002 0.200012ZM11.0002 2.00037C6.0376 2.00037 2.00056 6.03741 2.00056 11C2.00056 15.9626 6.0376 19.9997 11.0002 19.9997C15.9628 19.9997 19.9998 15.9626 19.9998 11C19.9998 6.03741 15.9628 2.00037 11.0002 2.00037ZM10.1902 4.52001C10.6001 4.52001 10.9391 4.82493 10.9928 5.22015L11.0002 5.33001V11H14.5102C14.9573 11 15.3202 11.3629 15.3202 11.81C15.3202 12.2199 15.0153 12.5589 14.6201 12.6126L14.5102 12.62H10.1902C9.78034 12.62 9.44126 12.3151 9.38759 11.9199L9.3802 11.81V5.33001C9.3802 4.88289 9.74308 4.52001 10.1902 4.52001Z" fill="#6D858F"/>
</svg>
