<svg width="18" height="16" viewBox="0 0 18 16" fill="none" xmlns="http://www.w3.org/2000/svg">
<path d="M7.8873 10.5631H1.46634L1.37265 10.5688C1.16999 10.593 0.984187 10.6939 0.853197 10.8511C0.722207 11.0082 0.655921 11.2096 0.667881 11.4141C0.679842 11.6187 0.769146 11.8109 0.917548 11.9516C1.06595 12.0922 1.26225 12.1707 1.46634 12.1709H8.01141C7.88767 11.6446 7.84581 11.1023 7.8873 10.5631ZM15.8793 5.7399H1.46634C1.26225 5.73967 1.06595 5.66122 0.917548 5.52056C0.769146 5.37991 0.679842 5.18768 0.667881 4.98314C0.655921 4.7786 0.722207 4.57719 0.853197 4.42007C0.984187 4.26295 1.16999 4.16198 1.37265 4.13778L1.46634 4.13215H15.8793C16.0834 4.13238 16.2796 4.21083 16.4281 4.35149C16.5765 4.49214 16.6658 4.68438 16.6777 4.88891C16.6897 5.09345 16.6234 5.29486 16.4924 5.45198C16.3614 5.6091 16.1756 5.71007 15.9729 5.73427L15.8793 5.7399ZM1.46634 8.95539H8.27084C8.51904 8.3589 8.87524 7.81378 9.32138 7.34765H1.46634L1.37265 7.35327C1.16999 7.37747 0.984187 7.47845 0.853197 7.63557C0.722207 7.79269 0.655921 7.99409 0.667881 8.19863C0.679842 8.40317 0.769146 8.59541 0.917548 8.73606C1.06595 8.87671 1.26225 8.95517 1.46634 8.95539ZM15.8793 0.916656H1.46634L1.37265 0.922284C1.16999 0.946483 0.984187 1.04746 0.853197 1.20458C0.722207 1.3617 0.655921 1.5631 0.667881 1.76764C0.679842 1.97218 0.769146 2.16442 0.917548 2.30507C1.06595 2.44572 1.26225 2.52418 1.46634 2.5244H15.8793L15.9729 2.51878C16.1756 2.49458 16.3614 2.3936 16.4924 2.23648C16.6234 2.07936 16.6897 1.87796 16.6777 1.67342C16.6658 1.46888 16.5765 1.27665 16.4281 1.13599C16.2796 0.995339 16.0834 0.916884 15.8793 0.916656ZM10.4968 8.13142L10.3383 7.57997C10.6906 7.27289 11.091 7.02369 11.5258 6.84683L11.9253 7.26806C12.0749 7.42604 12.2549 7.55183 12.4545 7.63778C12.654 7.72373 12.8688 7.76805 13.086 7.76805C13.3031 7.76805 13.5179 7.72373 13.7174 7.63778C13.917 7.55183 14.097 7.42604 14.2466 7.26806L14.6414 6.85166C15.0757 7.03073 15.4773 7.28122 15.8296 7.59283L15.6807 8.09927C15.6192 8.30837 15.6007 8.52785 15.6263 8.74435C15.6519 8.96086 15.7211 9.16988 15.8297 9.35869C15.9383 9.5475 16.084 9.71216 16.258 9.84266C16.432 9.97316 16.6306 10.0668 16.8417 10.1178L17.2733 10.2223C17.3515 10.7035 17.3531 11.194 17.2781 11.6757L16.8105 11.7915C16.6014 11.8435 16.4049 11.9374 16.2328 12.0675C16.0607 12.1976 15.9166 12.3612 15.8089 12.5485C15.7013 12.7358 15.6324 12.943 15.6063 13.1577C15.5803 13.3724 15.5977 13.5901 15.6575 13.7979L15.8152 14.3494C15.4637 14.6573 15.0633 14.9065 14.6277 15.0833L14.229 14.6613C14.0794 14.5032 13.8993 14.3773 13.6997 14.2913C13.5001 14.2052 13.2852 14.1609 13.0679 14.1609C12.8507 14.1609 12.6358 14.2052 12.4362 14.2913C12.2366 14.3773 12.0565 14.5032 11.9069 14.6613L11.5121 15.0777C11.0779 14.8988 10.6763 14.6486 10.3239 14.3373L10.4736 13.8301C10.535 13.621 10.5534 13.4016 10.5277 13.1852C10.5021 12.9688 10.4328 12.7599 10.3242 12.5712C10.2156 12.3825 10.07 12.2179 9.89605 12.0874C9.72214 11.957 9.52363 11.8634 9.31257 11.8124L8.88019 11.7079C8.80182 11.2267 8.8002 10.7361 8.87538 10.2545L9.343 10.1387C9.55225 10.0867 9.74889 9.99289 9.92114 9.86279C10.0934 9.7327 10.2377 9.56903 10.3455 9.3816C10.4532 9.19417 10.5221 8.98683 10.5482 8.77201C10.5742 8.55719 10.5567 8.33931 10.4968 8.13142ZM13.0768 12.1709C13.7173 12.1709 14.2378 11.6307 14.2378 10.9651C14.2378 10.2987 13.7173 9.75927 13.0768 9.75927C12.4362 9.75927 11.9157 10.2987 11.9157 10.9651C11.9157 11.6307 12.4362 12.1709 13.0768 12.1709Z" fill="#6D858F"/>
</svg>
