<svg width="18" height="18" viewBox="0 0 18 18" fill="none" xmlns="http://www.w3.org/2000/svg">
<path fill-rule="evenodd" clip-rule="evenodd" d="M0.666504 8.99999C0.666504 4.39762 4.39746 0.666656 8.99984 0.666656C13.6022 0.666656 17.3332 4.39762 17.3332 8.99999C17.3332 13.6024 13.6022 17.3333 8.99984 17.3333C4.39746 17.3333 0.666504 13.6024 0.666504 8.99999ZM8.99984 1.82945C5.03966 1.82945 1.82929 5.03981 1.82929 8.99999C1.82929 10.822 2.50885 12.4853 3.62834 13.7502C3.92715 11.8824 5.1802 10.3336 6.87171 9.61879C6.09508 8.99893 5.59741 8.04416 5.59741 6.97317C5.59741 5.10472 7.11204 3.59074 8.97984 3.59074C10.8481 3.59074 12.3628 5.10465 12.3628 6.97317C12.3628 8.04418 11.8651 8.99893 11.0884 9.61879C12.7913 10.3384 14.0497 11.9033 14.3375 13.7882C15.4771 12.5187 16.1704 10.8403 16.1704 8.99999C16.1704 5.03981 12.96 1.82945 8.99984 1.82945ZM13.3302 14.7158C13.273 14.6304 13.2377 14.5287 13.2328 14.4185C13.1314 12.1578 11.2662 10.3563 8.97999 10.3563C6.67423 10.3563 4.7963 12.1893 4.72493 14.4773C4.72228 14.5621 4.70161 14.6421 4.6667 14.7137C5.87036 15.6279 7.37173 16.1705 8.99984 16.1705C10.6267 16.1705 12.127 15.6287 13.3302 14.7158ZM8.97984 4.75353C7.75409 4.75353 6.7602 5.74705 6.7602 6.97317C6.7602 8.19943 7.75423 9.19332 8.97984 9.19332C10.206 9.19332 11.2 8.19936 11.2 6.97317C11.2 5.74712 10.2062 4.75353 8.97984 4.75353Z" fill="#6D858F"/>
</svg>
