<svg width="16" height="12" viewBox="0 0 16 12" fill="none" xmlns="http://www.w3.org/2000/svg">
<path d="M12.9498 0.399994C14.1924 0.399994 15.1998 1.3643 15.1998 2.55384V9.44615C15.1998 10.6357 14.1924 11.6 12.9498 11.6H3.0498C1.80716 11.6 0.799805 10.6357 0.799805 9.44615V2.55384C0.799805 1.3643 1.80716 0.399994 3.0498 0.399994H12.9498ZM14.2998 3.81255L8.22796 7.23283C8.11061 7.29891 7.96975 7.30992 7.84457 7.26587L7.77165 7.23283L1.6998 3.81427V9.44615C1.6998 10.1599 2.30422 10.7385 3.0498 10.7385H12.9498C13.6954 10.7385 14.2998 10.1599 14.2998 9.44615V3.81255ZM12.9498 1.26153H3.0498C2.30422 1.26153 1.6998 1.84012 1.6998 2.55384V2.81402L7.9998 6.36176L14.2998 2.81316V2.55384C14.2998 1.84012 13.6954 1.26153 12.9498 1.26153Z" fill="#6D858F"/>
</svg>
