<svg width="24" height="24" viewBox="0 0 24 24" fill="none" xmlns="http://www.w3.org/2000/svg">
<path d="M6.28571 3.93333C6.28571 3.15536 6.58673 2.40926 7.12255 1.85915C7.65837 1.30905 8.3851 1 9.14286 1H19.1429C19.9006 1 20.6273 1.30905 21.1632 1.85915C21.699 2.40926 22 3.15536 22 3.93333V17.1333C22 17.9113 21.699 18.6574 21.1632 19.2075C20.6273 19.7576 19.9006 20.0667 19.1429 20.0667H17.7143C17.7143 20.8446 17.4133 21.5907 16.8774 22.1408C16.3416 22.691 15.6149 23 14.8571 23H4.85714C4.09938 23 3.37266 22.691 2.83684 22.1408C2.30102 21.5907 2 20.8446 2 20.0667V6.86667C2 6.0887 2.30102 5.34259 2.83684 4.79249C3.37266 4.24238 4.09938 3.93333 4.85714 3.93333H6.28571ZM7.71429 3.93333H14.8571C15.6149 3.93333 16.3416 4.24238 16.8774 4.79249C17.4133 5.34259 17.7143 6.0887 17.7143 6.86667V18.6H19.1429C19.5217 18.6 19.8851 18.4455 20.153 18.1704C20.4209 17.8954 20.5714 17.5223 20.5714 17.1333V3.93333C20.5714 3.54435 20.4209 3.1713 20.153 2.89624C19.8851 2.62119 19.5217 2.46667 19.1429 2.46667H9.14286C8.76398 2.46667 8.40061 2.62119 8.13271 2.89624C7.8648 3.1713 7.71429 3.54435 7.71429 3.93333ZM4.85714 5.4C4.47826 5.4 4.1149 5.55452 3.84699 5.82958C3.57908 6.10463 3.42857 6.47768 3.42857 6.86667V20.0667C3.42857 20.4557 3.57908 20.8287 3.84699 21.1038C4.1149 21.3788 4.47826 21.5333 4.85714 21.5333H14.8571C15.236 21.5333 15.5994 21.3788 15.8673 21.1038C16.1352 20.8287 16.2857 20.4557 16.2857 20.0667V6.86667C16.2857 6.47768 16.1352 6.10463 15.8673 5.82958C15.5994 5.55452 15.236 5.4 14.8571 5.4H4.85714ZM6.28571 9.8C6.09627 9.8 5.91459 9.72274 5.78064 9.58521C5.64668 9.44769 5.57143 9.26116 5.57143 9.06667C5.57143 8.87217 5.64668 8.68565 5.78064 8.54812C5.91459 8.4106 6.09627 8.33333 6.28571 8.33333H13.4286C13.618 8.33333 13.7997 8.4106 13.9336 8.54812C14.0676 8.68565 14.1429 8.87217 14.1429 9.06667C14.1429 9.26116 14.0676 9.44769 13.9336 9.58521C13.7997 9.72274 13.618 9.8 13.4286 9.8H6.28571ZM6.28571 12.7333C6.09627 12.7333 5.91459 12.6561 5.78064 12.5185C5.64668 12.381 5.57143 12.1945 5.57143 12C5.57143 11.8055 5.64668 11.619 5.78064 11.4815C5.91459 11.3439 6.09627 11.2667 6.28571 11.2667H13.4286C13.618 11.2667 13.7997 11.3439 13.9336 11.4815C14.0676 11.619 14.1429 11.8055 14.1429 12C14.1429 12.1945 14.0676 12.381 13.9336 12.5185C13.7997 12.6561 13.618 12.7333 13.4286 12.7333H6.28571ZM6.28571 15.6667C6.09627 15.6667 5.91459 15.5894 5.78064 15.4519C5.64668 15.3144 5.57143 15.1278 5.57143 14.9333C5.57143 14.7388 5.64668 14.5523 5.78064 14.4148C5.91459 14.2773 6.09627 14.2 6.28571 14.2H13.4286C13.618 14.2 13.7997 14.2773 13.9336 14.4148C14.0676 14.5523 14.1429 14.7388 14.1429 14.9333C14.1429 15.1278 14.0676 15.3144 13.9336 15.4519C13.7997 15.5894 13.618 15.6667 13.4286 15.6667H6.28571ZM6.28571 18.6C6.09627 18.6 5.91459 18.5227 5.78064 18.3852C5.64668 18.2477 5.57143 18.0612 5.57143 17.8667C5.57143 17.6722 5.64668 17.4856 5.78064 17.3481C5.91459 17.2106 6.09627 17.1333 6.28571 17.1333H13.4286C13.618 17.1333 13.7997 17.2106 13.9336 17.3481C14.0676 17.4856 14.1429 17.6722 14.1429 17.8667C14.1429 18.0612 14.0676 18.2477 13.9336 18.3852C13.7997 18.5227 13.618 18.6 13.4286 18.6H6.28571Z" fill="#0171A1"/>
</svg>
