<svg width="44" height="48" viewBox="0 0 44 48" fill="none" xmlns="http://www.w3.org/2000/svg">
<path fill-rule="evenodd" clip-rule="evenodd" d="M14.7999 0C11.6188 0 9.03994 2.52827 9.03994 5.64706V15.0159C9.96811 14.7586 10.9309 14.5821 11.9199 14.4947V5.64706C11.9199 4.08768 13.2094 2.82353 14.7999 2.82353H26.3199V12.7059C26.3199 15.045 28.2541 16.9412 30.6399 16.9412H40.7199V39.5294C40.7199 41.0889 39.4305 42.3529 37.8399 42.3529H32.8728C32.346 43.3632 31.7098 44.3094 30.9793 45.1765H37.8399C41.0212 45.1765 43.5999 42.6483 43.5999 39.5294V15.2872C43.5999 14.1639 43.1449 13.0867 42.3347 12.2924L31.0616 1.24049C30.2514 0.446231 29.1527 0 28.007 0H14.7999ZM40.1235 14.1176H30.6399C29.8448 14.1176 29.1999 13.4856 29.1999 12.7059V3.40831L40.1235 14.1176ZM15.3599 48C23.622 48 30.3199 41.4335 30.3199 33.3333C30.3199 25.2332 23.622 18.6667 15.3599 18.6667C7.09771 18.6667 0.399902 25.2332 0.399902 33.3333C0.399902 41.4335 7.09771 48 15.3599 48ZM15.25 45.3333C21.9602 45.3333 27.4 39.9608 27.4 33.3333C27.4 26.7059 21.9602 21.3333 15.25 21.3333C8.53972 21.3333 3.09998 26.7059 3.09998 33.3333C3.09998 39.9608 8.53972 45.3333 15.25 45.3333ZM9.64836 33.8491L12.7192 37.0734L19.8779 28.0534C20.3022 27.5188 21.0589 27.4466 21.568 27.8921C22.0772 28.3376 22.146 29.1321 21.7217 29.6667L13.7217 39.7466C13.27 40.3158 12.4503 40.3549 11.9513 39.8309L7.95131 35.631C7.48268 35.1389 7.48268 34.3411 7.95131 33.8491C8.41994 33.357 9.17973 33.357 9.64836 33.8491Z" fill="#16B442"/>
</svg>
