<svg width="16" height="16" viewBox="0 0 16 16" fill="none" xmlns="http://www.w3.org/2000/svg">
<path d="M8.00728 1.33334C8.50382 1.33912 8.99842 1.39711 9.48308 1.50635C9.69465 1.55404 9.85288 1.73232 9.87689 1.95006L9.99204 2.99406C10.0442 3.47342 10.4446 3.83648 10.922 3.83699C11.0503 3.83719 11.1772 3.81018 11.2958 3.75716L12.2433 3.33646C12.4404 3.24896 12.6706 3.29666 12.8177 3.45547C13.5025 4.19464 14.0124 5.08114 14.3092 6.04828C14.3733 6.25682 14.2996 6.48346 14.1257 6.61301L13.2858 7.23871C13.0463 7.41663 12.9048 7.69917 12.9048 7.99965C12.9048 8.30013 13.0463 8.58267 13.2864 8.76097L14.1269 9.3869C14.3009 9.51643 14.3746 9.74309 14.3106 9.95168C14.0139 10.9187 13.5042 11.8051 12.8199 12.5444C12.6729 12.7032 12.4428 12.751 12.2458 12.6637L11.2944 12.2424C11.0222 12.122 10.7096 12.1397 10.4524 12.2899C10.1952 12.4402 10.024 12.7051 9.99131 13.0036L9.87693 14.0475C9.85335 14.2627 9.69852 14.4398 9.49008 14.4899C8.5102 14.7256 7.48929 14.7256 6.50941 14.4899C6.30096 14.4398 6.14614 14.2627 6.12255 14.0475L6.00834 13.0052C5.9748 12.7072 5.80335 12.4431 5.54634 12.2934C5.28932 12.1436 4.97725 12.126 4.70597 12.2458L3.75438 12.6671C3.55728 12.7544 3.32715 12.7065 3.18017 12.5477C2.49545 11.8075 1.98575 10.9201 1.68945 9.95202C1.62563 9.74352 1.69936 9.51703 1.87321 9.38758L2.71433 8.76127C2.95391 8.58335 3.0954 8.30081 3.0954 8.00033C3.0954 7.69985 2.95391 7.41731 2.71402 7.23917L1.87343 6.61393C1.69932 6.48443 1.62551 6.25764 1.68956 6.04896C1.98638 5.08182 2.49634 4.19532 3.18108 3.45616C3.3282 3.29735 3.55844 3.24964 3.75551 3.33714L4.70287 3.75777C4.97546 3.87868 5.28884 3.86042 5.54725 3.70783C5.80453 3.55699 5.97582 3.29178 6.00889 2.99327L6.12395 1.95006C6.14797 1.73221 6.30635 1.55388 6.51805 1.50629C7.00329 1.39721 7.4984 1.33925 8.00728 1.33334ZM8.00741 2.35891C7.70025 2.36257 7.39395 2.38936 7.09106 2.43899L7.01737 3.10714C6.94848 3.72902 6.59195 4.28105 6.05777 4.59422C5.52032 4.91158 4.86506 4.94977 4.29491 4.69688L3.68722 4.42706C3.30031 4.90171 2.99235 5.43684 2.77545 6.01142L3.31516 6.41287C3.81497 6.78403 4.11016 7.37347 4.11016 8.00033C4.11016 8.6272 3.81497 9.21664 3.31569 9.58741L2.77513 9.98992C2.99184 10.5655 3.29984 11.1017 3.68702 11.5772L4.29935 11.3061C4.86632 11.0559 5.51712 11.0925 6.05311 11.4048C6.58909 11.717 6.94663 12.2679 7.01676 12.8907L7.09047 13.5634C7.69232 13.6669 8.30717 13.6669 8.90901 13.5634L8.98272 12.8907C9.05091 12.2681 9.40803 11.7154 9.94465 11.4019C10.4813 11.0885 11.1334 11.0517 11.7014 11.3029L12.3133 11.5738C12.7001 11.099 13.008 10.5638 13.2248 9.98907L12.685 9.58712C12.1852 9.21595 11.89 8.62651 11.89 7.99965C11.89 7.37278 12.1852 6.78334 12.6844 6.41265L13.2235 6.01102C13.0066 5.43633 12.6986 4.9011 12.3116 4.42638L11.7051 4.69565C11.458 4.80617 11.1906 4.86306 10.9206 4.86263C9.92639 4.86158 9.09196 4.105 8.98344 3.1069L8.90975 2.43877C8.60835 2.3892 8.30526 2.36248 8.00741 2.35891ZM7.99884 5.43588C9.39992 5.43588 10.5357 6.58387 10.5357 7.99999C10.5357 9.41611 9.39992 10.5641 7.99884 10.5641C6.59776 10.5641 5.46196 9.41611 5.46196 7.99999C5.46196 6.58387 6.59776 5.43588 7.99884 5.43588ZM7.99884 6.46152C7.15819 6.46152 6.47671 7.15032 6.47671 7.99999C6.47671 8.84966 7.15819 9.53845 7.99884 9.53845C8.83949 9.53845 9.52097 8.84966 9.52097 7.99999C9.52097 7.15032 8.83949 6.46152 7.99884 6.46152Z" fill="#0171A1"/>
</svg>
