<svg width="40" height="40" viewBox="0 0 40 40" fill="none" xmlns="http://www.w3.org/2000/svg">
<rect width="40" height="40" rx="20" fill="#0171A1"/>
<path fill-rule="evenodd" clip-rule="evenodd" d="M22.6532 16.5622H26.9276C27.2438 16.5622 27.5 16.8074 27.5 17.1087V27.4476C27.5 28.386 26.7038 29.1663 25.721 29.1663H14.3C13.3178 29.1663 12.5 28.386 12.5 27.4476V12.5317C12.5 11.5933 13.3178 10.833 14.3 10.833H20.9276C21.2438 10.833 21.5 11.0776 21.5 11.3796V15.461C21.5 16.0695 22.016 16.5622 22.6532 16.5622ZM16.7 25.1559H23.3C23.6312 25.1559 23.9 24.8998 23.9 24.583C23.9 24.2662 23.6312 24.0101 23.3 24.0101H16.7C16.3688 24.0101 16.1 24.2662 16.1 24.583C16.1 24.8998 16.3688 25.1559 16.7 25.1559ZM16.7 22.8643H23.3C23.6312 22.8643 23.9 22.6082 23.9 22.2913C23.9 21.9745 23.6312 21.7184 23.3 21.7184H16.7C16.3688 21.7184 16.1 21.9745 16.1 22.2913C16.1 22.6082 16.3688 22.8643 16.7 22.8643ZM16.7 20.5726H23.3C23.6312 20.5726 23.9 20.3159 23.9 19.9997C23.9 19.6834 23.6312 19.4268 23.3 19.4268H16.7C16.3688 19.4268 16.1 19.6834 16.1 19.9997C16.1 20.3159 16.3688 20.5726 16.7 20.5726ZM26.117 15.4163H23.2724C22.9562 15.4163 22.7 15.1711 22.7 14.8698V12.1536C22.7 11.9319 22.8392 11.7319 23.054 11.6483C23.267 11.5635 23.5142 11.6105 23.6774 11.7663L26.522 14.4825C26.6858 14.6389 26.735 14.8749 26.6462 15.0783C26.558 15.2834 26.3492 15.4163 26.117 15.4163Z" fill="white"/>
</svg>
