<svg width="16" height="16" viewBox="0 0 16 16" fill="none" xmlns="http://www.w3.org/2000/svg">
<path fill-rule="evenodd" clip-rule="evenodd" d="M14.6656 5.92275H10.9195L9.41359 7.86819H9.27869C9.36235 7.69163 9.40922 7.4938 9.40922 7.28488V6.59665C9.40922 5.91075 8.90405 5.34433 8.24991 5.25804C8.34493 5.07233 8.39861 4.86143 8.39861 4.63784V3.94961C8.39861 3.20403 7.80171 2.59961 7.06539 2.59961H3.28068C2.54436 2.59961 1.94745 3.20403 1.94745 3.94961V4.63784C1.94745 4.86014 2.00052 5.0699 2.09452 5.25482C1.42762 5.32915 0.908815 5.90156 0.908815 6.59665V7.28488C0.908815 7.50553 0.961094 7.71382 1.05379 7.89774C0.33054 8.05319 -0.152024 8.79805 0.0438206 9.55875L0.772782 12.3902C0.925851 12.9847 1.4561 13.3996 2.06289 13.3996H12.9615C13.5232 13.3996 14.0246 13.0432 14.2154 12.5083L15.9195 7.73141C16.2335 6.85142 15.5896 5.92275 14.6656 5.92275ZM15.0836 7.42563L13.3795 12.2025C13.3159 12.3808 13.1487 12.4996 12.9615 12.4996H2.06289C1.86062 12.4996 1.68387 12.3613 1.63285 12.1631L0.90389 9.33171C0.830491 9.04661 1.04296 8.76819 1.33393 8.76819H9.84623L11.3521 6.82275H14.6656C14.9736 6.82275 15.1882 7.13231 15.0836 7.42563ZM7.06539 3.49961H3.28068C3.03524 3.49961 2.83627 3.70108 2.83627 3.94961V4.63784C2.83627 4.88637 3.03524 5.08784 3.28068 5.08784H7.06539C7.31083 5.08784 7.5098 4.88637 7.5098 4.63784V3.94961C7.5098 3.70108 7.31083 3.49961 7.06539 3.49961ZM8.5204 6.59665C8.5204 6.34813 8.32144 6.14665 8.076 6.14665H2.24204C1.9966 6.14665 1.79763 6.34813 1.79763 6.59665V7.28488C1.79763 7.53341 1.9966 7.73488 2.24204 7.73488H8.076C8.32144 7.73488 8.5204 7.53341 8.5204 7.28488V6.59665ZM3.50289 11.1496C3.87105 11.1496 4.1695 10.8474 4.1695 10.4746C4.1695 10.1018 3.87105 9.79961 3.50289 9.79961C3.13473 9.79961 2.83628 10.1018 2.83628 10.4746C2.83628 10.8474 3.13473 11.1496 3.50289 11.1496ZM7.28537 10.4746C7.28537 10.8474 6.98692 11.1496 6.61876 11.1496C6.2506 11.1496 5.95215 10.8474 5.95215 10.4746C5.95215 10.1018 6.2506 9.79961 6.61876 9.79961C6.98692 9.79961 7.28537 10.1018 7.28537 10.4746ZM9.73429 11.1496C10.1024 11.1496 10.4009 10.8474 10.4009 10.4746C10.4009 10.1018 10.1024 9.79961 9.73429 9.79961C9.36613 9.79961 9.06768 10.1018 9.06768 10.4746C9.06768 10.8474 9.36613 11.1496 9.73429 11.1496Z" fill="#6D858F"/>
</svg>
