<svg width="40" height="40" viewBox="0 0 40 40" fill="none" xmlns="http://www.w3.org/2000/svg">
<rect width="40" height="40" rx="20" fill="#0171A1"/>
<path fill-rule="evenodd" clip-rule="evenodd" d="M22.6532 16.5625H26.9276C27.2438 16.5625 27.5 16.8077 27.5 17.1091V27.448C27.5 28.3864 26.7038 29.1667 25.721 29.1667H14.3C13.3178 29.1667 12.5 28.3864 12.5 27.448V12.5321C12.5 11.5936 13.3178 10.8334 14.3 10.8334H20.9276C21.2438 10.8334 21.5 11.078 21.5 11.3799V15.4614C21.5 16.0698 22.016 16.5625 22.6532 16.5625ZM16.7 25.1563H23.3C23.6312 25.1563 23.9 24.9002 23.9 24.5834C23.9 24.2666 23.6312 24.0105 23.3 24.0105H16.7C16.3688 24.0105 16.1 24.2666 16.1 24.5834C16.1 24.9002 16.3688 25.1563 16.7 25.1563ZM16.7 22.8646H23.3C23.6312 22.8646 23.9 22.6085 23.9 22.2917C23.9 21.9749 23.6312 21.7188 23.3 21.7188H16.7C16.3688 21.7188 16.1 21.9749 16.1 22.2917C16.1 22.6085 16.3688 22.8646 16.7 22.8646ZM16.7 20.573H23.3C23.6312 20.573 23.9 20.3163 23.9 20C23.9 19.6838 23.6312 19.4271 23.3 19.4271H16.7C16.3688 19.4271 16.1 19.6838 16.1 20C16.1 20.3163 16.3688 20.573 16.7 20.573ZM26.117 15.4167H23.2724C22.9562 15.4167 22.7 15.1715 22.7 14.8701V12.1539C22.7 11.9322 22.8392 11.7323 23.054 11.6486C23.267 11.5638 23.5142 11.6108 23.6774 11.7667L26.522 14.4829C26.6858 14.6393 26.735 14.8753 26.6462 15.0787C26.558 15.2838 26.3492 15.4167 26.117 15.4167Z" fill="white"/>
</svg>
