<svg width="24" height="18" viewBox="0 0 24 18" fill="none" xmlns="http://www.w3.org/2000/svg">
<path fill-rule="evenodd" clip-rule="evenodd" d="M21.9984 5.88471H16.3793L14.1204 8.80287H13.918C14.0435 8.53803 14.1138 8.24128 14.1138 7.92791V6.89556C14.1138 5.86671 13.3561 5.01707 12.3749 4.88763C12.5174 4.60907 12.5979 4.29273 12.5979 3.95734V2.92499C12.5979 1.80662 11.7026 0.899994 10.5981 0.899994H4.92102C3.81654 0.899994 2.92118 1.80662 2.92118 2.92499V3.95734C2.92118 4.29079 3.00078 4.60543 3.14179 4.88282C2.14143 4.99431 1.36322 5.85291 1.36322 6.89556V7.9279C1.36322 8.25888 1.44164 8.57131 1.58069 8.84719C0.495809 9.08037 -0.228036 10.1977 0.0657309 11.3387L1.15917 15.5858C1.38878 16.4777 2.18415 17.1 3.09433 17.1H19.4423C20.2848 17.1 21.0369 16.5653 21.3231 15.763L23.8793 8.59769C24.3502 7.27771 23.3845 5.88471 21.9984 5.88471ZM22.6254 8.13903L20.0692 15.3043C19.9738 15.5718 19.7231 15.75 19.4423 15.75H3.09433C2.79094 15.75 2.52581 15.5425 2.44928 15.2453L1.35584 10.9981C1.24574 10.5705 1.56445 10.1529 2.00089 10.1529H14.7693L17.0282 7.2347H21.9984C22.4605 7.2347 22.7824 7.69904 22.6254 8.13903ZM10.5981 2.24999H4.92102C4.55286 2.24999 4.2544 2.5522 4.2544 2.92499V3.95734C4.2544 4.33013 4.55286 4.63234 4.92101 4.63234H10.5981C10.9662 4.63234 11.2647 4.33013 11.2647 3.95734V2.92499C11.2647 2.5522 10.9662 2.24999 10.5981 2.24999ZM12.7806 6.89556C12.7806 6.52277 12.4822 6.22056 12.114 6.22056H3.36306C2.9949 6.22056 2.69645 6.52277 2.69645 6.89556V7.9279C2.69645 8.3007 2.9949 8.60291 3.36306 8.60291H12.114C12.4822 8.60291 12.7806 8.3007 12.7806 7.92791V6.89556ZM5.25434 13.725C5.80657 13.725 6.25425 13.2717 6.25425 12.7125C6.25425 12.1533 5.80657 11.7 5.25434 11.7C4.7021 11.7 4.25442 12.1533 4.25442 12.7125C4.25442 13.2717 4.7021 13.725 5.25434 13.725ZM10.9281 12.7125C10.9281 13.2717 10.4804 13.725 9.92814 13.725C9.3759 13.725 8.92822 13.2717 8.92822 12.7125C8.92822 12.1533 9.3759 11.7 9.92814 11.7C10.4804 11.7 10.9281 12.1533 10.9281 12.7125ZM14.6014 13.725C15.1537 13.725 15.6013 13.2717 15.6013 12.7125C15.6013 12.1533 15.1537 11.7 14.6014 11.7C14.0492 11.7 13.6015 12.1533 13.6015 12.7125C13.6015 13.2717 14.0492 13.725 14.6014 13.725Z" fill="#212121"/>
</svg>
