<svg width="16" height="16" viewBox="0 0 16 16" fill="none" xmlns="http://www.w3.org/2000/svg">
<path fill-rule="evenodd" clip-rule="evenodd" d="M1.33331 4.00016C1.33331 3.63197 1.6475 3.3335 2.03507 3.3335H5.61402C6.00158 3.3335 6.31577 3.63197 6.31577 4.00016C6.31577 4.36835 6.00158 4.66683 5.61402 4.66683H2.03507C1.6475 4.66683 1.33331 4.36835 1.33331 4.00016ZM11.3634 3.52876C11.6375 3.26841 12.0818 3.26841 12.3558 3.52876L14.4611 5.52876C14.7352 5.78911 14.7352 6.21122 14.4611 6.47157C14.1871 6.73192 13.7427 6.73192 13.4687 6.47157L12.5614 5.60964V12.0002C12.5614 12.3684 12.2472 12.6668 11.8596 12.6668C11.4721 12.6668 11.1579 12.3684 11.1579 12.0002V5.60964L10.2506 6.47157C9.97653 6.73192 9.5322 6.73192 9.25815 6.47157C8.9841 6.21122 8.9841 5.78911 9.25815 5.52876L11.3634 3.52876ZM1.33331 8.00016C1.33331 7.63197 1.6475 7.3335 2.03507 7.3335H6.94735C7.33492 7.3335 7.6491 7.63197 7.6491 8.00016C7.6491 8.36835 7.33492 8.66683 6.94735 8.66683H2.03507C1.6475 8.66683 1.33331 8.36835 1.33331 8.00016ZM1.33331 12.0002C1.33331 11.632 1.6475 11.3335 2.03507 11.3335H8.35086C8.73843 11.3335 9.05261 11.632 9.05261 12.0002C9.05261 12.3684 8.73843 12.6668 8.35086 12.6668H2.03507C1.6475 12.6668 1.33331 12.3684 1.33331 12.0002Z" fill="#0171A1"/>
</svg>
