<svg width="16" height="16" viewBox="0 0 16 16" fill="none" xmlns="http://www.w3.org/2000/svg">
<path fill-rule="evenodd" clip-rule="evenodd" d="M14.6667 12C14.6667 12.3682 14.3525 12.6667 13.9649 12.6667L10.386 12.6667C9.99841 12.6667 9.68422 12.3682 9.68422 12C9.68422 11.6318 9.99841 11.3333 10.386 11.3333L13.9649 11.3333C14.3525 11.3333 14.6667 11.6318 14.6667 12ZM4.63657 12.4714C4.36252 12.7318 3.9182 12.7318 3.64414 12.4714L1.53888 10.4714C1.26483 10.2111 1.26483 9.78894 1.53888 9.52859C1.81293 9.26824 2.25726 9.26824 2.53131 9.52859L3.4386 10.3905L3.43861 4C3.43861 3.63181 3.75279 3.33333 4.14036 3.33333C4.52793 3.33333 4.84211 3.63181 4.84211 4L4.84211 10.3905L5.74941 9.52859C6.02346 9.26824 6.46779 9.26824 6.74184 9.52859C7.01589 9.78894 7.01589 10.2111 6.74184 10.4714L4.63657 12.4714ZM14.6667 8C14.6667 8.36819 14.3525 8.66666 13.9649 8.66666L9.05264 8.66666C8.66507 8.66666 8.35089 8.36819 8.35089 8C8.35089 7.63181 8.66507 7.33333 9.05264 7.33333L13.9649 7.33333C14.3525 7.33333 14.6667 7.63181 14.6667 8ZM14.6667 4C14.6667 4.36819 14.3525 4.66666 13.9649 4.66666L7.64913 4.66666C7.26156 4.66666 6.94738 4.36819 6.94738 4C6.94738 3.63181 7.26156 3.33333 7.64913 3.33333L13.9649 3.33333C14.3525 3.33333 14.6667 3.63181 14.6667 4Z" fill="#0171A1"/>
</svg>
