<svg width="16" height="16" viewBox="0 0 16 16" fill="none" xmlns="http://www.w3.org/2000/svg">
<path d="M5.7575 8.90005C5.93162 8.90005 6.09161 8.9914 6.17377 9.13774C6.25593 9.28408 6.24692 9.46156 6.15034 9.59971L2.86266 14.3H5.7575C6.01825 14.3 6.22963 14.5016 6.22963 14.75C6.22963 14.9985 6.01825 15.2 5.7575 15.2H1.98048C1.80636 15.2 1.64638 15.1087 1.56422 14.9624C1.48206 14.8161 1.49107 14.6385 1.58765 14.5005L4.87532 9.80005H1.98048C1.71974 9.80005 1.50835 9.59854 1.50835 9.35005C1.50835 9.10156 1.71974 8.90005 1.98048 8.90005H5.7575ZM10.9509 0.800049C11.2116 0.800049 11.423 1.00152 11.423 1.25005V13.6637L14.394 10.8318C14.5784 10.6561 14.8774 10.6561 15.0618 10.8318C15.2461 11.0076 15.2461 11.2925 15.0618 11.4683L11.2848 15.0683C11.1004 15.244 10.8014 15.244 10.617 15.0683L6.84004 11.4683C6.65566 11.2925 6.65566 11.0076 6.84004 10.8318C7.02442 10.6561 7.32335 10.6561 7.50772 10.8318L10.4788 13.6637V1.25005C10.4788 1.00152 10.6902 0.800049 10.9509 0.800049ZM3.869 0.800049C4.06312 0.800049 4.23746 0.913296 4.30844 1.0855L6.90514 7.3855C7.00048 7.61682 6.88103 7.87801 6.63834 7.96889C6.39565 8.05972 6.12161 7.94591 6.02627 7.7146L5.40202 6.20005H2.33599L1.71174 7.7146C1.6164 7.94591 1.34236 8.05972 1.09967 7.96889C0.856979 7.87801 0.737522 7.61682 0.832872 7.3855L3.42957 1.0855C3.50055 0.913296 3.67488 0.800049 3.869 0.800049ZM3.869 2.48073L2.70695 5.30005H5.03106L3.869 2.48073Z" fill="#0171A1"/>
</svg>
