<svg width="20" height="18" viewBox="0 0 20 18" fill="none" xmlns="http://www.w3.org/2000/svg">
<path d="M16.1919 0.937854C15.8391 0.576257 15.2671 0.576257 14.9143 0.937854C14.5614 1.29945 14.5614 1.88571 14.9143 2.24731L15.8952 3.25267H10.7713C10.4763 3.25267 10.1998 3.4003 10.0308 3.64812L7.14302 7.8823H1.73693C1.23798 7.8823 0.833496 8.29685 0.833496 8.80822C0.833496 9.3196 1.23798 9.73415 1.73693 9.73415H7.13889L10.0312 13.9688C10.2002 14.2164 10.4765 14.3638 10.7713 14.3638H16.2694L14.9143 15.7527C14.5614 16.1143 14.5614 16.7005 14.9143 17.0621C15.2671 17.4237 15.8391 17.4237 16.1919 17.0621L18.9022 14.2843C19.255 13.9228 19.255 13.3365 18.9022 12.9749L16.1919 10.1971C15.8391 9.83552 15.2671 9.83552 14.9143 10.1971C14.5614 10.5587 14.5614 11.145 14.9143 11.5066L15.8952 12.5119H11.2417L8.71406 8.81115L11.2421 5.10452H16.2694L14.9143 6.49341C14.5614 6.85501 14.5614 7.44127 14.9143 7.80287C15.2671 8.16446 15.8391 8.16446 16.1919 7.80287L18.9022 5.02509C19.255 4.66349 19.255 4.07723 18.9022 3.71563L16.1919 0.937854Z" fill="#0171A1"/>
</svg>
