<svg width="20" height="18" viewBox="0 0 20 18" fill="none" xmlns="http://www.w3.org/2000/svg">
<path d="M16.1917 0.937945C15.8389 0.576349 15.2668 0.576349 14.914 0.937945C14.5612 1.29954 14.5612 1.88581 14.914 2.2474L15.8949 3.25276H10.7711C10.476 3.25276 10.1996 3.40039 10.0306 3.64821L7.14278 7.88239H1.73669C1.23773 7.88239 0.833252 8.29694 0.833252 8.80831C0.833252 9.31969 1.23773 9.73424 1.73669 9.73424H7.13865L10.0309 13.9689C10.2 14.2165 10.4762 14.3639 10.7711 14.3639H16.2692L14.914 15.7528C14.5612 16.1144 14.5612 16.7006 14.914 17.0622C15.2668 17.4238 15.8389 17.4238 16.1917 17.0622L18.902 14.2844C19.2548 13.9228 19.2548 13.3366 18.902 12.975L16.1917 10.1972C15.8389 9.83561 15.2668 9.83561 14.914 10.1972C14.5612 10.5588 14.5612 11.1451 14.914 11.5067L15.8949 12.512H11.2414L8.71381 8.81124L11.2418 5.10461H16.2692L14.914 6.4935C14.5612 6.8551 14.5612 7.44136 14.914 7.80296C15.2668 8.16455 15.8389 8.16455 16.1917 7.80296L18.902 5.02518C19.2548 4.66358 19.2548 4.07732 18.902 3.71572L16.1917 0.937945Z" fill="#0171A1"/>
</svg>
