<svg width="48" height="48" viewBox="0 0 48 48" fill="none" xmlns="http://www.w3.org/2000/svg">
<path d="M22.5 5.27999V13.92C22.5 16.3059 20.4853 18.24 18 18.24H9V39.84C9 41.4306 10.3431 42.72 12 42.72H36C37.6569 42.72 39 41.4306 39 39.84V8.15999C39 6.56941 37.6569 5.27999 36 5.27999H22.5V5.27999ZM11.121 15.36H18C18.8284 15.36 19.5 14.7153 19.5 13.92V7.31615L11.121 15.36ZM20.379 2.39999H36C39.3137 2.39999 42 4.97883 42 8.15999V39.84C42 43.0212 39.3137 45.6 36 45.6H12H12C8.68629 45.6 6 43.0212 6 39.84V16.2038L20.379 2.39999H20.379ZM18 26.88C17.1716 26.88 16.5 26.2353 16.5 25.44C16.5 24.6447 17.1716 24 18 24H30C30.8284 24 31.5 24.6447 31.5 25.44C31.5 26.2353 30.8284 26.88 30 26.88H18ZM18 31.2C17.1716 31.2 16.5 30.5553 16.5 29.76C16.5 28.9647 17.1716 28.32 18 28.32H30C30.8284 28.32 31.5 28.9647 31.5 29.76C31.5 30.5553 30.8284 31.2 30 31.2H18Z" fill="#0171A1"/>
</svg>