<svg width="16" height="16" viewBox="0 0 16 16" fill="none" xmlns="http://www.w3.org/2000/svg">
<path fill-rule="evenodd" clip-rule="evenodd" d="M5.59982 0C4.53943 0 3.67982 0.842758 3.67982 1.88235V5.00531C3.98921 4.91952 4.31014 4.86069 4.63982 4.83156V1.88235C4.63982 1.36256 5.06963 0.941177 5.59982 0.941177H9.43981V4.23529C9.43981 5.01499 10.0845 5.64706 10.8798 5.64706H14.2398V13.1765C14.2398 13.6963 13.81 14.1176 13.2798 14.1176H11.6241C11.4485 14.4544 11.2364 14.7698 10.9929 15.0588H13.2798C14.3402 15.0588 15.1998 14.2161 15.1998 13.1765V5.09573C15.1998 4.72131 15.0481 4.36222 14.7781 4.09746L11.0204 0.413497C10.7503 0.148744 10.3841 0 10.0022 0H5.59982ZM14.041 4.70588H10.8798C10.6148 4.70588 10.3998 4.49519 10.3998 4.23529V1.1361L14.041 4.70588ZM5.78646 16C8.54052 16 10.7731 13.8112 10.7731 11.1111C10.7731 8.41105 8.54052 6.22222 5.78646 6.22222C3.03241 6.22222 0.799805 8.41105 0.799805 11.1111C0.799805 13.8112 3.03241 16 5.78646 16ZM5.74983 15.1111C7.98658 15.1111 9.79983 13.3203 9.79983 11.1111C9.79983 8.90198 7.98658 7.11111 5.74983 7.11111C3.51308 7.11111 1.69983 8.90198 1.69983 11.1111C1.69983 13.3203 3.51308 15.1111 5.74983 15.1111ZM3.88262 11.283L4.90623 12.3578L7.29249 9.35113C7.43391 9.17294 7.68614 9.14886 7.85585 9.29736C8.02556 9.44585 8.04849 9.71069 7.90706 9.88889L5.2404 13.2489C5.08982 13.4386 4.81659 13.4516 4.65027 13.277L3.31694 11.877C3.16073 11.713 3.16073 11.447 3.31694 11.283C3.47315 11.119 3.72641 11.119 3.88262 11.283Z" fill="#4A4A4A"/>
</svg>
