<svg width="13" height="18" viewBox="0 0 13 18" fill="none" xmlns="http://www.w3.org/2000/svg">
<path d="M10.1965 12.4781C10.6035 12.8809 10.6035 13.534 10.1965 13.9368L7.06994 17.0312C6.66294 17.434 6.00307 17.434 5.59607 17.0312L2.46951 13.9368C2.06252 13.534 2.06252 12.8809 2.46951 12.4781C2.87651 12.0753 3.53639 12.0753 3.94339 12.4781L5.29082 13.8117L5.29082 6.51394L10.8092 0.972282C11.215 0.564785 11.8729 0.564785 12.2787 0.972282C12.6845 1.37978 12.6845 2.04047 12.2787 2.44796L7.37519 7.37214V13.6423L7.59103 13.598L8.72262 12.4781C9.12962 12.0753 9.78949 12.0753 10.1965 12.4781Z" fill="#4A4A4A"/>
<path d="M0.387345 0.972282C0.79313 0.564785 1.45104 0.564785 1.85683 0.972284L4.67593 3.80329L3.20645 5.27897L0.387345 2.44796C-0.0184402 2.04047 -0.0184402 1.37978 0.387345 0.972282Z" fill="#4A4A4A"/>
</svg>
