<svg width="14" height="18" viewBox="0 0 14 18" fill="none" xmlns="http://www.w3.org/2000/svg">
<path d="M3.13652 5.52193C2.72952 5.11911 2.72952 4.46602 3.13652 4.0632L6.26307 0.968769C6.67007 0.565952 7.32994 0.565952 7.73694 0.968769L10.8635 4.0632C11.2705 4.46602 11.2705 5.11911 10.8635 5.52193C10.4565 5.92475 9.79662 5.92475 9.38962 5.52193L8.04218 4.18834V11.4861L2.52382 17.0277C2.11803 17.4352 1.46012 17.4352 1.05434 17.0277C0.648553 16.6202 0.648554 15.9595 1.05434 15.552L5.95782 10.6279V4.35773L5.74197 4.40197L4.61039 5.52193C4.20339 5.92475 3.54351 5.92475 3.13652 5.52193Z" fill="#4A4A4A"/>
<path d="M12.9457 17.0277C12.5399 17.4352 11.882 17.4352 11.4762 17.0277L8.65707 14.1967L10.1266 12.721L12.9457 15.552C13.3514 15.9595 13.3514 16.6202 12.9457 17.0277Z" fill="#4A4A4A"/>
</svg>
