<svg width="24" height="24" viewBox="0 0 24 24" fill="none" xmlns="http://www.w3.org/2000/svg">
<path d="M18.5454 2.72729C18.5454 2.42609 18.3012 2.18183 18 2.18183C17.6988 2.18183 17.4545 2.42609 17.4545 2.72729V7.95594L15.6584 6.15974C15.4454 5.9468 15.1 5.9468 14.8869 6.15974C14.674 6.3728 14.674 6.71818 14.8869 6.93124L17.6142 9.65853C17.8273 9.87147 18.1727 9.87147 18.3857 9.65853L21.113 6.93124C21.3259 6.71818 21.3259 6.3728 21.113 6.15974C20.8999 5.9468 20.5546 5.9468 20.3415 6.15974L18.5454 7.95594V2.72729Z" fill="#0171A1"/>
<path fill-rule="evenodd" clip-rule="evenodd" d="M18 12.0001C14.6862 12.0001 11.9999 9.31376 11.9999 6.00003C11.9999 2.68631 14.6862 0 18 0C21.3137 0 24 2.68631 24 6.00003C24 9.31376 21.3137 12.0001 18 12.0001ZM18 10.9092C15.2887 10.9092 13.0908 8.71126 13.0908 6.00003C13.0908 3.2888 15.2887 1.09092 18 1.09092C20.7112 1.09092 22.9091 3.2888 22.9091 6.00003C22.9091 8.71126 20.7112 10.9092 18 10.9092Z" fill="#0171A1"/>
<path fill-rule="evenodd" clip-rule="evenodd" d="M13.6943 12.0765C13.6943 11.9068 13.6739 11.7435 13.6352 11.5888C13.1445 11.2051 12.7057 10.7581 12.3309 10.2602C12.1728 10.2184 12.0054 10.1962 11.8313 10.1962H10.5893V7.68929C10.5893 7.50127 10.5272 7.37592 10.403 7.25057C9.47146 6.31046 7.98104 6.31046 7.04952 7.25057C6.92532 7.37592 6.86322 7.50127 6.86322 7.68929V10.1962H5.6212C4.56549 10.1962 3.75817 11.011 3.75817 12.0765V15.7115L1.70885 16.5263C1.52254 16.589 1.39834 16.7143 1.33624 16.8397C1.27414 17.0277 1.27414 17.153 1.33624 17.3411L2.08145 19.2213L8.47785 16.5263C8.53995 16.4636 8.66415 16.4636 8.72625 16.4636C8.799 16.4636 8.85045 16.4851 8.89307 16.5029C8.92321 16.5155 8.94893 16.5263 8.97465 16.5263L15.371 19.2213L16.1163 17.2784C16.1784 17.0904 16.1784 16.9023 16.1163 16.777C16.0542 16.6516 15.93 16.5263 15.7437 16.4636L13.6943 15.7115V12.0765ZM6.24221 12.0765H11.2103C11.5829 12.0765 11.8313 12.3271 11.8313 12.7032C11.8313 13.0792 11.5829 13.3299 11.2103 13.3299H6.24221C5.86961 13.3299 5.6212 13.0792 5.6212 12.7032C5.6212 12.3271 5.86961 12.0765 6.24221 12.0765Z" fill="#0171A1"/>
<path d="M3.38577 22.5428C2.51635 21.8534 1.15013 21.8534 0.28072 22.5428C-0.0297852 22.7935 -0.0297852 23.1696 0.0323162 23.4203C0.21862 23.671 0.653324 23.671 0.90173 23.4829C1.33644 23.1696 2.01955 23.1696 2.45425 23.4829C3.32367 24.1724 4.68989 24.1724 5.5593 23.4829C5.99401 23.1696 6.67711 23.1696 7.11182 23.4829C7.98124 24.1724 9.34746 24.1724 10.2169 23.4829C10.6516 23.1696 11.3347 23.1696 11.7694 23.4829C12.2041 23.7963 12.763 23.9843 13.3219 23.9843C13.8808 23.9843 14.4397 23.859 14.8744 23.4829C15.3091 23.1696 15.9923 23.1696 16.427 23.4829C16.6754 23.7336 17.1101 23.671 17.2964 23.4203C17.5448 23.1696 17.4827 22.7309 17.2343 22.5428C16.3649 21.8534 14.9986 21.8534 14.1292 22.5428H14.0671L14.9365 20.3493L8.78855 17.717L2.57845 20.3493L3.44787 22.5428H3.38577Z" fill="#0171A1"/>
</svg>
