<svg width="24" height="24" viewBox="0 0 24 24" fill="none" xmlns="http://www.w3.org/2000/svg">
<path fill-rule="evenodd" clip-rule="evenodd" d="M8.47981 9.98075L2.08345 12.6757L1.33824 10.7328C1.27614 10.5448 1.27614 10.3568 1.33824 10.2314C1.40034 10.1061 1.52454 9.98075 1.71085 9.91807L3.76016 9.16599V5.53093C3.76016 4.46548 4.56747 3.65073 5.62318 3.65073H6.86519V1.14379C6.86519 0.95577 6.9273 0.830423 7.0515 0.705076C7.98301 -0.235025 9.47342 -0.235025 10.4049 0.705076C10.5291 0.830423 10.5912 0.95577 10.5912 1.14379V3.65073H11.8332C12.889 3.65073 13.6963 4.46548 13.6963 5.53093V9.16599L15.7456 9.98075C15.9319 10.0434 16.0561 10.1688 16.1182 10.2941C16.1803 10.4821 16.1803 10.6075 16.1182 10.7955L15.9545 11.2086C15.2675 11.4152 14.6244 11.7232 14.0427 12.1152L8.97661 9.98075C8.91451 9.91807 8.79031 9.91807 8.72821 9.91807C8.65546 9.91807 8.60401 9.93958 8.56139 9.95739C8.53126 9.96999 8.50553 9.98075 8.47981 9.98075ZM11.2122 5.53093H6.24419C5.87158 5.53093 5.62318 5.78162 5.62318 6.15767C5.62318 6.53371 5.87158 6.7844 6.24419 6.7844H11.2122C11.5848 6.7844 11.8332 6.53371 11.8332 6.15767C11.8332 5.78162 11.5848 5.53093 11.2122 5.53093Z" fill="#0171A1"/>
<path d="M11.027 16.7052C11.2915 15.2718 11.9871 13.9894 12.9743 12.9976L8.66591 11.1714L2.51796 13.8037L3.38736 15.9973H3.32526C2.45585 15.3078 1.08964 15.3078 0.220233 15.9973C-0.028169 16.1853 -0.0902695 16.624 0.158133 16.8747C0.344435 17.1254 0.779139 17.1881 1.02754 16.9374C1.46225 16.624 2.14535 16.624 2.58006 16.9374C3.01476 17.3134 3.57367 17.4387 4.13257 17.4387C4.69148 17.4387 5.25038 17.2507 5.68509 16.9374C6.11979 16.624 6.8029 16.624 7.2376 16.9374C8.10701 17.6268 9.47322 17.6268 10.3426 16.9374C10.5361 16.7979 10.7789 16.7205 11.027 16.7052Z" fill="#0171A1"/>
<path d="M14.7273 17.4545C14.4261 17.4545 14.1818 17.6988 14.1818 18C14.1818 18.3012 14.4261 18.5455 14.7273 18.5455H19.9559L18.1597 20.3415C17.9468 20.5546 17.9468 20.9 18.1597 21.113C18.3728 21.326 18.7181 21.326 18.9312 21.113L21.6585 18.3857C21.8714 18.1727 21.8714 17.8273 21.6585 17.6143L18.9312 14.887C18.7181 14.674 18.3728 14.674 18.1597 14.887C17.9468 15.1 17.9468 15.4454 18.1597 15.6585L19.9559 17.4545H14.7273Z" fill="#0171A1"/>
<path fill-rule="evenodd" clip-rule="evenodd" d="M18 24C21.3137 24 24 21.3137 24 18C24 14.6863 21.3137 12 18 12C14.6863 12 12 14.6863 12 18C12 21.3137 14.6863 24 18 24ZM18 22.9091C20.7112 22.9091 22.9091 20.7112 22.9091 18C22.9091 15.2888 20.7112 13.0909 18 13.0909C15.2888 13.0909 13.0909 15.2888 13.0909 18C13.0909 20.7112 15.2888 22.9091 18 22.9091Z" fill="#0171A1"/>
</svg>
