<svg width="24" height="24" viewBox="0 0 24 24" fill="none" xmlns="http://www.w3.org/2000/svg">
<path fill-rule="evenodd" clip-rule="evenodd" d="M8.47986 9.9808L2.08346 12.6758L1.33825 10.7329C1.27615 10.5449 1.27615 10.3568 1.33825 10.2315C1.40035 10.1061 1.52455 9.9808 1.71086 9.91813L3.76019 9.16604L3.76019 5.53096C3.76019 4.46551 4.5675 3.65075 5.62321 3.65075H6.86523L6.86523 1.1438C6.86523 0.955775 6.92733 0.830428 7.05154 0.70508C7.98305 -0.235027 9.47347 -0.235027 10.405 0.70508C10.5292 0.830428 10.5913 0.955775 10.5913 1.1438V3.65075H11.8333C12.889 3.65075 13.6963 4.46551 13.6963 5.53096L13.6963 9.16604L15.7457 9.9808C15.932 10.0435 16.0562 10.1688 16.1183 10.2942C16.1804 10.4822 16.1804 10.6075 16.1183 10.7956L15.9545 11.2087C15.2676 11.4153 14.6245 11.7233 14.0427 12.1153L8.97666 9.9808C8.91456 9.91813 8.79036 9.91813 8.72826 9.91813C8.65551 9.91813 8.60406 9.93963 8.56144 9.95745C8.5313 9.97005 8.50558 9.9808 8.47986 9.9808ZM11.2123 5.53096L6.24422 5.53096C5.87162 5.53096 5.62321 5.78166 5.62321 6.1577C5.62321 6.53374 5.87162 6.78444 6.24422 6.78444L11.2123 6.78444C11.5849 6.78444 11.8333 6.53374 11.8333 6.1577C11.8333 5.78166 11.5849 5.53096 11.2123 5.53096Z" fill="#0171A1"/>
<path d="M11.0271 16.7053C11.2916 15.2718 11.9872 13.9895 12.9744 12.9977L8.66596 11.1715L2.51797 13.8038L3.38738 15.9973H3.32528C2.45587 15.3079 1.08965 15.3079 0.220235 15.9973C-0.0281692 16.1854 -0.09027 16.6241 0.158134 16.8748C0.344437 17.1255 0.779143 17.1881 1.02755 16.9375C1.46225 16.6241 2.14536 16.6241 2.58007 16.9375C3.01478 17.3135 3.57369 17.4388 4.13259 17.4388C4.6915 17.4388 5.25041 17.2508 5.68512 16.9375C6.11982 16.6241 6.80293 16.6241 7.23764 16.9375C8.10705 17.6269 9.47327 17.6269 10.3427 16.9375C10.5362 16.7979 10.779 16.7205 11.0271 16.7053Z" fill="#0171A1"/>
<path d="M16.4228 19.8969L20.8872 15.4325C21.1002 15.2195 21.4456 15.2195 21.6586 15.4325C21.8716 15.6456 21.8716 15.9909 21.6586 16.2039L16.7495 21.1131C16.5147 21.3478 16.1266 21.3202 15.9274 21.0546L14.291 18.8728C14.1103 18.6318 14.1591 18.2899 14.4001 18.1092C14.6411 17.9284 14.983 17.9773 15.1638 18.2183L16.4228 19.8969Z" fill="#0171A1"/>
<path fill-rule="evenodd" clip-rule="evenodd" d="M18.0001 24.0001C21.3138 24.0001 24.0001 21.3138 24.0001 18.0001C24.0001 14.6864 21.3138 12.0001 18.0001 12.0001C14.6864 12.0001 12.0001 14.6864 12.0001 18.0001C12.0001 21.3138 14.6864 24.0001 18.0001 24.0001ZM18.0001 22.9092C20.7113 22.9092 22.9092 20.7113 22.9092 18.0001C22.9092 15.2889 20.7113 13.091 18.0001 13.091C15.2889 13.091 13.091 15.2889 13.091 18.0001C13.091 20.7113 15.2889 22.9092 18.0001 22.9092Z" fill="#0171A1"/>
</svg>
