<svg width="24" height="24" viewBox="0 0 24 24" fill="none" xmlns="http://www.w3.org/2000/svg">
<path fill-rule="evenodd" clip-rule="evenodd" d="M15.0248 9.98075L9.95758 12.1157C9.38221 11.7279 8.74688 11.4223 8.06842 11.2157L7.88322 10.7328C7.82112 10.5448 7.82112 10.3568 7.88322 10.2314C7.94532 10.1061 8.06953 9.98075 8.25583 9.91807L10.3051 9.16599V5.53093C10.3051 4.46548 11.1125 3.65073 12.1682 3.65073H13.4102V1.14379C13.4102 0.95577 13.4723 0.830423 13.5965 0.705076C14.528 -0.235025 16.0184 -0.235025 16.9499 0.705076C17.0741 0.830423 17.1362 0.95577 17.1362 1.14379V3.65073H18.3782C19.4339 3.65073 20.2412 4.46548 20.2412 5.53093V9.16599L22.2906 9.98075C22.4769 10.0434 22.6011 10.1688 22.6632 10.2941C22.7253 10.4821 22.7253 10.6075 22.6632 10.7955L21.918 12.6757L15.5216 9.98075C15.4595 9.91807 15.3353 9.91807 15.2732 9.91807C15.2004 9.91807 15.149 9.93958 15.1064 9.95739C15.0762 9.96999 15.0505 9.98075 15.0248 9.98075ZM17.7572 5.53093H12.7892C12.4166 5.53093 12.1682 5.78162 12.1682 6.15767C12.1682 6.53371 12.4166 6.7844 12.7892 6.7844H17.7572C18.1298 6.7844 18.3782 6.53371 18.3782 6.15767C18.3782 5.78162 18.1298 5.53093 17.7572 5.53093Z" fill="#0171A1"/>
<path d="M11.0013 12.9738C12.0006 13.9682 12.7051 15.2588 12.972 16.7027C13.2628 16.6961 13.5563 16.7743 13.7826 16.9374C14.652 17.6268 16.0182 17.6268 16.8876 16.9374C17.3223 16.624 18.0054 16.624 18.4401 16.9374C19.3095 17.6268 20.6757 17.6268 21.5452 16.9374C21.9799 16.624 22.663 16.624 23.0977 16.9374C23.3461 17.1254 23.7808 17.1254 23.9671 16.8747C24.0292 16.624 24.0292 16.248 23.7187 15.9973C22.8493 15.3078 21.4831 15.3078 20.6136 15.9973H20.5515L21.421 13.8037L15.2109 11.1714L11.0013 12.9738Z" fill="#0171A1"/>
<path d="M5.45455 14.7273C5.45455 14.4261 5.6988 14.1818 6 14.1818C6.3012 14.1818 6.54545 14.4261 6.54545 14.7273V19.9559L8.34153 18.1597C8.55458 17.9468 8.89996 17.9468 9.11302 18.1597C9.32596 18.3728 9.32596 18.7181 9.11302 18.9312L6.38574 21.6585C6.17269 21.8714 5.82731 21.8714 5.61425 21.6585L2.88698 18.9312C2.67404 18.7181 2.67404 18.3728 2.88698 18.1597C3.10004 17.9468 3.44542 17.9468 3.65847 18.1597L5.45455 19.9559V14.7273Z" fill="#0171A1"/>
<path fill-rule="evenodd" clip-rule="evenodd" d="M6 24C9.31371 24 12 21.3137 12 18C12 14.6863 9.31371 12 6 12C2.68629 12 0 14.6863 0 18C0 21.3137 2.68629 24 6 24ZM6 22.9091C8.71122 22.9091 10.9091 20.7112 10.9091 18C10.9091 15.2888 8.71122 13.0909 6 13.0909C3.28878 13.0909 1.09091 15.2888 1.09091 18C1.09091 20.7112 3.28878 22.9091 6 22.9091Z" fill="#0171A1"/>
</svg>
