<svg width="12" height="12" viewBox="0 0 12 12" fill="none" xmlns="http://www.w3.org/2000/svg">
<path d="M7.1 1.81818C7.1 1.21569 6.60751 0.727273 6 0.727273C5.39249 0.727273 4.9 1.21569 4.9 1.81818H4.16667C4.16667 0.814028 4.98748 0 6 0C7.01252 0 7.83333 0.814028 7.83333 1.81818H11.1333C11.3358 1.81818 11.5 1.98099 11.5 2.18182C11.5 2.38265 11.3358 2.54545 11.1333 2.54545H10.7271L9.77662 10.7122C9.69123 11.4461 9.0646 12 8.31963 12H3.68038C2.9354 12 2.30877 11.4461 2.22338 10.7122L1.2722 2.54545H0.866667C0.686663 2.54545 0.536954 2.41682 0.505908 2.24718L0.5 2.18182C0.5 1.98099 0.664162 1.81818 0.866667 1.81818H7.1ZM9.98787 2.54545H2.0114L2.95188 10.6288C2.99457 10.9958 3.30789 11.2727 3.68038 11.2727H8.31963C8.69211 11.2727 9.00543 10.9958 9.04812 10.6288L9.98787 2.54545ZM4.9 4.36364C5.08 4.36364 5.22971 4.47619 5.26076 4.62462L5.26667 4.68182V9.13636C5.26667 9.31209 5.1025 9.45455 4.9 9.45455C4.72 9.45455 4.57029 9.34199 4.53924 9.19356L4.53333 9.13636V4.68182C4.53333 4.50609 4.6975 4.36364 4.9 4.36364ZM7.1 4.36364C7.28 4.36364 7.42971 4.47619 7.46076 4.62462L7.46667 4.68182V9.13636C7.46667 9.31209 7.3025 9.45455 7.1 9.45455C6.92 9.45455 6.77029 9.34199 6.73924 9.19356L6.73333 9.13636V4.68182C6.73333 4.50609 6.8975 4.36364 7.1 4.36364Z" fill="white"/>
</svg>
