<svg width="64" height="45" viewBox="0 0 64 45" fill="none" xmlns="http://www.w3.org/2000/svg">
<path fill-rule="evenodd" clip-rule="evenodd" d="M2.28571 0.666748C1.02335 0.666748 0 1.69499 0 2.9634V37.4132C0 38.6816 1.02335 39.7098 2.28571 39.7098H7.24735C8.1887 42.3858 10.7287 44.3031 13.7143 44.3031C16.6999 44.3031 19.2399 42.3858 20.1812 39.7098H38.8529C38.8543 39.7098 38.8557 39.7098 38.8571 39.7098C40.1195 39.7098 41.1429 38.6816 41.1429 37.4132L41.1429 14.4467H51.4729L59.4286 24.4389V35.1165H56.7527C55.8114 32.4404 53.2714 30.5231 50.2857 30.5231C46.4986 30.5231 43.4286 33.6079 43.4286 37.4131C43.4286 41.2183 46.4986 44.3031 50.2857 44.3031C53.2713 44.3031 55.8113 42.3858 56.7527 39.7098H61.7143C62.9767 39.7098 64 38.6816 64 37.4132V23.6333C64 23.1118 63.8234 22.6058 63.4991 22.1986L54.3563 10.7153C53.9225 10.1705 53.2658 9.85336 52.5714 9.85336H41.1429V2.9634C41.1429 1.69499 40.1195 0.666748 38.8571 0.666748H2.28571ZM36.5714 12.1458V5.26005H4.57143V35.1165H7.24731C8.18863 32.4404 10.7286 30.5231 13.7143 30.5231C16.7 30.5231 19.2399 32.4404 20.1813 35.1165H36.5714L36.5714 12.15C36.5714 12.1486 36.5714 12.1472 36.5714 12.1458ZM13.7143 35.1164C12.4519 35.1164 11.4286 36.1447 11.4286 37.4131C11.4286 38.6815 12.4519 39.7098 13.7143 39.7098C14.9767 39.7098 16 38.6815 16 37.4131C16 36.1447 14.9767 35.1164 13.7143 35.1164Z" fill="#0171A1"/>
</svg>
