<svg width="20" height="15" viewBox="0 0 20 15" fill="none" xmlns="http://www.w3.org/2000/svg">
<path d="M0.92842 12.6523H2.08278C2.23524 13.1846 2.55186 13.6521 2.98536 13.9851C3.41887 14.3181 3.94599 14.4987 4.48804 14.4998C5.03159 14.5039 5.56145 14.3254 5.9963 13.9917C6.43116 13.6579 6.74699 13.1874 6.89535 12.6523H12.9177C13.0708 13.1867 13.3893 13.6557 13.8253 13.9889C14.2612 14.3221 14.7912 14.5014 15.3353 14.4998C15.8789 14.5039 16.4087 14.3254 16.8436 13.9917C17.2784 13.6579 17.5943 13.1874 17.7426 12.6523H19.0716C19.1936 12.6526 19.3144 12.6282 19.4272 12.5806C19.54 12.5329 19.6424 12.4629 19.7287 12.3747C19.8149 12.2864 19.8833 12.1815 19.9299 12.0662C19.9764 11.9508 20.0003 11.8271 20 11.7023V1.2875C20 1.03442 19.9018 0.791702 19.7269 0.612745C19.552 0.433789 19.3148 0.333252 19.0675 0.333252H10.4057C10.1583 0.333252 9.92116 0.433789 9.74627 0.612745C9.57139 0.791702 9.47314 1.03442 9.47314 1.2875V8.73232C9.47314 8.84994 9.42748 8.96275 9.3462 9.04592C9.26493 9.12909 9.15469 9.17582 9.03975 9.17582C8.9248 9.17582 8.81456 9.12909 8.73329 9.04592C8.65201 8.96275 8.60635 8.84994 8.60635 8.73232V2.34894C8.60635 2.17335 8.53818 2.00494 8.41684 1.88078C8.2955 1.75661 8.13093 1.68686 7.95933 1.68686H3.8328C3.66335 1.68584 3.49642 1.7289 3.34767 1.81199C3.19893 1.89508 3.07326 2.01547 2.98244 2.16188L0.254701 6.55268C0.088629 6.82121 0.000318149 7.1324 2.28246e-06 7.45018V11.7023C-0.000268523 11.8271 0.0235608 11.9508 0.0701223 12.0662C0.116684 12.1815 0.18506 12.2864 0.271325 12.3747C0.357591 12.4629 0.460046 12.5329 0.572809 12.5806C0.685572 12.6282 0.806422 12.6526 0.92842 12.6523ZM15.3353 10.6492C15.6663 10.6547 15.9822 10.7918 16.2161 11.0315C16.45 11.2712 16.5835 11.5947 16.5883 11.9335C16.5879 12.187 16.514 12.4346 16.3761 12.6452C16.2382 12.8558 16.0424 13.0198 15.8134 13.1165C15.5844 13.2132 15.3325 13.2383 15.0896 13.1886C14.8467 13.1389 14.6236 13.0166 14.4486 12.8372C14.2736 12.6578 14.1545 12.4294 14.1063 12.1807C14.0581 11.9321 14.083 11.6744 14.1779 11.4402C14.2728 11.2061 14.4334 11.006 14.6394 10.8652C14.8454 10.7244 15.0876 10.6492 15.3353 10.6492ZM4.48804 13.2156C4.15738 13.2102 3.84176 13.0734 3.60792 12.8341C3.37408 12.5948 3.24038 12.2718 3.23508 11.9335C3.23563 11.5934 3.36774 11.2674 3.60254 11.0267C3.83734 10.7861 4.15571 10.6503 4.48804 10.6492C4.81904 10.6547 5.13497 10.7918 5.36886 11.0315C5.60275 11.2712 5.73623 11.5947 5.74099 11.9335C5.73991 12.2732 5.60755 12.5986 5.37281 12.8389C5.13807 13.0791 4.82001 13.2145 4.48804 13.2156ZM2.02321 6.4539L3.95194 3.35154C3.97259 3.31822 4.0011 3.29075 4.03483 3.27165C4.06857 3.25256 4.10646 3.24244 4.14502 3.24224H5.88682C5.94784 3.24224 6.00635 3.26704 6.04949 3.31119C6.09264 3.35534 6.11688 3.41521 6.11688 3.47765V6.5758C6.11742 6.60707 6.11187 6.63813 6.10056 6.66718C6.08924 6.69623 6.07238 6.72268 6.05096 6.74499C6.02955 6.76729 6.004 6.78501 5.97582 6.7971C5.94764 6.8092 5.91738 6.81542 5.88682 6.81542H2.21218C2.17109 6.8152 2.13079 6.80373 2.0955 6.78218C2.06021 6.76064 2.0312 6.72981 2.01149 6.6929C1.99178 6.656 1.98209 6.61437 1.98343 6.57234C1.98477 6.5303 1.99709 6.48941 2.0191 6.4539H2.02321Z" fill="#819FB2"/>
</svg>
