<svg width="64" height="64" viewBox="0 0 64 64" fill="none" xmlns="http://www.w3.org/2000/svg">
<path d="M2.97094 50.0877H6.66489C7.15277 51.791 8.16596 53.2871 9.55317 54.3527C10.9404 55.4182 12.6272 55.996 14.3617 55.9999C16.1011 56.013 17.7966 55.4417 19.1882 54.3737C20.5797 53.3058 21.5904 51.8001 22.0651 50.0877H41.3368C41.8265 51.7976 42.8456 53.2986 44.2408 54.3648C45.636 55.431 47.3317 56.0048 49.073 55.9999C50.8124 56.013 52.5079 55.4417 53.8995 54.3737C55.291 53.3058 56.3017 51.8001 56.7764 50.0877H61.0291C61.4195 50.0886 61.8062 50.0106 62.167 49.8581C62.5279 49.7056 62.8557 49.4817 63.1318 49.1993C63.4078 48.9168 63.6266 48.5813 63.7756 48.212C63.9246 47.8428 64.0009 47.4471 64 47.0476V13.7203C64 12.9105 63.6856 12.1338 63.126 11.5611C62.5664 10.9885 61.8073 10.6667 61.0159 10.6667H33.2981C32.5067 10.6667 31.7477 10.9885 31.1881 11.5611C30.6285 12.1338 30.3141 12.9105 30.3141 13.7203V37.5438C30.3141 37.9202 30.1679 38.2811 29.9079 38.5473C29.6478 38.8134 29.295 38.963 28.9272 38.963C28.5594 38.963 28.2066 38.8134 27.9465 38.5473C27.6864 38.2811 27.5403 37.9202 27.5403 37.5438V17.117C27.5403 16.5551 27.3222 16.0162 26.9339 15.6188C26.5456 15.2215 26.019 14.9983 25.4699 14.9983H12.265C11.7227 14.995 11.1885 15.1328 10.7126 15.3987C10.2366 15.6646 9.83442 16.0499 9.54381 16.5184L0.815042 30.5689C0.283613 31.4282 0.00101808 32.424 7.30386e-06 33.4409V47.0476C-0.000859274 47.4471 0.0753947 47.8428 0.224391 48.212C0.373388 48.5813 0.592192 48.9168 0.868242 49.1993C1.14429 49.4817 1.47215 49.7056 1.83299 49.8581C2.19383 50.0106 2.58055 50.0886 2.97094 50.0877ZM49.073 43.6779C50.1322 43.6952 51.1432 44.134 51.8917 44.9011C52.6401 45.6683 53.0672 46.7035 53.0825 47.7874C53.0812 48.5986 52.8449 49.3912 52.4036 50.065C51.9622 50.7388 51.3356 51.2637 50.6028 51.5732C49.8701 51.8827 49.0641 51.963 48.2868 51.8039C47.5095 51.6448 46.7957 51.2535 46.2356 50.6795C45.6755 50.1054 45.2943 49.3744 45.1401 48.5787C44.986 47.783 45.0657 46.9584 45.3694 46.2091C45.6731 45.4598 46.187 44.8194 46.8462 44.3689C47.5054 43.9183 48.2803 43.6779 49.073 43.6779ZM14.3617 51.8903C13.3036 51.873 12.2936 51.4351 11.5453 50.6694C10.7971 49.9037 10.3692 48.8702 10.3523 47.7874C10.354 46.6992 10.7768 45.656 11.5281 44.8859C12.2795 44.1157 13.2983 43.6814 14.3617 43.6779C15.4209 43.6952 16.4319 44.134 17.1804 44.9011C17.9288 45.6683 18.3559 46.7035 18.3712 47.7874C18.3677 48.8745 17.9442 49.916 17.193 50.6847C16.4418 51.4533 15.424 51.8867 14.3617 51.8903ZM6.47428 30.2528L12.6462 20.3253C12.7123 20.2186 12.8035 20.1307 12.9115 20.0696C13.0194 20.0085 13.1407 19.9762 13.264 19.9755H18.8378C19.0331 19.9755 19.2203 20.0549 19.3584 20.1961C19.4964 20.3374 19.574 20.529 19.574 20.7288V30.6429C19.5757 30.743 19.558 30.8424 19.5218 30.9353C19.4856 31.0283 19.4316 31.1129 19.3631 31.1843C19.2946 31.2557 19.2128 31.3124 19.1226 31.3511C19.0324 31.3898 18.9356 31.4097 18.8378 31.4097H7.07898C6.94747 31.409 6.81854 31.3723 6.7056 31.3033C6.59266 31.2344 6.49983 31.1357 6.43676 31.0176C6.37369 30.8995 6.34268 30.7663 6.34697 30.6318C6.35126 30.4973 6.39068 30.3664 6.46113 30.2528H6.47428Z" fill="#0171A1"/>
</svg>
