<svg width="20" height="14" viewBox="0 0 20 14" fill="none" xmlns="http://www.w3.org/2000/svg">
<path fill-rule="evenodd" clip-rule="evenodd" d="M0.714286 0.333252C0.319797 0.333252 0 0.654579 0 1.05096V11.8165C0 12.2129 0.319797 12.5342 0.714286 12.5342H2.2648C2.55897 13.3705 3.35271 13.9696 4.28571 13.9696C5.21872 13.9696 6.01246 13.3705 6.30663 12.5342H12.1417C12.1421 12.5342 12.1425 12.5342 12.1429 12.5342C12.5373 12.5342 12.8571 12.2129 12.8571 11.8165L12.8571 4.63947H16.0853L18.5714 7.76204V11.0988H17.7352C17.4411 10.2625 16.6473 9.66338 15.7143 9.66338C14.5308 9.66338 13.5714 10.6274 13.5714 11.8165C13.5714 13.0056 14.5308 13.9696 15.7143 13.9696C16.6473 13.9696 17.441 13.3705 17.7352 12.5342H19.2857C19.6802 12.5342 20 12.2129 20 11.8165V7.51029C20 7.34732 19.9448 7.1892 19.8435 7.06194L16.9863 3.47342C16.8508 3.30317 16.6456 3.20407 16.4286 3.20407H12.8571V1.05096C12.8571 0.654579 12.5373 0.333252 12.1429 0.333252H0.714286ZM11.4286 3.92058V1.76866H1.42857V11.0988H2.26478C2.55895 10.2625 3.35269 9.66338 4.28571 9.66338C5.21873 9.66338 6.01248 10.2625 6.30664 11.0988H11.4286L11.4286 3.92177C11.4286 3.92138 11.4286 3.92098 11.4286 3.92058ZM15 11.8165C15 11.4201 15.3198 11.0988 15.7143 11.0988C16.1088 11.0988 16.4286 11.4201 16.4286 11.8165C16.4286 12.2129 16.1088 12.5342 15.7143 12.5342C15.3198 12.5342 15 12.2129 15 11.8165ZM4.28571 11.0988C3.89123 11.0988 3.57143 11.4201 3.57143 11.8165C3.57143 12.2129 3.89123 12.5342 4.28571 12.5342C4.6802 12.5342 5 12.2129 5 11.8165C5 11.4201 4.6802 11.0988 4.28571 11.0988Z" fill="white"/>
</svg>
