<svg width="16" height="16" viewBox="0 0 16 16" fill="none" xmlns="http://www.w3.org/2000/svg">
<path d="M7.9998 15.1998C11.9763 15.1998 15.1998 11.9763 15.1998 7.9998C15.1998 4.02335 11.9763 0.799805 7.9998 0.799805C4.02335 0.799805 0.799805 4.02335 0.799805 7.9998C0.799805 11.9763 4.02335 15.1998 7.9998 15.1998ZM7.9998 14.12C4.61973 14.12 1.87964 11.3799 1.87964 7.9998C1.87964 4.61973 4.61973 1.87964 7.9998 1.87964C11.3799 1.87964 14.12 4.61973 14.12 7.9998C14.12 11.3799 11.3799 14.12 7.9998 14.12ZM7.99718 9.08033C8.27052 9.08051 8.49655 8.87754 8.53247 8.61403L8.53745 8.54077L8.54004 4.58024C8.54024 4.28205 8.29867 4.04016 8.00048 4.03997C7.72714 4.03979 7.50111 4.24276 7.46519 4.50627L7.46021 4.57953L7.45762 8.54006C7.45742 8.83825 7.69899 9.08014 7.99718 9.08033ZM8.00013 11.5983C8.39718 11.5983 8.71905 11.2765 8.71905 10.8794C8.71905 10.4824 8.39718 10.1605 8.00013 10.1605C7.60308 10.1605 7.2812 10.4824 7.2812 10.8794C7.2812 11.2765 7.60308 11.5983 8.00013 11.5983Z" fill="#F93131"/>
</svg>
