<svg width="12" height="16" viewBox="0 0 12 16" fill="none" xmlns="http://www.w3.org/2000/svg">
<path d="M10.9255 15.2C11.2983 15.2 11.6006 14.8957 11.6006 14.5204C11.6006 14.1764 11.3466 13.892 11.017 13.847L10.9255 13.8408H1.07547C0.702627 13.8408 0.400391 14.145 0.400391 14.5204C0.400391 14.8644 0.654355 15.1487 0.983856 15.1937L1.07547 15.2H10.9255ZM6.03526 13.035C6.37703 13.035 6.65948 12.7794 6.70422 12.4477L6.71034 12.3555L6.7098 3.11945L9.37968 5.81116C9.6192 6.05265 9.99419 6.07493 10.2586 5.87778L10.3344 5.81205C10.5743 5.57102 10.5964 5.19344 10.4006 4.92722L10.3353 4.85093L6.51636 0.999424L6.45273 0.942791L6.37082 0.889694L6.33805 0.870484L6.25596 0.83614L6.1475 0.808868L6.08522 0.80171L6.03115 0.799988C5.98603 0.799988 5.94024 0.804971 5.89548 0.814485L5.82268 0.835417C5.73626 0.863506 5.65786 0.909083 5.59111 0.967799L1.73005 4.85021C1.46623 5.11542 1.46593 5.54564 1.72937 5.81126C1.96887 6.0527 2.34389 6.0749 2.60831 5.8777L2.68407 5.81195L5.35967 3.12316L5.36023 12.3555C5.36023 12.7308 5.66247 13.035 6.03526 13.035Z" fill="#0171A1"/>
</svg>
