<svg width="16" height="16" viewBox="0 0 16 16" fill="none" xmlns="http://www.w3.org/2000/svg">
<path d="M1.20536 9.66212L0.800803 10.0621L1.20536 9.66212ZM1.20536 6.33788L0.800803 5.93787L1.20536 6.33788ZM14.7946 9.66212L15.1992 10.0621L14.7946 9.66212ZM14.7946 6.33788L15.1992 5.93787L14.7946 6.33788ZM14.3901 9.26209C12.9464 10.8423 10.5898 12.8387 8 12.8387V14C11.0891 14 13.7319 11.6681 15.1992 10.0621L14.3901 9.26209ZM8 12.8387C5.41022 12.8387 3.0536 10.8423 1.60993 9.26209L0.800803 10.0621C2.26805 11.6681 4.91087 14 8 14V12.8387ZM1.60993 6.73791C3.0536 5.1577 5.41022 3.16129 8 3.16129V2C4.91087 2 2.26805 4.33186 0.800803 5.93787L1.60993 6.73791ZM8 3.16129C10.5898 3.16129 12.9464 5.1577 14.3901 6.73791L15.1992 5.93787C13.7319 4.33186 11.0891 2 8 2V3.16129ZM1.60993 9.26209C0.951731 8.54163 0.951731 7.45837 1.60993 6.73791L0.800803 5.93787C-0.266934 7.10658 -0.266934 8.89342 0.800803 10.0621L1.60993 9.26209ZM15.1992 10.0621C16.2669 8.89342 16.2669 7.10658 15.1992 5.93787L14.3901 6.73791C15.0483 7.45837 15.0483 8.54163 14.3901 9.26209L15.1992 10.0621ZM9.67442 8C9.67442 8.96201 8.92472 9.74194 8 9.74194V10.9032C9.54128 10.9032 10.7907 9.60343 10.7907 8H9.67442ZM8 9.74194C7.07527 9.74194 6.32558 8.96201 6.32558 8H5.2093C5.2093 9.60343 6.45874 10.9032 8 10.9032V9.74194ZM6.32558 8C6.32558 7.03799 7.07527 6.25806 8 6.25806V5.09677C6.45874 5.09677 5.2093 6.39659 5.2093 8H6.32558ZM8 6.25806C8.92472 6.25806 9.67442 7.03799 9.67442 8H10.7907C10.7907 6.39659 9.54128 5.09677 8 5.09677V6.25806Z" fill="#6D858F"/>
</svg>
