<svg width="16" height="16" viewBox="0 0 16 16" fill="none" xmlns="http://www.w3.org/2000/svg">
<path fill-rule="evenodd" clip-rule="evenodd" d="M13.1543 2.84639C13.3948 3.08689 13.3948 3.47681 13.1543 3.71731L8.87222 7.99935L13.1543 12.2814C13.3948 12.5219 13.3948 12.9118 13.1543 13.1523C12.9138 13.3928 12.5238 13.3928 12.2833 13.1523L8.0013 8.87027L3.71927 13.1523C3.47877 13.3928 3.08884 13.3928 2.84834 13.1523C2.60784 12.9118 2.60784 12.5219 2.84834 12.2814L7.13038 7.99935L2.84834 3.71731C2.60784 3.47681 2.60784 3.08689 2.84834 2.84639C3.08884 2.60589 3.47877 2.60589 3.71927 2.84639L8.0013 7.12843L12.2833 2.84639C12.5238 2.60589 12.9138 2.60589 13.1543 2.84639Z" fill="white"/>
</svg>
