<svg width="18" height="18" viewBox="0 0 18 18" fill="none" xmlns="http://www.w3.org/2000/svg">
<path d="M14.7072 0.899902C16.0289 0.899902 17.1004 1.97137 17.1004 3.29308V14.7067C17.1004 16.0284 16.0289 17.0999 14.7072 17.0999H3.29357C1.97185 17.0999 0.900391 16.0284 0.900391 14.7067V3.29308C0.900391 1.97137 1.97185 0.899902 3.29357 0.899902H14.7072ZM15.9958 5.68848H2.00494V14.7067C2.00494 15.4184 2.58188 15.9954 3.29357 15.9954H14.7072C15.4189 15.9954 15.9958 15.4184 15.9958 14.7067V5.68848ZM5.13358 11.5782C5.64193 11.5782 6.05404 11.9903 6.05404 12.4987C6.05404 13.007 5.64193 13.4191 5.13358 13.4191C4.62523 13.4191 4.21313 13.007 4.21313 12.4987C4.21313 11.9903 4.62523 11.5782 5.13358 11.5782ZM9.00279 11.5782C9.51114 11.5782 9.92324 11.9903 9.92324 12.4987C9.92324 13.007 9.51114 13.4191 9.00279 13.4191C8.49444 13.4191 8.08234 13.007 8.08234 12.4987C8.08234 11.9903 8.49444 11.5782 9.00279 11.5782ZM5.13358 7.89639C5.64193 7.89639 6.05404 8.3085 6.05404 8.81685C6.05404 9.3252 5.64193 9.7373 5.13358 9.7373C4.62523 9.7373 4.21313 9.3252 4.21313 8.81685C4.21313 8.3085 4.62523 7.89639 5.13358 7.89639ZM9.00279 7.89639C9.51114 7.89639 9.92324 8.3085 9.92324 8.81685C9.92324 9.3252 9.51114 9.7373 9.00279 9.7373C8.49444 9.7373 8.08234 9.3252 8.08234 8.81685C8.08234 8.3085 8.49444 7.89639 9.00279 7.89639ZM12.872 7.89639C13.3804 7.89639 13.7925 8.3085 13.7925 8.81685C13.7925 9.3252 13.3804 9.7373 12.872 9.7373C12.3636 9.7373 11.9515 9.3252 11.9515 8.81685C11.9515 8.3085 12.3636 7.89639 12.872 7.89639ZM14.7072 2.00445H3.29357C2.58188 2.00445 2.00494 2.58139 2.00494 3.29308V4.58393H15.9958V3.29308C15.9958 2.58139 15.4189 2.00445 14.7072 2.00445Z" fill="#0171A1"/>
</svg>
