<svg width="18" height="18" viewBox="0 0 18 18" fill="none" xmlns="http://www.w3.org/2000/svg">
<path d="M0.858785 0.0294294C0.367742 0.115362 0.126313 0.389528 0.0362884 0.958319C-0.0250919 1.37161 0.00764428 4.11736 0.0772087 4.34242C0.191785 4.70661 0.445491 4.89894 0.903798 4.97669C1.22707 5.02579 3.76821 5.02988 4.12422 4.98078C4.4925 4.92758 4.72575 4.80073 4.84851 4.59613C5.01628 4.3015 5.04083 4.01097 5.02447 2.33324C5.00401 0.602313 4.99173 0.512289 4.72166 0.274951C4.44749 0.0294294 4.31245 0.0130615 2.61836 0.000785351C1.77131 -0.00330639 0.981546 0.00896931 0.858785 0.0294294Z" fill="#0171A1"/>
<path d="M7.36017 0.0255585C6.96734 0.0951228 6.68499 0.312 6.58269 0.627086C6.54586 0.737571 6.5254 1.25317 6.51721 2.41121C6.50084 3.79431 6.50903 4.07666 6.56632 4.28945C6.65225 4.63318 6.7791 4.78458 7.06554 4.89916C7.2947 4.98918 7.35608 4.99328 8.80465 5.00964C10.7034 5.0301 11.0389 4.981 11.2885 4.66591C11.4727 4.43267 11.5013 4.2117 11.5259 2.91044C11.5586 1.00764 11.4849 0.455221 11.1617 0.226068C10.8875 0.0296502 10.7606 0.0132823 9.10337 0.00100613C8.24814 -0.00308561 7.46247 0.00509834 7.36017 0.0255585Z" fill="#0171A1"/>
<path d="M13.8293 0.0290456C13.3382 0.114978 13.0927 0.389143 13.0068 0.957935C12.9454 1.37941 12.9781 4.11289 13.0518 4.35841C13.1255 4.59984 13.3874 4.86173 13.6288 4.93538C13.862 5.00495 16.6241 5.04178 17.0579 4.98449C17.4589 4.9272 17.6922 4.80444 17.819 4.59574C17.9868 4.30112 18.0113 4.01058 17.9909 2.33285C17.9745 0.618297 17.9663 0.569192 17.7167 0.307303C17.4548 0.0331373 17.3362 0.0126772 15.5889 0.000401497C14.7418 -0.00369072 13.952 0.00858545 13.8293 0.0290456Z" fill="#0171A1"/>
<path d="M1.10382 6.49927C0.404087 6.55246 0.134014 6.78571 0.0398972 7.41997C-0.0132991 7.78825 -0.0132991 10.2435 0.0398972 10.5831C0.109462 11.0128 0.224038 11.1969 0.51048 11.3401L0.756001 11.4629H2.49511C4.44292 11.4629 4.5043 11.4547 4.74573 11.201C4.99943 10.935 5.00352 10.89 5.01989 9.17545C5.04035 7.52227 5.0158 7.20719 4.85621 6.92074C4.73754 6.70796 4.43064 6.54837 4.07872 6.51563C3.69817 6.47881 1.50484 6.46653 1.10382 6.49927Z" fill="#0171A1"/>
<path d="M7.63024 6.49517C7.04508 6.532 6.79956 6.66295 6.63178 7.01895L6.52539 7.24811V8.98722C6.52539 10.8777 6.52948 10.9187 6.75864 11.1764C7.00007 11.4547 7.05326 11.4629 9.02562 11.4629H10.7852L11.0266 11.3401C11.2189 11.2419 11.2885 11.1805 11.3622 11.0291C11.5054 10.755 11.5504 10.0716 11.5258 8.59847C11.5013 7.199 11.4726 7.03123 11.2149 6.77343C10.9611 6.51973 10.8711 6.50745 8.79646 6.4829C8.33407 6.47471 7.81029 6.47881 7.63024 6.49517Z" fill="#0171A1"/>
<path d="M14.0765 6.49501C13.3931 6.54411 13.1149 6.77736 13.0126 7.39525C12.9594 7.72671 12.9594 10.2269 13.0126 10.5952C13.0862 11.1067 13.254 11.3072 13.7041 11.4218C13.9128 11.4791 14.2074 11.4832 15.5987 11.4709C17.4278 11.4586 17.481 11.4504 17.7184 11.2008C17.968 10.9389 17.9762 10.8898 17.9925 9.17937C18.013 7.5262 17.9885 7.21111 17.8289 6.92058C17.7102 6.70779 17.4033 6.5482 17.0514 6.51547C16.6831 6.47864 14.4857 6.46636 14.0765 6.49501Z" fill="#0171A1"/>
<path d="M0.812793 13.0137C0.34221 13.112 0.129424 13.3616 0.043492 13.8976C-0.0137964 14.2373 -0.0137964 16.6925 0.0393999 17.0649C0.108964 17.5313 0.305382 17.7891 0.690032 17.9119C0.894633 17.9815 3.61992 18.0101 4.06186 17.9528C4.49561 17.8955 4.71658 17.785 4.84753 17.5682C5.0153 17.2735 5.03985 16.983 5.02349 15.3053C5.00712 13.9549 4.99893 13.7299 4.93755 13.5703C4.79842 13.2143 4.56518 13.0629 4.04549 12.9974C3.56672 12.9401 1.10742 12.9483 0.812793 13.0137Z" fill="#0171A1"/>
<path d="M7.36016 12.9971C6.95915 13.0666 6.6768 13.2876 6.57859 13.6191C6.53767 13.75 6.52539 14.2206 6.52539 15.4727C6.52539 17.3428 6.53767 17.4451 6.7791 17.6865C7.0328 17.9402 7.17193 17.9607 8.78828 17.9812C10.998 18.0057 11.2476 17.9402 11.4481 17.2978C11.5095 17.0973 11.5177 16.8681 11.5177 15.5137C11.5177 13.8114 11.4972 13.615 11.2926 13.3326C11.1576 13.1403 10.9489 13.0503 10.5397 12.9971C10.1918 12.9521 7.63024 12.9521 7.36016 12.9971Z" fill="#0171A1"/>
<path d="M13.7894 13.0134C13.3515 13.1116 13.1551 13.2958 13.0446 13.7132C12.9669 14.0078 12.9669 16.9827 13.0446 17.2732C13.151 17.6783 13.4047 17.8748 13.8999 17.9484C14.2641 18.0016 16.7152 17.9975 17.0835 17.9443C17.4763 17.8911 17.6973 17.7766 17.82 17.5679C17.9878 17.2732 18.0124 16.9827 17.996 15.305C17.9796 13.9546 17.9714 13.7295 17.9101 13.57C17.7709 13.2139 17.5377 13.0625 17.018 12.9971C16.5392 12.9398 14.0758 12.948 13.7894 13.0134Z" fill="#0171A1"/>
</svg>
