<svg width="18" height="18" viewBox="0 0 18 18" fill="none" xmlns="http://www.w3.org/2000/svg">
<path d="M4.52068 0.0247536C4.20759 0.0768728 4.02868 0.187626 3.92006 0.409131C3.84339 0.565488 3.82422 0.917291 3.82422 2.36359V4.12261H4.17564H4.52706V3.69914V3.27567H5.48549H6.44392V3.69914V4.12261H6.73145H7.01897V3.69914V3.27567H8.20103H9.38309V3.69914V4.12261H9.63867H9.89425V3.69914V3.27567H10.9805H12.0667V3.69914V4.12261H12.3223H12.5778V3.69914V3.27567H13.6002H14.6225V4.11609C14.6225 4.67637 14.5969 4.96954 14.5522 4.98257C14.5011 5.00211 14.5011 5.09984 14.5522 5.36043C14.6033 5.608 14.6161 6.924 14.6033 9.64722L14.5842 13.5757L16.0729 13.5561L17.5617 13.5366L17.7661 13.3216L17.977 13.1131L17.9962 6.95006C18.0089 2.83918 17.9898 0.708816 17.945 0.539429C17.9003 0.370042 17.8109 0.24626 17.6703 0.155051C17.4722 0.0312691 17.3253 0.0247536 11.1019 0.00520897C7.60042 -0.00782013 4.64208 0.00520897 4.52068 0.0247536ZM17.3061 4.12261V4.96954H16.2199H15.1337V4.12261V3.27567H16.2199H17.3061V4.12261ZM17.3061 6.56568V7.57549H16.2199H15.1337V6.56568V5.55588H16.2199H17.3061V6.56568ZM17.3061 9.23678V10.3117H16.2199H15.1337V9.23678V8.16183H16.2199H17.3061V9.23678ZM17.3061 11.745V12.5919H16.2199H15.1337V11.745V10.8981H16.2199H17.3061V11.745Z" fill="#6D858F"/>
<path d="M0.470321 4.51359C0.400036 4.53964 0.272246 4.64388 0.182793 4.7416L0.023055 4.91751L0.00388642 11.0675C-0.0088926 15.1784 0.0102759 17.3088 0.0550025 17.4782C0.0997291 17.6541 0.189182 17.7713 0.336141 17.8626C0.546995 17.9994 0.585332 17.9994 7.07708 17.9994C14.2461 17.9994 13.8691 18.0189 14.08 17.6085C14.2205 17.3283 14.2269 5.21719 14.08 4.86539C13.9011 4.42889 14.2525 4.44844 7.07069 4.45495C3.51173 4.45495 0.540605 4.48101 0.470321 4.51359ZM2.6747 8.58538V9.46488H1.68433H0.693954V8.58538V7.70587H1.68433H2.6747V8.58538ZM5.54998 8.58538V9.46488H4.36792H3.18586V8.58538V7.70587H4.36792H5.54998V8.58538ZM8.23358 8.58538V9.46488H7.17931H6.12504V8.58538V7.70587H7.17931H8.23358V8.58538ZM10.7894 8.58538V9.46488H9.79901H8.80863V8.58538V7.70587H9.79901H10.7894V8.58538ZM13.473 8.58538V9.46488H12.3868H11.3005V8.58538V7.70587H12.3868H13.473V8.58538ZM2.6747 10.9959V12.0057H1.68433H0.693954V10.9959V9.98607H1.68433H2.6747V10.9959ZM5.54998 10.9959V12.0057H4.36792H3.18586V10.9959V9.98607H4.36792H5.54998V10.9959ZM8.23358 10.9959V12.0057H7.17931H6.12504V10.9959V9.98607H7.17931H8.23358V10.9959ZM10.7894 10.9959V12.0057H9.79901H8.80863V10.9959V9.98607H9.79901H10.7894V10.9959ZM13.473 10.9959V12.0057H12.3868H11.3005V10.9959V9.98607H12.3868H13.473V10.9959ZM2.6747 13.667V14.7419H1.68433H0.693954V13.667V12.592H1.68433H2.6747V13.667ZM5.54998 13.667V14.7419H4.36792H3.18586V13.667V12.592H4.36792H5.54998V13.667ZM8.23358 13.667V14.7419H7.17931H6.12504V13.667V12.592H7.17931H8.23358V13.667ZM10.7894 13.667V14.7419H9.79901H8.80863V13.667V12.592H9.79901H10.7894V13.667ZM13.473 13.667V14.7419H12.3868H11.3005V13.667V12.592H12.3868H13.473V13.667ZM2.6747 16.1752V17.0221H1.68433H0.693954V16.1752V15.3283H1.68433H2.6747V16.1752ZM5.54998 16.1752V17.0221H4.36792H3.18586V16.1752V15.3283H4.36792H5.54998V16.1752ZM8.23358 16.1752V17.0221H7.17931H6.12504V16.1752V15.3283H7.17931H8.23358V16.1752ZM10.7894 16.1752V17.0221H9.79901H8.80863V16.1752V15.3283H9.79901H10.7894V16.1752ZM13.473 16.1752V17.0221H12.3868H11.3005V16.1752V15.3283H12.3868H13.473V16.1752Z" fill="#6D858F"/>
</svg>
