<svg width="19" height="18" viewBox="0 0 19 18" fill="none" xmlns="http://www.w3.org/2000/svg">
<path fill-rule="evenodd" clip-rule="evenodd" d="M2.70039 4.5001C2.70039 4.99715 2.29745 5.4001 1.80039 5.4001C1.30333 5.4001 0.900391 4.99715 0.900391 4.5001C0.900391 4.00304 1.30333 3.6001 1.80039 3.6001C2.29745 3.6001 2.70039 4.00304 2.70039 4.5001ZM2.70039 9.0001C2.70039 9.49715 2.29745 9.9001 1.80039 9.9001C1.30333 9.9001 0.900391 9.49715 0.900391 9.0001C0.900391 8.50304 1.30333 8.1001 1.80039 8.1001C2.29745 8.1001 2.70039 8.50304 2.70039 9.0001ZM1.80039 14.4001C2.29745 14.4001 2.70039 13.9972 2.70039 13.5001C2.70039 13.003 2.29745 12.6001 1.80039 12.6001C1.30333 12.6001 0.900391 13.003 0.900391 13.5001C0.900391 13.9972 1.30333 14.4001 1.80039 14.4001ZM6.00039 4.0001C5.44811 4.0001 5.00039 4.44781 5.00039 5.0001C5.00039 5.55238 5.44811 6.0001 6.00039 6.0001H18.0004C18.5527 6.0001 19.0004 5.55238 19.0004 5.0001C19.0004 4.44781 18.5527 4.0001 18.0004 4.0001H6.00039ZM5.00039 10.0001C5.00039 9.44781 5.44811 9.0001 6.00039 9.0001H18.0004C18.5527 9.0001 19.0004 9.44781 19.0004 10.0001C19.0004 10.5524 18.5527 11.0001 18.0004 11.0001H6.00039C5.44811 11.0001 5.00039 10.5524 5.00039 10.0001ZM6.00039 14.0001C5.44811 14.0001 5.00039 14.4478 5.00039 15.0001C5.00039 15.5524 5.44811 16.0001 6.00039 16.0001H14.0004C14.5527 16.0001 15.0004 15.5524 15.0004 15.0001C15.0004 14.4478 14.5527 14.0001 14.0004 14.0001H6.00039Z" fill="#0171A1"/>
</svg>
