<svg width="150" height="37" viewBox="0 0 150 37" fill="none" xmlns="http://www.w3.org/2000/svg">
    <path d="M15.6759 16.2315L16.9133 12.6083C16.928 12.565 16.9254 12.5177 16.906 12.4763C16.8866 12.4349 16.852 12.4024 16.8091 12.3856C16.1159 12.1131 13.2354 11.0603 10.1088 11.0603C6.77571 11.0603 0.599793 12.35 0.599793 18.2943C0.599793 24.9155 11.7682 24.2867 11.7682 28.4478C11.7682 32.2029 4.58478 31.2036 1.42947 29.4525C1.40569 29.4394 1.37921 29.4318 1.35204 29.4304C1.32487 29.4289 1.29772 29.4336 1.27264 29.444C1.24756 29.4545 1.22521 29.4705 1.20727 29.4908C1.18932 29.5111 1.17627 29.5351 1.16908 29.5612L0.00716347 33.489C-0.00560143 33.5325 -0.00119466 33.5791 0.0194878 33.6195C0.0401703 33.6599 0.0755759 33.6909 0.118506 33.7063C0.939209 33.9895 4.7069 35.2703 7.63413 35.2703C10.9349 35.2703 17.9656 34.2728 17.9656 27.7585C17.9656 21.2442 6.70029 21.0803 6.70029 17.6352C6.70029 14.3041 13.3306 15.0683 15.4137 16.3223C15.4364 16.3361 15.4619 16.3446 15.4883 16.3474C15.5147 16.3502 15.5414 16.3471 15.5665 16.3385C15.5916 16.3298 15.6144 16.3157 15.6333 16.2972C15.6523 16.2787 15.6668 16.2562 15.6759 16.2315Z" fill="#0171A1"/>
    <path d="M22.2773 0H27.5502C27.5979 0 27.6435 0.0187675 27.6772 0.0521739C27.7109 0.0855802 27.7298 0.130889 27.7298 0.178133V13.9478C27.7292 13.9838 27.7396 14.0191 27.7596 14.0491C27.7797 14.0791 27.8084 14.1024 27.842 14.1159C27.8757 14.1294 27.9126 14.1325 27.9481 14.1247C27.9835 14.117 28.0157 14.0988 28.0405 14.0725C28.8218 13.2495 31.1188 11.3025 35.298 11.3025C36.4633 11.2969 37.6183 11.519 38.697 11.9561C39.7757 12.3933 40.757 13.0369 41.5849 13.8503C42.4127 14.6636 43.071 15.6308 43.522 16.6965C43.9729 17.7622 44.2078 18.9055 44.2133 20.0613C44.2133 24.5253 44.3821 28.4442 44.3821 28.7791C44.3821 29.114 44.5796 30.7546 45.853 31.3513C45.8894 31.367 45.9196 31.3942 45.9387 31.4287C45.9579 31.4632 45.965 31.503 45.9589 31.542L45.3699 35.3629C45.364 35.4011 45.3457 35.4363 45.3178 35.4633C45.29 35.4903 45.254 35.5076 45.2154 35.5125C44.2761 35.6283 38.7499 36.0202 38.7499 29.0998V21.3884C38.7499 20.1593 38.0782 16.3187 33.4105 16.3187C28.7428 16.3187 27.6939 20.4853 27.6939 22.0439V35.4377C27.6939 35.485 27.675 35.5303 27.6413 35.5637C27.6076 35.5971 27.5619 35.6158 27.5143 35.6158H22.4569C22.4092 35.6158 22.3635 35.5971 22.3299 35.5637C22.2962 35.5303 22.2773 35.485 22.2773 35.4377L22.0977 0.178133C22.0977 0.130889 22.1166 0.0855802 22.1503 0.0521739C22.1839 0.0187675 22.2296 0 22.2773 0V0Z" fill="#0171A1"/>
    <path d="M56.0855 11.8066H50.7965C50.7037 11.8066 50.6285 11.8864 50.6285 11.9848V35.6835C50.6285 35.7819 50.7037 35.8617 50.7965 35.8617H56.0855C56.1783 35.8617 56.2535 35.7819 56.2535 35.6835V11.9848C56.2535 11.8864 56.1783 11.8066 56.0855 11.8066Z" fill="#0171A1"/>
    <path d="M53.441 10.1221C55.1669 10.1221 56.566 8.73427 56.566 7.02234C56.566 5.3104 55.1669 3.92261 53.441 3.92261C51.7151 3.92261 50.316 5.3104 50.316 7.02234C50.316 8.73427 51.7151 10.1221 53.441 10.1221Z" fill="#0171A1"/>
    <path d="M64.5361 11.8067C64.5837 11.8067 64.6294 11.788 64.6631 11.7545C64.6968 11.7211 64.7157 11.6758 64.7157 11.6286V6.87067C64.7175 4.52644 66.8168 0.178223 71.732 0.178223C75.2896 0.178223 76.6203 0.534488 77.0082 0.682338C77.047 0.696626 77.0796 0.723748 77.1006 0.759124C77.1215 0.7945 77.1295 0.83596 77.1232 0.876503L76.5665 4.61729C76.5602 4.66299 76.5363 4.7045 76.4998 4.73307C76.4633 4.76165 76.417 4.77506 76.3707 4.77048C75.3794 4.66717 70.3959 4.33762 70.3959 8.03744V11.6357C70.3959 11.683 70.4149 11.7283 70.4485 11.7617C70.4822 11.7951 70.5279 11.8138 70.5755 11.8138H76.1552C76.2028 11.8138 76.2485 11.8326 76.2822 11.866C76.3159 11.8994 76.3348 11.9447 76.3348 11.992V16.1336C76.3348 16.1808 76.3159 16.2261 76.2822 16.2595C76.2485 16.2929 76.2028 16.3117 76.1552 16.3117H70.5091C70.4614 16.3117 70.4158 16.3305 70.3821 16.3639C70.3484 16.3973 70.3295 16.4426 70.3295 16.4898V35.4378C70.3295 35.485 70.3106 35.5304 70.2769 35.5638C70.2432 35.5972 70.1975 35.6159 70.1499 35.6159H64.8971C64.8494 35.6159 64.8038 35.5972 64.7701 35.5638C64.7364 35.5304 64.7175 35.485 64.7175 35.4378V16.5664C64.7175 16.5192 64.6986 16.4739 64.6649 16.4405C64.6312 16.4071 64.5855 16.3883 64.5379 16.3883H60.2279C60.1802 16.3883 60.1346 16.3695 60.1009 16.3361C60.0672 16.3027 60.0483 16.2574 60.0483 16.2102V11.9866C60.0483 11.9394 60.0672 11.8941 60.1009 11.8607C60.1346 11.8273 60.1802 11.8085 60.2279 11.8085L64.5361 11.8067Z" fill="#0171A1"/>
    <path d="M79.7788 0.178223C79.7312 0.178223 79.6855 0.19699 79.6518 0.230397C79.6182 0.263803 79.5992 0.309112 79.5992 0.356355V29.2139C79.5992 30.4982 79.8219 35.5447 85.9745 35.6266C86.0163 35.6276 86.0571 35.614 86.0898 35.5883C86.1226 35.5626 86.1453 35.5264 86.1541 35.4859L87.043 31.6507C87.0529 31.6057 87.0447 31.5586 87.0202 31.5194C86.9958 31.4802 86.957 31.4519 86.9119 31.4405C86.4486 31.3158 85.2131 30.6122 85.2131 26.6772V0.356355C85.2131 0.309112 85.1942 0.263803 85.1605 0.230397C85.1268 0.19699 85.0811 0.178223 85.0335 0.178223H79.7788Z" fill="#0171A1"/>
    <path d="M95.5799 28.2306L103.662 36.2465H133.277L149.824 18.6292C149.92 18.5192 149.98 18.3823 149.996 18.2373C150.012 18.0922 149.982 17.9459 149.911 17.8181C149.84 17.6902 149.731 17.5871 149.599 17.5225C149.468 17.458 149.319 17.4351 149.173 17.4571L95.957 27.0406C95.8312 27.066 95.7145 27.1243 95.6191 27.2095C95.5237 27.2947 95.453 27.4038 95.4145 27.5253C95.376 27.6467 95.3711 27.7762 95.4001 27.9003C95.4292 28.0243 95.4913 28.1384 95.5799 28.2306Z" fill="#039DDC"/>
    <path d="M103.66 36.2447L110.971 0.839024C111.001 0.6989 111.073 0.571043 111.178 0.47214C111.282 0.373238 111.415 0.307884 111.557 0.28461C111.7 0.261337 111.846 0.281224 111.977 0.341676C112.108 0.402128 112.217 0.500337 112.291 0.623483L133.277 36.25L103.66 36.2447Z" fill="#0171A1"/>
    <path d="M133.277 36.2448L125.917 21.6379L124.791 21.841L133.277 36.2448Z" fill="#002F44"/>
</svg>
