<svg xmlns="http://www.w3.org/2000/svg" fill="none" viewBox="0 0 39 22"><path stroke="#D4D7DC" stroke-width=".8" d="M35.206 1h.391c.106.001.212.002.319.005.185.004.402.013.605.045.175.028.323.071.464.135a1.5 1.5 0 01.38.243 1.316 1.316 0 01.428.748c.035.178.046.37.05.536.003.093.005.186.005.281l.001.347V19.5c-.001.093-.002.187-.005.28a3.219 3.219 0 01-.052.536 1.31 1.31 0 01-.427.746c-.113.1-.24.182-.381.245-.14.064-.288.106-.462.134a4.735 4.735 0 01-.602.045c-.107.003-.214.004-.323.004l-.39.001H3.003l-.316-.004a4.764 4.764 0 01-.605-.046 1.773 1.773 0 01-.465-.135 1.487 1.487 0 01-.38-.244 1.332 1.332 0 01-.427-.748 3.25 3.25 0 01-.052-.534 12.515 12.515 0 01-.004-.28V2.992c0-.094.002-.188.004-.282.006-.164.016-.355.052-.536a1.32 1.32 0 01.428-.746 1.5 1.5 0 01.38-.245c.14-.063.288-.106.464-.134a4.64 4.64 0 01.605-.045c.106-.003.212-.004.317-.004L3.397 1h31.81"></path><path fill="#3498D8" fill-rule="evenodd" d="M35.53 1H3.074C1.798 1 .754 1.878.754 2.952V19.54c0 1.074 1.044 1.952 2.319 1.952H35.53c1.275 0 2.318-.878 2.318-1.951V2.95C37.85 1.879 36.806 1 35.531 1z" clip-rule="evenodd"></path><path fill="#fff" fill-rule="evenodd" d="M22.895 9.783v.878h2.898v.976h-2.898v.976h3.247l1.507-1.464-1.393-1.366h-3.361zm8.926 3.903h-1.739l-1.507-1.659-1.739 1.659H21.62V8.807h5.332l1.623 1.561 1.739-1.561h1.624l-2.55 2.44 2.433 2.439zm-11.476 0H19.07V9.88l-1.97 3.806h-1.16L13.97 9.88v3.806h-2.667l-.462-1.073H8.057l-.463 1.073H6.087l2.435-4.879h1.97l2.202 4.586V8.807h2.204l1.739 3.318 1.622-3.318h2.202v4.879h-.116zm14.026-5.855H29.62l-1.16 1.073-1.044-1.073H17.331l-.927 1.757-.927-1.757H11.42v.78l-.465-.78H7.478l-3.362 6.83h4.057l.464-1.073h1.159l.465 1.074h4.52v-.78l.347.78h2.319l.349-.878v.878h9.274l1.159-1.074 1.042 1.074h4.754l-3.015-3.416 3.361-3.415zM8.521 11.54h1.854l-.927-1.952-.926 1.952z" clip-rule="evenodd"></path></svg>