<svg xmlns="http://www.w3.org/2000/svg" fill="none" viewBox="0 0 39 22"><path stroke="#D4D7DC" stroke-width=".8" d="M35.124 1h.392c.105.001.211.002.318.005.185.004.402.013.605.045.175.028.323.071.464.135.14.062.268.145.38.243a1.319 1.319 0 01.428.748c.036.178.046.37.05.536.004.093.005.186.005.281l.001.347V19.5c-.001.093-.002.187-.006.28a3.208 3.208 0 01-.051.536 1.31 1.31 0 01-.427.746c-.113.1-.24.182-.381.245-.14.064-.288.106-.462.134a4.735 4.735 0 01-.602.045c-.107.003-.214.004-.323.004l-.39.001H2.921l-.316-.004A4.764 4.764 0 012 21.442a1.773 1.773 0 01-.465-.135 1.487 1.487 0 01-.38-.244 1.332 1.332 0 01-.427-.748 3.25 3.25 0 01-.052-.534 12.527 12.527 0 01-.004-.28V2.992c0-.094.002-.188.004-.282.006-.164.016-.355.052-.536a1.32 1.32 0 01.428-.746 1.5 1.5 0 01.38-.245c.14-.063.288-.106.464-.134a4.64 4.64 0 01.605-.045c.106-.003.212-.004.317-.004L3.316 1h31.808"></path><path fill="#FFFFFE" fill-rule="evenodd" d="M35.516 1c.105.001.211.002.318.005.185.004.402.013.605.045.175.028.323.071.464.135a1.5 1.5 0 01.38.243 1.319 1.319 0 01.428.748c.036.178.046.37.05.536.004.093.005.186.005.281l.001.347V19.5c-.001.093-.002.187-.006.28a3.208 3.208 0 01-.051.536 1.31 1.31 0 01-.427.746c-.113.1-.24.182-.381.245-.14.064-.288.106-.462.134a4.735 4.735 0 01-.602.045c-.107.003-.214.004-.323.004l-.39.001H2.921l-.316-.004A4.764 4.764 0 012 21.442a1.773 1.773 0 01-.465-.135 1.487 1.487 0 01-.38-.244 1.332 1.332 0 01-.427-.748 3.25 3.25 0 01-.052-.534 12.527 12.527 0 01-.004-.28V2.992c0-.094.002-.188.004-.282.006-.164.016-.355.052-.536a1.32 1.32 0 01.428-.746 1.5 1.5 0 01.38-.245c.14-.063.288-.106.464-.134a4.64 4.64 0 01.605-.045c.106-.003.212-.004.317-.004L3.316 1h32.2z" clip-rule="evenodd"></path><path fill="#1A1919" fill-rule="evenodd" d="M10.575 8.257c.307-.34.515-.795.46-1.26-.45.019-.998.261-1.315.6-.285.291-.537.766-.471 1.212.504.039 1.008-.223 1.326-.552zM11.03 8.896c-.733-.039-1.355.367-1.705.367-.35 0-.886-.348-1.465-.338-.754.01-1.453.386-1.836.986-.787 1.199-.208 2.977.558 3.953.371.483.82 1.015 1.41.996.557-.019.775-.319 1.453-.319.677 0 .874.32 1.465.31.612-.01.994-.484 1.366-.967.426-.55.6-1.082.612-1.112-.011-.01-1.18-.406-1.191-1.595-.011-.995.918-1.469.962-1.498-.525-.686-1.345-.764-1.63-.783zM16.53 11.378h1.46c1.11 0 1.74-.528 1.74-1.442 0-.915-.63-1.437-1.733-1.437H16.53v2.879zm1.802-3.83c1.592 0 2.7.97 2.7 2.383 0 1.417-1.13 2.392-2.74 2.392H16.53V14.8h-1.274V7.55h3.076zM25.214 12.83v-.407l-1.416.08c-.796.046-1.21.307-1.21.765 0 .442.431.728 1.108.728.864 0 1.518-.487 1.518-1.165zm-3.866.468c0-.93.802-1.463 2.28-1.543l1.586-.085v-.402c0-.588-.438-.91-1.216-.91-.643 0-1.109.291-1.206.739h-1.148c.034-.94 1.035-1.623 2.388-1.623 1.455 0 2.405.673 2.405 1.718V14.8H25.26v-.87h-.029c-.335.569-1.074.925-1.876.925-1.182 0-2.007-.623-2.007-1.557zM27.518 16.74v-.87c.08.01.273.02.375.02.563 0 .882-.21 1.075-.753l.114-.322-2.155-5.276h1.33l1.501 4.281h.029l1.5-4.28h1.297l-2.235 5.542c-.511 1.271-1.097 1.688-2.336 1.688-.097 0-.41-.01-.495-.03z" clip-rule="evenodd"></path></svg>