<svg xmlns="http://www.w3.org/2000/svg" fill="none" viewBox="0 0 39 22"><path stroke="#D4D7DC" stroke-width=".8" d="M35.452 1h.391c.106.001.212.002.319.005.185.004.402.013.604.045.176.028.324.071.465.135.14.062.267.145.38.243a1.316 1.316 0 01.428.748c.035.178.045.37.05.536.003.093.005.186.005.281l.001.347V19.5c-.001.093-.003.187-.006.28a3.229 3.229 0 01-.051.536 1.312 1.312 0 01-.427.746c-.113.1-.24.182-.381.245-.141.064-.288.106-.462.134a4.735 4.735 0 01-.602.045c-.107.003-.214.004-.323.004l-.391.001H3.25l-.317-.004a4.764 4.764 0 01-.604-.046 1.773 1.773 0 01-.465-.135 1.487 1.487 0 01-.38-.244 1.332 1.332 0 01-.427-.748 3.25 3.25 0 01-.052-.534 12.503 12.503 0 01-.005-.28V2.992c.001-.094.002-.188.005-.282.005-.164.015-.355.052-.536a1.32 1.32 0 01.427-.746 1.5 1.5 0 01.38-.245c.141-.063.289-.106.465-.134a4.64 4.64 0 01.605-.045c.105-.003.212-.004.317-.004L3.643 1h31.809"></path><path fill="#FFFFFE" fill-rule="evenodd" d="M35.452 1h.391c.106.001.212.002.319.005.185.004.402.013.604.045.176.028.324.071.465.135.14.062.267.145.38.243a1.316 1.316 0 01.428.748c.035.178.045.37.05.536.003.093.005.186.005.281l.001.347V19.5c-.001.093-.003.187-.006.28a3.229 3.229 0 01-.051.536 1.312 1.312 0 01-.427.746c-.113.1-.24.182-.381.245-.141.064-.288.106-.462.134a4.735 4.735 0 01-.602.045c-.107.003-.214.004-.323.004l-.391.001H3.25l-.317-.004a4.764 4.764 0 01-.604-.046 1.773 1.773 0 01-.465-.135 1.487 1.487 0 01-.38-.244 1.332 1.332 0 01-.427-.748 3.25 3.25 0 01-.052-.534 12.503 12.503 0 01-.005-.28V2.992c.001-.094.002-.188.005-.282.005-.164.015-.355.052-.536a1.32 1.32 0 01.427-.746 1.5 1.5 0 01.38-.245c.141-.063.289-.106.465-.134a4.64 4.64 0 01.605-.045c.105-.003.212-.004.317-.004L3.643 1h31.809z" clip-rule="evenodd"></path><path fill="#7C7D82" d="M8.704 14h2.095c1.101 0 2.203-.427 2.203-1.693 0-.78-.526-1.274-1.258-1.372v-.017c.6-.18 1.01-.616 1.01-1.273 0-1.06-.903-1.463-1.782-1.463H8.704V14zm1.035-4.963h.83c.78 0 1.15.205 1.15.723 0 .501-.37.789-1.06.789h-.92V9.037zm0 2.4h.97c.838 0 1.257.213 1.257.82 0 .765-.764.872-1.298.872h-.929v-1.693zM13.318 14h1.158l.526-1.331h2.523L18.067 14h1.183l-2.506-5.818h-.896L13.319 14zm2.037-2.219l.913-2.366.895 2.366h-1.808zM19.826 14h1.035V9.505h.017L23.639 14h1.315V8.182h-1.036v4.355h-.016l-2.704-4.355h-1.372V14zm6.412 0h1.035v-2.917h.025L29.854 14h1.454l-2.9-3.13 2.72-2.688H29.73l-2.432 2.515h-.025V8.182h-1.035V14z"></path></svg>