<svg xmlns="http://www.w3.org/2000/svg" viewBox="0 0 40 23" style="background-color:#FFFFFE"><defs></defs><defs><linearGradient id="a" x1="185098" x2="159107" y1="111648" y2="87358.4" gradientTransform="scale(.00012)" gradientUnits="userSpaceOnUse"><stop offset="0" stop-color="#f7991e"></stop><stop offset="1" stop-color="#de5214"></stop></linearGradient></defs><path fill="#211d1c" fill-rule="evenodd" d="M33.68 10.58c0-.82-.59-1.3-1.62-1.3h-1.32v4.4h.9v-1.76h.1l1.24 1.77h1.1l-1.44-1.86c.67-.13 1.04-.57 1.04-1.25zm.44-1.4c-.2 0-.35.15-.35.34 0 .19.16.34.35.34.2 0 .35-.16.35-.34a.34.34 0 00-.35-.34zm0 .62a.28.28 0 110-.55c.15 0 .28.12.28.27 0 .15-.13.28-.28.28zm.13-.35c0-.08-.05-.13-.15-.13h-.13v.4h.1v-.16l.11.15h.12l-.13-.16c.05-.01.08-.05.08-.1zm-.16.05h-.02v-.1h.02c.04 0 .07.01.07.05 0 .03-.03.05-.07.05zM25 12.24l-1.22-2.96h-.98l1.94 4.52h.48l1.98-4.52h-.97zm-10.62-.75c0 1.3 1.06 2.3 2.41 2.3.4 0 .72-.08 1.13-.26v-1.01c-.36.34-.68.48-1.08.48-.9 0-1.54-.63-1.54-1.52 0-.85.66-1.52 1.5-1.52.42 0 .74.15 1.12.5V9.45c-.4-.2-.72-.27-1.1-.27a2.37 2.37 0 00-2.44 2.3zm-1.6-.52c-.54-.19-.7-.31-.7-.55 0-.28.29-.5.67-.5.27 0 .49.12.72.37l.47-.6a2.04 2.04 0 00-1.35-.48c-.8 0-1.42.54-1.42 1.26 0 .6.28.92 1.12 1.21.35.12.53.2.62.25.18.11.27.27.27.46 0 .35-.3.62-.7.62-.42 0-.77-.2-.97-.59l-.58.54c.41.58.9.84 1.59.84.93 0 1.58-.6 1.58-1.45 0-.7-.3-1.02-1.32-1.38zM9.7 13.7h.9v-4.4h-.9zm-2.87-4.4h-1.3v4.4h1.3c.7 0 1.2-.16 1.63-.51.52-.41.83-1.04.83-1.7 0-1.3-1-2.2-2.46-2.2zm1.05 3.3c-.28.25-.65.35-1.23.35h-.23v-2.91h.23c.58 0 .93.1 1.23.35.3.27.5.68.5 1.1 0 .43-.2.85-.5 1.11zm19.72 1.1h2.54v-.75H28.5v-1.19h1.58V11H28.5v-.97h1.64v-.75H27.6zm4.28-2.38h-.26V9.97h.28c.55 0 .86.23.86.66 0 .44-.3.68-.88.68zm0 0"></path><path fill="url(#a)" fill-rule="evenodd" d="M20.65 9.15a2.4 2.4 0 012.44 2.35 2.4 2.4 0 01-2.44 2.35 2.4 2.4 0 01-2.44-2.35 2.4 2.4 0 012.44-2.35zm0 0"></path><path fill="#ffffff" d="M3.77 0h32.46c1.04 0 1.98.4 2.66 1.06.69.66 1.11 1.57 1.11 2.56v15.75c0 1-.42 1.9-1.1 2.56A3.81 3.81 0 0136.22 23H3.77c-1.04 0-1.98-.4-2.66-1.07A3.54 3.54 0 010 19.38V3.63c0-1 .42-1.9 1.1-2.57A3.82 3.82 0 013.78 0zm32.46 1.25H3.77c-.68 0-1.3.27-1.75.7a2.31 2.31 0 00-.72 1.68v15.75c0 .65.27 1.24.72 1.67.45.43 1.07.7 1.75.7h32.46c.68 0 1.3-.27 1.75-.7.45-.43.72-1.02.72-1.68V3.63c0-.65-.27-1.24-.72-1.67a2.49 2.49 0 00-1.75-.7zm0 0"></path></svg>