<svg xmlns="http://www.w3.org/2000/svg" fill="none" viewBox="0 0 39 22"><path stroke="#D4D7DC" stroke-width=".8" d="M35.761 1c.106.001.212.002.319.005.185.004.402.013.604.045.176.028.324.071.465.135.14.062.267.145.38.243a1.319 1.319 0 01.428.748c.035.178.045.37.05.536a39.934 39.934 0 01.006.628V19.5c-.001.093-.003.187-.006.28a3.218 3.218 0 01-.051.536 1.31 1.31 0 01-.427.746c-.113.1-.24.182-.382.245-.14.064-.287.106-.46.134a4.735 4.735 0 01-.603.045c-.108.003-.214.004-.323.004l-.391.001H3.168l-.316-.004a4.764 4.764 0 01-.605-.046 1.773 1.773 0 01-.465-.135 1.487 1.487 0 01-.38-.244 1.332 1.332 0 01-.427-.748 3.25 3.25 0 01-.052-.534 12.521 12.521 0 01-.004-.28V2.992c0-.094.001-.188.004-.282.005-.164.015-.355.052-.536a1.32 1.32 0 01.427-.746 1.5 1.5 0 01.38-.245c.142-.063.289-.106.465-.134a4.64 4.64 0 01.605-.045c.106-.003.212-.004.317-.004L3.56 1h32.2z" clip-rule="evenodd"></path><path fill="#FFFFFE" fill-rule="evenodd" d="M35.37 1h.391c.106.001.212.002.319.005.185.004.402.013.604.045.176.028.324.071.465.135.14.062.267.145.38.243a1.319 1.319 0 01.428.748c.035.178.045.37.05.536a39.934 39.934 0 01.006.628V19.5c-.001.093-.003.187-.006.28a3.218 3.218 0 01-.051.536 1.31 1.31 0 01-.427.746c-.113.1-.24.182-.382.245-.14.064-.287.106-.46.134a4.735 4.735 0 01-.603.045c-.108.003-.214.004-.323.004l-.391.001H3.168l-.316-.004a4.764 4.764 0 01-.605-.046 1.773 1.773 0 01-.465-.135 1.487 1.487 0 01-.38-.244 1.332 1.332 0 01-.427-.748 3.25 3.25 0 01-.052-.534 12.521 12.521 0 01-.004-.28V2.992c0-.094.001-.188.004-.282.005-.164.015-.355.052-.536a1.32 1.32 0 01.427-.746 1.5 1.5 0 01.38-.245c.142-.063.289-.106.465-.134a4.64 4.64 0 01.605-.045c.106-.003.212-.004.317-.004L3.56 1H35.37z" clip-rule="evenodd"></path><path fill="#FF5F00" d="M17.022 6.392h5.922v9.507h-5.922V6.392z"></path><path fill="#EB001B" d="M17.397 11.146c0-1.932 1.015-3.645 2.576-4.754A7.247 7.247 0 0015.8 5.099c-3.741 0-6.768 2.704-6.768 6.046 0 3.343 3.027 6.047 6.768 6.047a7.247 7.247 0 004.173-1.293c-1.56-1.092-2.576-2.822-2.576-4.753z"></path><path fill="#F79E1B" d="M30.933 11.146c0 3.342-3.027 6.046-6.768 6.046a7.247 7.247 0 01-4.173-1.293c1.58-1.109 2.575-2.822 2.575-4.753 0-1.932-1.015-3.645-2.575-4.754a7.247 7.247 0 014.173-1.293c3.741 0 6.768 2.72 6.768 6.046z"></path></svg>