<svg xmlns="http://www.w3.org/2000/svg" fill="none" viewBox="0 0 39 22"><path stroke="#D4D7DC" stroke-width=".8" d="M35.452 1h.391c.106.001.212.002.319.005.185.004.402.013.604.045.176.028.323.071.465.135.14.062.267.145.379.243a1.319 1.319 0 01.428.748c.036.178.046.37.051.536.003.093.005.186.005.281l.001.347V19.5c-.001.093-.003.187-.006.28a3.208 3.208 0 01-.051.536 1.31 1.31 0 01-.427.746c-.113.1-.24.182-.382.245-.14.064-.287.106-.461.134a4.735 4.735 0 01-.603.045c-.107.003-.213.004-.322.004l-.391.001H3.25l-.317-.004a4.764 4.764 0 01-.604-.046 1.773 1.773 0 01-.465-.135 1.487 1.487 0 01-.38-.244 1.332 1.332 0 01-.427-.748 3.25 3.25 0 01-.052-.534 12.503 12.503 0 01-.005-.28V2.992c.001-.094.002-.188.005-.282.005-.164.015-.355.052-.536a1.32 1.32 0 01.427-.746 1.5 1.5 0 01.38-.245c.141-.063.289-.106.465-.134a4.64 4.64 0 01.605-.045c.105-.003.212-.004.317-.004L3.643 1h31.809"></path><path fill="#FFFFFE" fill-rule="evenodd" d="M35.843 1c.106.001.212.002.319.005.185.004.402.013.604.045.176.028.323.071.465.135.14.062.267.145.379.243a1.319 1.319 0 01.428.748c.036.178.046.37.051.536.003.093.005.186.005.281l.001.347V19.5c-.001.093-.003.187-.006.28a3.208 3.208 0 01-.051.536 1.31 1.31 0 01-.427.746c-.113.1-.24.182-.382.245-.14.064-.287.106-.461.134a4.735 4.735 0 01-.603.045c-.107.003-.213.004-.322.004l-.391.001H3.25l-.317-.004a4.764 4.764 0 01-.604-.046 1.773 1.773 0 01-.465-.135 1.487 1.487 0 01-.38-.244 1.332 1.332 0 01-.427-.748 3.25 3.25 0 01-.052-.534 12.503 12.503 0 01-.005-.28V2.992c.001-.094.002-.188.005-.282.005-.164.015-.355.052-.536a1.32 1.32 0 01.427-.746 1.5 1.5 0 01.38-.245c.141-.063.289-.106.465-.134a4.64 4.64 0 01.605-.045c.105-.003.212-.004.317-.004L3.643 1h32.2z" clip-rule="evenodd"></path><mask id="a" width="29" height="9" x="4" y="7" maskUnits="userSpaceOnUse"><path fill="#fff" fill-rule="evenodd" d="M18.864 9.784c-.016 1.106 1.111 1.724 1.96 2.09.872.377 1.165.619 1.161.955-.006.516-.695.743-1.34.752-1.125.016-1.78-.27-2.3-.485l-.404 1.683c.521.213 1.487.4 2.49.408 2.35 0 3.89-1.03 3.897-2.628.01-2.027-3.159-2.139-3.137-3.045.007-.275.303-.568.95-.642.32-.038 1.205-.067 2.208.343l.393-1.628a6.677 6.677 0 00-2.095-.341c-2.213 0-3.77 1.044-3.783 2.538zm9.66-2.398c-.43 0-.791.222-.953.563l-3.359 7.118h2.35l.467-1.147h2.872l.271 1.147h2.071l-1.807-7.681h-1.912zm.328 2.075l.679 2.884h-1.857l1.178-2.884zM16.017 7.386l-1.852 7.68h2.239l1.851-7.68h-2.238zm-3.314 0l-2.33 5.228-.943-4.445c-.11-.497-.548-.783-1.033-.783h-3.81l-.053.223c.782.15 1.67.393 2.21.653.329.16.423.298.53.675l1.787 6.13h2.366l3.628-7.681h-2.352z" clip-rule="evenodd"></path></mask><g mask="url(#a)"><path fill="url(#paint0_linear)" d="M1.631 8.194L28.934-.73l6.211 14.967-27.302 8.923"></path></g><defs><linearGradient id="paint0_linear" x1="1.69" x2="21.682" y1="6.619" y2="-6.239" gradientUnits="userSpaceOnUse"><stop stop-color="#222357"></stop><stop offset="1" stop-color="#254AA5"></stop></linearGradient></defs></svg>