<svg width="16" height="16" viewBox="0 0 16 16" fill="none" xmlns="http://www.w3.org/2000/svg">
<path fill-rule="evenodd" clip-rule="evenodd" d="M4 1H12C13.6569 1 15 2.34315 15 4V12C15 13.6569 13.6569 15 12 15H4C2.34315 15 1 13.6569 1 12V4C1 2.34315 2.34315 1 4 1ZM0 4C0 1.79086 1.79086 0 4 0H12C14.2091 0 16 1.79086 16 4V12C16 14.2091 14.2091 16 12 16H4C1.79086 16 0 14.2091 0 12V4ZM4.18409 7.96226L6.45878 10.3507L11.7616 3.66918C12.0758 3.27319 12.6363 3.21969 13.0135 3.54968C13.3906 3.87967 13.4416 4.4682 13.1273 4.86419L7.20137 12.3308C6.86675 12.7525 6.25957 12.7814 5.88997 12.3933L2.92702 9.28219C2.57988 8.9177 2.57988 8.32675 2.92702 7.96226C3.27415 7.59778 3.83696 7.59778 4.18409 7.96226Z" fill="#0171A1"/>
</svg>
