<svg width="16" height="16" viewBox="0 0 16 16" fill="none" xmlns="http://www.w3.org/2000/svg">
<path fill-rule="evenodd" clip-rule="evenodd" d="M4 1H12C13.6569 1 15 2.34315 15 4V12C15 13.6569 13.6569 15 12 15H4C2.34315 15 1 13.6569 1 12V4C1 2.34315 2.34315 1 4 1ZM0 4C0 1.79086 1.79086 0 4 0H12C14.2091 0 16 1.79086 16 4V12C16 14.2091 14.2091 16 12 16H4C1.79086 16 0 14.2091 0 12V4ZM4.66667 7.33333C4.29848 7.33333 4 7.63181 4 8C4 8.36819 4.29848 8.66667 4.66667 8.66667H11.3333C11.7015 8.66667 12 8.36819 12 8C12 7.63181 11.7015 7.33333 11.3333 7.33333H4.66667Z" fill="#0171A1"/>
</svg>
