<svg width="14" height="14" viewBox="0 0 14 14" fill="none" xmlns="http://www.w3.org/2000/svg">
<path fill-rule="evenodd" clip-rule="evenodd" d="M0.700195 6.99995C0.700195 3.52056 3.5208 0.699951 7.0002 0.699951C8.67106 0.699951 10.2735 1.3637 11.455 2.54518C12.6364 3.72666 13.3002 5.32909 13.3002 6.99995C13.3002 10.4793 10.4796 13.3 7.0002 13.3C3.5208 13.3 0.700195 10.4793 0.700195 6.99995ZM7.0002 1.57902C4.0063 1.57902 1.57927 4.00605 1.57927 6.99995C1.57927 9.99385 4.0063 12.4209 7.0002 12.4209C9.99409 12.4209 12.4211 9.99385 12.4211 6.99995C12.4211 5.56223 11.85 4.1834 10.8334 3.16677C9.81675 2.15015 8.43792 1.57902 7.0002 1.57902Z" fill="#B4CFE0"/>
</svg>
