<svg width="24" height="24" viewBox="0 0 24 24" fill="none" xmlns="http://www.w3.org/2000/svg">
<path fill-rule="evenodd" clip-rule="evenodd" d="M5.33333 4.22222C4.71968 4.22222 4.22222 4.71968 4.22222 5.33333V6.44445C4.22222 7.0581 3.72476 7.55556 3.11111 7.55556C2.49746 7.55556 2 7.0581 2 6.44445V5.33333C2 3.49238 3.49238 2 5.33333 2H7.55556C8.16921 2 8.66667 2.49746 8.66667 3.11111C8.66667 3.72476 8.16921 4.22222 7.55556 4.22222H5.33333ZM15.3333 3.11111C15.3333 2.49746 15.8308 2 16.4444 2H18.6667C20.5077 2 22 3.49239 22 5.33333V6.44445C22 7.0581 21.5025 7.55556 20.8889 7.55556C20.2752 7.55556 19.7778 7.0581 19.7778 6.44445V5.33333C19.7778 4.71967 19.2803 4.22222 18.6667 4.22222H16.4444C15.8308 4.22222 15.3333 3.72476 15.3333 3.11111ZM3.11111 12C3.11111 11.3864 3.60857 10.8889 4.22222 10.8889H19.7778C20.3914 10.8889 20.8889 11.3864 20.8889 12C20.8889 12.6137 20.3914 13.1111 19.7778 13.1111H4.22222C3.60857 13.1111 3.11111 12.6137 3.11111 12ZM3.11111 16.4444C3.72476 16.4444 4.22222 16.9419 4.22222 17.5556V18.6667C4.22222 19.2803 4.71967 19.7778 5.33333 19.7778H7.55556C8.16921 19.7778 8.66667 20.2752 8.66667 20.8889C8.66667 21.5025 8.16921 22 7.55556 22H5.33333C3.49239 22 2 20.5077 2 18.6667V17.5556C2 16.9419 2.49746 16.4444 3.11111 16.4444ZM20.8889 16.4444C21.5025 16.4444 22 16.9419 22 17.5556V18.6667C22 20.5077 20.5077 22 18.6667 22H16.4444C15.8308 22 15.3333 21.5025 15.3333 20.8889C15.3333 20.2752 15.8308 19.7778 16.4444 19.7778H18.6667C19.2804 19.7778 19.7778 19.2804 19.7778 18.6667V17.5556C19.7778 16.9419 20.2752 16.4444 20.8889 16.4444Z" fill="#0171A1"/>
</svg>
