<svg width="18" height="18" viewBox="0 0 18 18" fill="none" xmlns="http://www.w3.org/2000/svg">
    <path d="M15.3409 0C16.8095 0 18 1.19052 18 2.65909V15.3409C18 16.8095 16.8095 18 15.3409 18H2.65909C1.19052 18 0 16.8095 0 15.3409V2.65909C0 1.19052 1.19052 0 2.65909 0H15.3409ZM16.7727 5.32064H1.22727V15.3409C1.22727 16.1317 1.86832 16.7727 2.65909 16.7727H15.3409C16.1317 16.7727 16.7727 16.1317 16.7727 15.3409V5.32064ZM4.70355 11.8648C5.26838 11.8648 5.72627 12.3227 5.72627 12.8875C5.72627 13.4524 5.26838 13.9102 4.70355 13.9102C4.13871 13.9102 3.68082 13.4524 3.68082 12.8875C3.68082 12.3227 4.13871 11.8648 4.70355 11.8648ZM9.00267 11.8648C9.5675 11.8648 10.0254 12.3227 10.0254 12.8875C10.0254 13.4524 9.5675 13.9102 9.00267 13.9102C8.43783 13.9102 7.97994 13.4524 7.97994 12.8875C7.97994 12.3227 8.43783 11.8648 9.00267 11.8648ZM4.70355 7.77388C5.26838 7.77388 5.72627 8.23177 5.72627 8.79661C5.72627 9.36144 5.26838 9.81933 4.70355 9.81933C4.13871 9.81933 3.68082 9.36144 3.68082 8.79661C3.68082 8.23177 4.13871 7.77388 4.70355 7.77388ZM9.00267 7.77388C9.5675 7.77388 10.0254 8.23177 10.0254 8.79661C10.0254 9.36144 9.5675 9.81933 9.00267 9.81933C8.43783 9.81933 7.97994 9.36144 7.97994 8.79661C7.97994 8.23177 8.43783 7.77388 9.00267 7.77388ZM13.3018 7.77388C13.8666 7.77388 14.3245 8.23177 14.3245 8.79661C14.3245 9.36144 13.8666 9.81933 13.3018 9.81933C12.737 9.81933 12.2791 9.36144 12.2791 8.79661C12.2791 8.23177 12.737 7.77388 13.3018 7.77388ZM15.3409 1.22727H2.65909C1.86832 1.22727 1.22727 1.86832 1.22727 2.65909V4.09336H16.7727V2.65909C16.7727 1.86832 16.1317 1.22727 15.3409 1.22727Z" fill="#4A4A4A" />
</svg>