<svg width="16" height="16" viewBox="0 0 16 16" fill="none" xmlns="http://www.w3.org/2000/svg">
<path d="M13.0735 0.799805C14.2484 0.799805 15.2008 1.75222 15.2008 2.92708V13.0725C15.2008 14.2474 14.2484 15.1998 13.0735 15.1998H2.92805C1.75319 15.1998 0.800781 14.2474 0.800781 13.0725V2.92708C0.800781 1.75222 1.75319 0.799805 2.92805 0.799805H13.0735ZM14.219 5.05631H1.7826V13.0725C1.7826 13.7051 2.29544 14.218 2.92805 14.218H13.0735C13.7061 14.218 14.219 13.7051 14.219 13.0725V5.05631ZM4.56362 10.2916C5.01549 10.2916 5.3818 10.6579 5.3818 11.1098C5.3818 11.5617 5.01549 11.928 4.56362 11.928C4.11175 11.928 3.74543 11.5617 3.74543 11.1098C3.74543 10.6579 4.11175 10.2916 4.56362 10.2916ZM8.00291 10.2916C8.45478 10.2916 8.8211 10.6579 8.8211 11.1098C8.8211 11.5617 8.45478 11.928 8.00291 11.928C7.55104 11.928 7.18473 11.5617 7.18473 11.1098C7.18473 10.6579 7.55104 10.2916 8.00291 10.2916ZM4.56362 7.01891C5.01549 7.01891 5.3818 7.38522 5.3818 7.83709C5.3818 8.28896 5.01549 8.65527 4.56362 8.65527C4.11175 8.65527 3.74543 8.28896 3.74543 7.83709C3.74543 7.38522 4.11175 7.01891 4.56362 7.01891ZM8.00291 7.01891C8.45478 7.01891 8.8211 7.38522 8.8211 7.83709C8.8211 8.28896 8.45478 8.65527 8.00291 8.65527C7.55104 8.65527 7.18473 8.28896 7.18473 7.83709C7.18473 7.38522 7.55104 7.01891 8.00291 7.01891ZM11.4422 7.01891C11.8941 7.01891 12.2604 7.38522 12.2604 7.83709C12.2604 8.28896 11.8941 8.65527 11.4422 8.65527C10.9903 8.65527 10.624 8.28896 10.624 7.83709C10.624 7.38522 10.9903 7.01891 11.4422 7.01891ZM13.0735 1.78162H2.92805C2.29544 1.78162 1.7826 2.29446 1.7826 2.92708V4.0745H14.219V2.92708C14.219 2.29446 13.7061 1.78162 13.0735 1.78162Z" fill="#0171A1"/>
</svg>
