<svg width="20" height="20" viewBox="0 0 20 20" fill="none" xmlns="http://www.w3.org/2000/svg">
<path d="M6.62352 4.54405C6.90262 4.88773 6.83221 5.37882 6.46625 5.64092C5.02712 6.67167 4.16667 8.26811 4.16667 10C4.16667 12.737 6.30396 15.0052 9.09666 15.413L8.50592 14.8577C8.18049 14.5521 8.18049 14.0566 8.50592 13.751C8.83136 13.4453 9.359 13.4453 9.68443 13.751L11.7678 15.7075C12.0932 16.0131 12.0932 16.5086 11.7678 16.8143L9.68443 18.7708C9.359 19.0764 8.83136 19.0764 8.50592 18.7708C8.18049 18.4652 8.18049 17.9696 8.50592 17.664L9.20857 17.0047C5.43846 16.6334 2.5 13.639 2.5 10C2.5 7.7746 3.60735 5.72009 5.45555 4.39635C5.82151 4.13424 6.34443 4.20037 6.62352 4.54405ZM8.23223 3.18574L10.3156 1.22922C10.641 0.923593 11.1686 0.923593 11.4941 1.22922C11.7945 1.51134 11.8176 1.95526 11.5634 2.26227L11.4941 2.336L10.7914 2.99527C14.5615 3.3666 17.5 6.36103 17.5 10C17.5 12.1286 16.4874 14.1033 14.7737 15.4328C14.4188 15.708 13.8936 15.661 13.6005 15.3278C13.3074 14.9946 13.3574 14.5013 13.7122 14.226C15.0466 13.1908 15.8333 11.6566 15.8333 10C15.8333 7.26298 13.696 4.99476 10.9033 4.58703L11.4941 5.14226C11.8195 5.44789 11.8195 5.94341 11.4941 6.24904C11.1937 6.53116 10.721 6.55286 10.3941 6.31414L10.3156 6.24904L8.23223 4.29252C7.93183 4.0104 7.90872 3.56648 8.16291 3.25947L8.23223 3.18574L10.3156 1.22922L8.23223 3.18574Z" fill="#ffffff"/>
</svg>
