<svg width="32" height="32" viewBox="0 0 32 32" fill="none" xmlns="http://www.w3.org/2000/svg">
<g clip-path="url(#clip0_12847_181122)">
<path d="M0 16C0 7.16344 7.16344 0 16 0C24.8366 0 32 7.16344 32 16C32 24.8366 24.8366 32 16 32C7.16344 32 0 24.8366 0 16Z" fill="#EBF2F5"/>
<path fill-rule="evenodd" clip-rule="evenodd" d="M11.0222 14.5774C11.0222 17.3265 13.2508 19.5552 16 19.5552C18.7491 19.5552 20.9778 17.3265 20.9778 14.5774C20.9778 11.8282 18.7491 9.59961 16 9.59961C13.2508 9.59961 11.0222 11.8282 11.0222 14.5774ZM15.9793 22.0441C10.1037 22.0441 5.28317 25.0637 4.80081 31.0031C4.77454 31.3266 5.39324 31.9996 5.70534 31.9996H26.2626C27.1974 31.9996 27.2119 31.2473 27.1974 31.0041C26.8327 24.8978 21.9375 22.0441 15.9793 22.0441Z" fill="#819FB2"/>
</g>
<path d="M16 31C7.71573 31 1 24.2843 1 16H-1C-1 25.3888 6.61116 33 16 33V31ZM31 16C31 24.2843 24.2843 31 16 31V33C25.3888 33 33 25.3888 33 16H31ZM16 1C24.2843 1 31 7.71573 31 16H33C33 6.61116 25.3888 -1 16 -1V1ZM16 -1C6.61116 -1 -1 6.61116 -1 16H1C1 7.71573 7.71573 1 16 1V-1Z" fill="#EBF2F5"/>
<defs>
<clipPath id="clip0_12847_181122">
<path d="M0 16C0 7.16344 7.16344 0 16 0C24.8366 0 32 7.16344 32 16C32 24.8366 24.8366 32 16 32C7.16344 32 0 24.8366 0 16Z" fill="white"/>
</clipPath>
</defs>
</svg>
