<svg width="20" height="20" viewBox="0 0 20 20" fill="none" xmlns="http://www.w3.org/2000/svg">
<path d="M16.8749 3.125C18.0831 3.125 19.0728 4.05986 19.1603 5.24564L19.1666 5.41667V14.5833C19.1666 15.7915 18.2318 16.7812 17.0459 16.8687L16.8749 16.875H3.12492C1.9168 16.875 0.927021 15.9402 0.839538 14.7544L0.833252 14.5833V5.41667C0.833252 4.20854 1.76811 3.21877 2.95389 3.13129L3.12492 3.125H16.8749ZM16.8749 4.27083H13.4374V15.7292H16.8749C17.4626 15.7292 17.9469 15.2868 18.013 14.717L18.0208 14.5833V5.41667C18.0208 4.82905 17.5784 4.34473 17.0086 4.27854L16.8749 4.27083ZM12.2916 4.27083H3.12492C2.5373 4.27083 2.05298 4.71317 1.98679 5.28304L1.97909 5.41667V14.5833C1.97909 15.171 2.42143 15.6553 2.99129 15.7215L3.12492 15.7292H12.2916V4.27083ZM8.58605 7.50275L8.66963 7.56361L10.9613 9.56882C11.0856 9.67762 11.157 9.83478 11.157 9.99999C11.157 10.1322 11.1113 10.2592 11.0294 10.3604L10.9613 10.4312L8.66963 12.4364C8.4315 12.6447 8.06956 12.6206 7.8612 12.3824C7.67599 12.1708 7.67448 11.8613 7.84366 11.6488L7.91509 11.574L9.05922 10.5729H4.84367C4.52726 10.5729 4.27075 10.3164 4.27075 10C4.27075 9.71875 4.47342 9.48482 4.74069 9.43631L4.84367 9.42708H9.05925L7.91509 8.42595C7.67697 8.21759 7.65284 7.85564 7.8612 7.61752C8.0464 7.40585 8.35296 7.36326 8.58605 7.50275Z" fill="#F93131"/>
</svg>
